<svg width="416" height="131" viewBox="0 0 416 131" fill="none" xmlns="http://www.w3.org/2000/svg">
<rect x="4.73828" y="7" width="47" height="46" rx="9.96947" fill="#E09EFF"/>
<path d="M18.6229 40.625C17.9995 40.625 17.4671 40.4042 17.0256 39.9627C16.584 39.5212 16.3633 38.9887 16.3633 38.3653V34.7596H40.1132V38.3653C40.1132 38.9887 39.8925 39.5212 39.4509 39.9627C39.0094 40.4042 38.477 40.625 37.8536 40.625H18.6229ZM18.2382 36.6346V38.3653C18.2382 38.4775 18.2743 38.5697 18.3464 38.6418C18.4186 38.7139 18.5107 38.75 18.6229 38.75H37.8536C37.9658 38.75 38.0579 38.7139 38.1301 38.6418C38.2022 38.5697 38.2382 38.4775 38.2382 38.3653V36.6346H18.2382ZM28.2382 31.3221C27.4963 31.3221 26.9165 31.5304 26.4991 31.9471C26.0816 32.3637 25.3376 32.5721 24.2671 32.5721C23.1966 32.5721 22.459 32.3637 22.0544 31.9471C21.6497 31.5304 21.0764 31.3221 20.3344 31.3221C19.5925 31.3221 19.0127 31.5304 18.5952 31.9471C18.1778 32.3637 17.4338 32.5721 16.3633 32.5721V30.6971C17.1053 30.6971 17.685 30.4888 18.1025 30.0721C18.5199 29.6555 19.2639 29.4471 20.3344 29.4471C21.4049 29.4471 22.1425 29.6555 22.5472 30.0721C22.9518 30.4888 23.5251 30.6971 24.2671 30.6971C25.0091 30.6971 25.5888 30.4888 26.0063 30.0721C26.4238 29.6555 27.1677 29.4471 28.2382 29.4471C29.3087 29.4471 30.0527 29.6555 30.4702 30.0721C30.8877 30.4888 31.4674 30.6971 32.2094 30.6971C32.9514 30.6971 33.5207 30.4888 33.9173 30.0721C34.314 29.6555 35.0475 29.4471 36.118 29.4471C37.1885 29.4471 37.9493 29.6555 38.4005 30.0721C38.8516 30.4888 39.4225 30.6971 40.1132 30.6971V32.5721C39.0427 32.5721 38.3155 32.3637 37.9317 31.9471C37.5479 31.5304 36.985 31.3221 36.243 31.3221C35.501 31.3221 34.9109 31.5304 34.4726 31.9471C34.0343 32.3637 33.2799 32.5721 32.2094 32.5721C31.1389 32.5721 30.3949 32.3637 29.9774 31.9471C29.56 31.5304 28.9802 31.3221 28.2382 31.3221ZM16.3633 27.2596V26.25C16.3633 24.0705 17.3633 22.3798 19.3633 21.1779C21.3633 19.976 24.3216 19.375 28.2382 19.375C32.1549 19.375 35.1132 19.976 37.1132 21.1779C39.1132 22.3798 40.1132 24.0705 40.1132 26.25V27.2596H16.3633ZM28.2382 21.25C25.3184 21.25 23.0147 21.611 21.3272 22.3329C19.6397 23.0549 18.6485 24.0721 18.3536 25.3847H38.1229C37.828 24.0721 36.8368 23.0549 35.1493 22.3329C33.4618 21.611 31.1581 21.25 28.2382 21.25Z" fill="black"/>
<rect x="76.7383" y="7" width="47" height="46" rx="9.96947" fill="#4AFF93"/>
<path d="M93.8666 42.625V41.2672C93.1916 41.2672 92.6138 41.0268 92.1331 40.5462C91.6525 40.0655 91.4121 39.4877 91.4121 38.8127V24.7124C91.4121 24.0374 91.6525 23.4596 92.1331 22.9789C92.6138 22.4982 93.1916 22.2579 93.8666 22.2579H96.7781V18.5762C96.7781 18.2437 96.8952 17.9604 97.1293 17.7262C97.3634 17.4921 97.6467 17.375 97.9792 17.375H102.496C102.829 17.375 103.112 17.4921 103.346 17.7262C103.581 17.9604 103.698 18.2437 103.698 18.5762V22.2579H106.609C107.284 22.2579 107.862 22.4982 108.343 22.9789C108.823 23.4596 109.064 24.0374 109.064 24.7124V38.8127C109.064 39.4877 108.823 40.0655 108.343 40.5462C107.862 41.0268 107.284 41.2672 106.609 41.2672V42.625H104.572V41.2672H95.9033V42.625H93.8666ZM98.8148 22.2579H101.661V19.4117H98.8148V22.2579ZM100.238 29.9869C101.437 29.9869 102.608 29.8342 103.751 29.5287C104.894 29.2232 105.986 28.7649 107.027 28.1539V24.7124C107.027 24.5905 106.988 24.4904 106.909 24.4121C106.831 24.3337 106.731 24.2946 106.609 24.2946H93.8666C93.7448 24.2946 93.6447 24.3337 93.5663 24.4121C93.488 24.4904 93.4488 24.5905 93.4488 24.7124V28.1539C94.4898 28.7649 95.5817 29.2232 96.7245 29.5287C97.8673 29.8342 99.0385 29.9869 100.238 29.9869ZM99.2195 33.3814V31.9818C98.2081 31.8861 97.2215 31.7164 96.2597 31.4727C95.298 31.2289 94.361 30.8886 93.4488 30.4517V38.8127C93.4488 38.9345 93.488 39.0346 93.5663 39.113C93.6447 39.1913 93.7448 39.2305 93.8666 39.2305H106.609C106.731 39.2305 106.831 39.1913 106.909 39.113C106.988 39.0346 107.027 38.9345 107.027 38.8127V30.4517C106.115 30.8886 105.178 31.2289 104.216 31.4727C103.254 31.7164 102.268 31.8861 101.256 31.9818V33.3814H99.2195Z" fill="black"/>
<rect x="148.738" y="7" width="47" height="46" rx="14" fill="#FFC60B"/>
<path d="M166.409 41.887L171.433 32.8125L161.613 31.6226L176.145 18.113H178.092L173.007 27.1995L182.863 28.3774L168.332 41.887H166.409ZM171.652 36.1516L178.654 29.7644L170.032 28.738L172.83 23.8437L165.822 30.2428L174.414 31.2861L171.652 36.1515V36.1516Z" fill="black"/>
<rect x="220.738" y="6.7379" width="46.5242" height="46.5242" rx="14" fill="#EBEBEB"/>
<path d="M234.09 38.625C233.191 38.625 232.494 38.3069 231.999 37.6706C231.503 37.0344 231.315 36.2842 231.436 35.42L232.855 25.3915C233.028 24.2262 233.543 23.2654 234.4 22.5093C235.256 21.7531 236.267 21.375 237.433 21.375H250.569C251.734 21.375 252.745 21.7531 253.602 22.5093C254.458 23.2654 254.973 24.2262 255.147 25.3915L256.566 35.42C256.687 36.2842 256.499 37.0344 256.003 37.6706C255.507 38.3069 254.81 38.625 253.912 38.625C253.533 38.625 253.184 38.5612 252.867 38.4336C252.55 38.306 252.255 38.1061 251.983 37.834L248.793 34.6442H239.209L236.019 37.834C235.747 38.1061 235.452 38.306 235.135 38.4336C234.817 38.5612 234.469 38.625 234.09 38.625ZM234.62 36.4356L238.402 32.6539H249.599L253.381 36.4356C253.425 36.4798 253.594 36.5462 253.886 36.6346C254.13 36.6346 254.323 36.5628 254.467 36.419C254.611 36.2753 254.66 36.0818 254.616 35.8385L253.157 25.6211C253.068 24.9798 252.779 24.4435 252.288 24.0122C251.797 23.581 251.224 23.3654 250.569 23.3654H237.433C236.778 23.3654 236.205 23.581 235.714 24.0122C235.223 24.4435 234.933 24.9798 234.845 25.6211L233.385 35.8385C233.341 36.0818 233.391 36.2753 233.535 36.419C233.678 36.5628 233.872 36.6346 234.115 36.6346C234.176 36.6346 234.345 36.5683 234.62 36.4356ZM250.635 31.1993C250.969 31.1993 251.252 31.0828 251.485 30.8497C251.718 30.6167 251.835 30.3334 251.835 30C251.835 29.6666 251.718 29.3833 251.485 29.1503C251.252 28.9172 250.969 28.8007 250.635 28.8007C250.302 28.8007 250.019 28.9172 249.786 29.1503C249.553 29.3833 249.436 29.6666 249.436 30C249.436 30.3334 249.553 30.6167 249.786 30.8497C250.019 31.0828 250.302 31.1993 250.635 31.1993ZM247.982 27.2186C248.315 27.2186 248.598 27.102 248.831 26.8689C249.064 26.6359 249.181 26.3527 249.181 26.0192C249.181 25.6858 249.064 25.4025 248.831 25.1695C248.598 24.9364 248.315 24.8199 247.982 24.8199C247.648 24.8199 247.365 24.9364 247.132 25.1695C246.899 25.4025 246.782 25.6858 246.782 26.0192C246.782 26.3527 246.899 26.6359 247.132 26.8689C247.365 27.102 247.648 27.2186 247.982 27.2186ZM238.566 31.1228H240.148V28.8007H242.47V27.2186H240.148V24.8964H238.566V27.2186H236.243V28.8007H238.566V31.1228Z" fill="black"/>
<rect x="292.262" y="7" width="47" height="46" rx="9.96947" fill="#33CFFF"/>
<path d="M315.762 40.655C315.475 40.655 315.196 40.6013 314.924 40.4939C314.652 40.3866 314.413 40.2255 314.206 40.0108L306.072 31.8449C305.343 31.1158 304.796 30.2884 304.432 29.363C304.069 28.4375 303.887 27.4804 303.887 26.4916C303.887 24.5221 304.517 22.8386 305.776 21.4411C307.036 20.0437 308.595 19.345 310.454 19.345C311.382 19.345 312.264 19.5329 313.102 19.9087C313.939 20.2845 314.686 20.8105 315.341 21.4868L315.762 21.9316L316.158 21.5108C316.809 20.8186 317.555 20.2845 318.396 19.9087C319.238 19.5329 320.118 19.345 321.038 19.345C322.897 19.345 324.462 20.0437 325.732 21.4411C327.002 22.8386 327.637 24.5116 327.637 26.4603C327.637 27.4571 327.452 28.4183 327.081 29.3437C326.711 30.2692 326.168 31.0966 325.452 31.8257L317.286 40.0108C317.071 40.2255 316.835 40.3866 316.578 40.4939C316.321 40.6013 316.049 40.655 315.762 40.655ZM317.012 25.3306C317.172 25.3306 317.322 25.3686 317.461 25.4447C317.601 25.5208 317.71 25.6222 317.79 25.7488L320 29.0806H325.139C325.357 28.6623 325.52 28.2328 325.629 27.7921C325.738 27.3514 325.789 26.9074 325.781 26.4603C325.747 25.0228 325.28 23.7965 324.379 22.7812C323.479 21.766 322.365 21.2584 321.038 21.2584C320.376 21.2584 319.736 21.3894 319.119 21.6514C318.501 21.9135 317.965 22.2961 317.512 22.7993L316.524 23.8618C316.428 23.9788 316.312 24.0657 316.178 24.1226C316.043 24.1795 315.904 24.2079 315.762 24.2079C315.619 24.2079 315.478 24.1775 315.34 24.1166C315.201 24.0557 315.077 23.9708 314.968 23.8618L313.98 22.7993C313.527 22.2961 312.994 21.9071 312.383 21.6322C311.772 21.3574 311.129 21.2199 310.454 21.2199C309.127 21.2199 308.013 21.734 307.113 22.762C306.212 23.7901 305.762 25.0228 305.762 26.4603C305.762 26.9155 305.813 27.3614 305.916 27.7981C306.018 28.2348 306.174 28.6623 306.384 29.0806H312.012C312.172 29.0806 312.32 29.1186 312.455 29.1947C312.591 29.2708 312.698 29.3722 312.778 29.4988L314.233 31.6647L316.125 25.9892C316.192 25.7953 316.305 25.637 316.464 25.5144C316.622 25.3919 316.805 25.3306 317.012 25.3306ZM317.291 28.3713L315.399 34.0469C315.331 34.2408 315.213 34.399 315.044 34.5216C314.875 34.6442 314.687 34.7055 314.48 34.7055C314.32 34.7055 314.172 34.6674 314.037 34.5913C313.902 34.5152 313.794 34.4139 313.714 34.2872L311.492 30.9555H307.836L315.543 38.6743C315.585 38.7159 315.621 38.742 315.652 38.7524C315.684 38.7628 315.72 38.768 315.762 38.768C315.803 38.768 315.84 38.7628 315.871 38.7524C315.902 38.742 315.939 38.7159 315.98 38.6743L323.668 30.9555H319.512C319.351 30.9555 319.202 30.9154 319.062 30.8353C318.923 30.7552 318.807 30.6518 318.714 30.5252L317.291 28.3713Z" fill="black"/>
<rect x="364.262" y="7" width="47" height="46" rx="14" fill="#4AFF93"/>
<path d="M389.632 42.0625L388.194 40.625L392.632 36.1875L381.574 25.1298L377.137 29.5673L375.699 28.1298L377.473 26.3173L376.036 24.8798L378.661 22.2548L376.911 20.4664L378.228 19.1491L380.017 20.8991L382.642 18.2741L384.079 19.7115L385.892 17.9375L387.329 19.375L382.891 23.8125L393.949 34.8702L398.387 30.4327L399.824 31.8702L398.05 33.6827L399.488 35.1202L396.863 37.7452L398.613 39.5336L397.295 40.8509L395.507 39.1009L392.882 41.7259L391.444 40.2884L389.632 42.0625Z" fill="black"/>
<rect x="40.5" y="78.2621" width="47" height="46" rx="14" fill="#FFC60B"/>
<path d="M60.7032 113.532C59.2352 113.532 57.9836 113.021 56.9484 111.998C55.9131 110.976 55.3955 109.739 55.3955 108.288C55.3955 107.584 55.564 106.932 55.9008 106.332C56.2377 105.732 56.8245 105.035 57.6611 104.241C57.9293 104.006 58.1664 103.76 58.3727 103.502C58.5789 103.244 58.8152 102.964 59.0816 102.662C58.0244 101.043 57.2157 99.3541 56.6556 97.5951C56.0956 95.8361 55.8156 94.1097 55.8156 92.416C55.8156 91.2891 55.9921 90.4367 56.3451 89.8589C56.6981 89.281 57.2046 88.9921 57.8648 88.9921C58.8593 88.9921 59.8041 89.5246 60.6993 90.5895C61.5946 91.6544 62.3086 92.7452 62.8415 93.8619C63.1249 94.4899 63.3621 95.1382 63.553 95.8068C63.744 96.4755 63.8929 97.1501 63.9998 97.8307C64.1067 97.1501 64.2577 96.4755 64.4529 95.8068C64.6481 95.1382 64.8899 94.4899 65.1784 93.8619C65.6893 92.7452 66.3944 91.6544 67.2939 90.5895C68.1933 89.5246 69.1403 88.9921 70.1348 88.9921C70.7949 88.9921 71.3015 89.281 71.6545 89.8589C72.0075 90.4367 72.184 91.2891 72.184 92.416C72.184 94.1097 71.904 95.8361 71.3439 97.5951C70.7839 99.3541 69.9752 101.043 68.9179 102.662C69.1844 102.964 69.4207 103.244 69.6269 103.502C69.8331 103.76 70.0703 104.006 70.3385 104.241C71.1751 105.035 71.7619 105.732 72.0987 106.332C72.4356 106.932 72.6041 107.584 72.6041 108.288C72.6041 109.739 72.0864 110.976 71.0512 111.998C70.016 113.021 68.7644 113.532 67.2964 113.532C66.3885 113.532 65.612 113.409 64.9671 113.163L63.9998 112.794L63.0324 113.163C62.3875 113.409 61.6111 113.532 60.7032 113.532ZM60.7541 111.547C61.236 111.547 61.7308 111.484 62.2382 111.358C62.7456 111.233 63.22 111.048 63.6612 110.806C63.4355 110.695 63.2297 110.518 63.0439 110.275C62.8581 110.031 62.7652 109.819 62.7652 109.637C62.7652 109.461 62.8835 109.313 63.1203 109.193C63.357 109.073 63.6502 109.014 63.9998 109.014C64.3409 109.014 64.6277 109.076 64.8602 109.199C65.0927 109.323 65.209 109.469 65.209 109.637C65.209 109.819 65.116 110.031 64.9302 110.275C64.7444 110.518 64.5386 110.695 64.3129 110.806C64.7541 111.048 65.2285 111.233 65.7359 111.358C66.2433 111.484 66.738 111.547 67.22 111.547C68.1636 111.547 68.9617 111.231 69.6142 110.6C70.2668 109.968 70.593 109.198 70.593 108.288C70.593 107.857 70.4764 107.45 70.243 107.066C70.0097 106.683 69.6554 106.291 69.1802 105.89C68.8883 105.642 68.6558 105.428 68.4827 105.246C68.3096 105.064 68.0576 104.766 67.7266 104.35C67.0274 103.467 66.4555 102.902 66.0108 102.653C65.5662 102.405 64.8916 102.28 63.987 102.28C63.0825 102.28 62.4045 102.405 61.9531 102.653C61.5016 102.902 60.9331 103.467 60.2475 104.35C59.9165 104.766 59.6645 105.064 59.4914 105.246C59.3183 105.428 59.0858 105.642 58.7939 105.89C58.3187 106.291 57.9645 106.683 57.7311 107.066C57.4978 107.45 57.3811 107.857 57.3811 108.288C57.3811 109.198 57.7074 109.968 58.3599 110.6C59.0124 111.231 59.8105 111.547 60.7541 111.547ZM62.0142 107.244C61.8377 107.244 61.6832 107.145 61.5509 106.947C61.4185 106.748 61.3523 106.516 61.3523 106.252C61.3523 105.987 61.4185 105.755 61.5509 105.557C61.6832 105.358 61.8377 105.259 62.0142 105.259C62.1907 105.259 62.3451 105.358 62.4775 105.557C62.6099 105.755 62.676 105.987 62.676 106.252C62.676 106.516 62.6099 106.748 62.4775 106.947C62.3451 107.145 62.1907 107.244 62.0142 107.244ZM65.9854 107.244C65.8089 107.244 65.6545 107.145 65.5221 106.947C65.3897 106.748 65.3235 106.516 65.3235 106.252C65.3235 105.987 65.3897 105.755 65.5221 105.557C65.6545 105.358 65.8089 105.259 65.9854 105.259C66.1619 105.259 66.3163 105.358 66.4487 105.557C66.5811 105.755 66.6473 105.987 66.6473 106.252C66.6473 106.516 66.5811 106.748 66.4487 106.947C66.3163 107.145 66.1619 107.244 65.9854 107.244ZM60.5097 101.206C60.7694 101.013 61.0558 100.854 61.3689 100.73C61.682 100.606 62.0261 100.506 62.4011 100.43C62.357 99.4216 62.2056 98.4106 61.9468 97.3966C61.688 96.3825 61.3532 95.4368 60.9425 94.5594C60.5148 93.626 60.0388 92.8453 59.5144 92.2174C58.99 91.5895 58.474 91.1873 57.9666 91.0108C57.9225 91.1601 57.8839 91.3459 57.8508 91.5683C57.8177 91.7906 57.8011 92.0604 57.8011 92.3778C57.8011 93.8356 58.0362 95.3282 58.5063 96.8556C58.9764 98.383 59.6442 99.8332 60.5097 101.206ZM67.4899 101.206C68.3554 99.8332 69.0232 98.383 69.4933 96.8556C69.9634 95.3282 70.1984 93.8356 70.1984 92.3778C70.1984 92.0604 70.1819 91.7906 70.1488 91.5683C70.1157 91.3459 70.0771 91.1601 70.033 91.0108C69.5255 91.1873 69.0096 91.5895 68.4852 92.2174C67.9608 92.8453 67.4848 93.626 67.0571 94.5594C66.66 95.4368 66.332 96.3825 66.0732 97.3966C65.8144 98.4106 65.6561 99.4216 65.5984 100.43C65.9463 100.492 66.2768 100.589 66.5899 100.72C66.9031 100.851 67.203 101.013 67.4899 101.206Z" fill="black"/>
<rect x="112.5" y="78.2621" width="47" height="46" rx="14" fill="#FF668F"/>
<path d="M136 111.226C135.293 111.226 134.696 110.982 134.208 110.494C133.72 110.006 133.476 109.409 133.476 108.702C133.476 107.995 133.72 107.398 134.208 106.91C134.696 106.422 135.293 106.178 136 106.178C136.706 106.178 137.304 106.422 137.792 106.91C138.28 107.398 138.524 107.995 138.524 108.702C138.524 109.409 138.28 110.006 137.792 110.494C137.304 110.982 136.706 111.226 136 111.226ZM128.937 104.524L126.985 102.534C128.142 101.377 129.49 100.465 131.027 99.7982C132.564 99.1315 134.223 98.7982 136.002 98.7982C137.781 98.7982 139.438 99.1347 140.974 99.8078C142.511 100.481 143.857 101.402 145.014 102.572L143.062 104.524C142.146 103.607 141.083 102.889 139.875 102.368C138.666 101.847 137.375 101.587 136 101.587C134.625 101.587 133.333 101.847 132.125 102.368C130.916 102.889 129.854 103.607 128.937 104.524ZM123.625 99.2116L121.673 97.2597C123.501 95.4056 125.637 93.9484 128.079 92.8883C130.521 91.8282 133.162 91.2982 136 91.2982C138.838 91.2982 141.478 91.8282 143.92 92.8883C146.363 93.9484 148.498 95.4056 150.327 97.2597L148.375 99.2116C146.771 97.6074 144.911 96.3522 142.797 95.446C140.682 94.5397 138.416 94.0866 136 94.0866C133.583 94.0866 131.317 94.5397 129.203 95.446C127.088 96.3522 125.229 97.6074 123.625 99.2116Z" fill="black"/>
<rect x="184.5" y="78.2621" width="47" height="46" rx="11.2987" fill="#33CFFF"/>
<path d="M199.274 111.298C199.008 111.298 198.785 111.208 198.606 111.029C198.426 110.849 198.337 110.626 198.337 110.361V109.111H198C197.127 109.111 196.387 108.808 195.782 108.203C195.177 107.598 194.875 106.859 194.875 105.986V99.7356C194.875 98.8142 195.189 98.063 195.818 97.482C196.447 96.9011 197.175 96.6107 198 96.6107V94.3511C198 93.4777 198.302 92.7385 198.907 92.1336C199.512 91.5286 200.252 91.2261 201.125 91.2261H214.875C215.748 91.2261 216.488 91.5286 217.093 92.1336C217.698 92.7385 218 93.4777 218 94.3511V96.6107C218.857 96.6107 219.593 96.9071 220.205 97.5001C220.818 98.093 221.125 98.8382 221.125 99.7356V105.986C221.125 106.859 220.822 107.598 220.218 108.203C219.613 108.808 218.873 109.111 218 109.111H217.663V110.361C217.663 110.626 217.578 110.849 217.406 111.029C217.235 111.208 217.016 111.298 216.75 111.298C216.485 111.298 216.262 111.208 216.082 111.029C215.902 110.849 215.813 110.626 215.813 110.361V109.111H200.212V110.361C200.212 110.627 200.122 110.849 199.942 111.029C199.762 111.208 199.539 111.298 199.274 111.298ZM198 107.236H218C218.354 107.236 218.651 107.116 218.891 106.876C219.13 106.637 219.25 106.34 219.25 105.986V99.7356C219.25 99.3815 219.13 99.0846 218.891 98.845C218.651 98.6054 218.354 98.4856 218 98.4856C217.646 98.4856 217.349 98.6054 217.109 98.845C216.87 99.0846 216.75 99.3815 216.75 99.7356V104.423H199.25V99.7356C199.25 99.3815 199.13 99.0846 198.891 98.845C198.651 98.6054 198.354 98.4856 198 98.4856C197.646 98.4856 197.349 98.6054 197.109 98.845C196.87 99.0846 196.75 99.3815 196.75 99.7356V105.986C196.75 106.34 196.87 106.637 197.109 106.876C197.349 107.116 197.646 107.236 198 107.236ZM201.125 102.548H214.875V99.7356C214.875 99.2292 214.99 98.7669 215.219 98.3486C215.448 97.9304 215.75 97.5802 216.125 97.2982V94.3511C216.125 93.9969 216.005 93.7 215.766 93.4604C215.526 93.2209 215.229 93.1011 214.875 93.1011H201.125C200.771 93.1011 200.474 93.2209 200.234 93.4604C199.995 93.7 199.875 93.9969 199.875 94.3511V97.2982C200.25 97.5802 200.552 97.9304 200.781 98.3486C201.01 98.7669 201.125 99.2292 201.125 99.7356V102.548Z" fill="black"/>
<rect x="256.5" y="78.2621" width="47" height="46" rx="9.96947" fill="#CCE7FF"/>
<path d="M272.969 109.267H279.411C279.492 109.267 279.56 109.239 279.616 109.183C279.672 109.127 279.7 109.059 279.7 108.978V107.945C279.7 107.865 279.672 107.796 279.616 107.74C279.56 107.684 279.492 107.656 279.411 107.656H272.969C272.889 107.656 272.821 107.684 272.765 107.74C272.709 107.796 272.681 107.865 272.681 107.945V108.978C272.681 109.059 272.709 109.127 272.765 109.183C272.821 109.239 272.889 109.267 272.969 109.267ZM273.378 99.0746H279.003C279.197 99.0746 279.369 98.9989 279.521 98.8475C279.672 98.696 279.748 98.5234 279.748 98.3295C279.748 98.1355 279.672 97.9629 279.521 97.8114C279.369 97.66 279.197 97.5843 279.003 97.5843H273.378C273.184 97.5843 273.011 97.66 272.86 97.8114C272.708 97.9629 272.633 98.1355 272.633 98.3295C272.633 98.5234 272.708 98.696 272.86 98.8475C273.011 98.9989 273.184 99.0746 273.378 99.0746ZM273.378 96.19H279.003C279.197 96.19 279.369 96.1143 279.521 95.9629C279.672 95.8114 279.748 95.6388 279.748 95.4448C279.748 95.2509 279.672 95.0783 279.521 94.9268C279.369 94.7754 279.197 94.6997 279.003 94.6997H273.378C273.184 94.6997 273.011 94.7754 272.86 94.9268C272.708 95.0783 272.633 95.2509 272.633 95.4448C272.633 95.6388 272.708 95.8114 272.86 95.9629C273.011 96.1143 273.184 96.19 273.378 96.19ZM284.195 100.132V98.2573H286.31C286.423 98.2573 286.515 98.2213 286.587 98.1492C286.659 98.0771 286.695 97.9849 286.695 97.8727V95.9016C286.695 95.7894 286.659 95.6972 286.587 95.6251C286.515 95.553 286.423 95.517 286.31 95.517H284.195V93.642H286.31C286.932 93.642 287.464 93.8632 287.906 94.3057C288.349 94.7482 288.57 95.2802 288.57 95.9016V95.9497H290.878C291.143 95.9497 291.366 96.0396 291.546 96.2193C291.725 96.3991 291.815 96.6218 291.815 96.8876C291.815 97.1533 291.725 97.3759 291.546 97.5554C291.366 97.7349 291.143 97.8246 290.878 97.8246H288.57V97.8727C288.57 98.4941 288.349 99.0261 287.906 99.4686C287.464 99.9111 286.932 100.132 286.31 100.132H284.195ZM279.315 105.781H277.44V100.517H281.935C282.048 100.517 282.14 100.481 282.212 100.409C282.284 100.337 282.32 100.244 282.32 100.132V93.642C282.32 93.5298 282.284 93.4376 282.212 93.3655C282.14 93.2934 282.048 93.2573 281.935 93.2573H272.561C271.873 93.2573 271.284 93.5021 270.795 93.9917C270.305 94.4813 270.061 95.0698 270.061 95.7573V98.017C270.061 98.7045 270.305 99.293 270.795 99.7826C271.284 100.272 271.873 100.517 272.561 100.517H274.94V105.781H273.065V102.392H272.561C271.357 102.392 270.327 101.964 269.471 101.107C268.614 100.25 268.186 99.2201 268.186 98.017V95.7573C268.186 94.5542 268.614 93.5243 269.471 92.6675C270.327 91.8108 271.357 91.3824 272.561 91.3824H281.935C282.557 91.3824 283.089 91.6037 283.531 92.0462C283.974 92.4887 284.195 93.0206 284.195 93.642V100.132C284.195 100.754 283.974 101.286 283.531 101.728C283.089 102.171 282.557 102.392 281.935 102.392H279.315V105.781ZM272.5 111.142C272.03 111.142 271.63 110.977 271.3 110.648C270.971 110.318 270.806 109.918 270.806 109.447V107.476C270.806 107.005 270.971 106.605 271.3 106.276C271.63 105.946 272.03 105.781 272.5 105.781H279.88C280.351 105.781 280.751 105.946 281.081 106.276C281.41 106.605 281.575 107.005 281.575 107.476V109.447C281.575 109.918 281.41 110.318 281.081 110.648C280.751 110.977 280.351 111.142 279.88 111.142H272.5ZM279.411 109.267H272.681H279.7H279.411Z" fill="black"/>
<rect x="328.5" y="78.2621" width="47" height="46" rx="11.2987" fill="#DCA3FF"/>
<path d="M344.885 113.137C344.253 113.137 343.719 112.918 343.281 112.481C342.844 112.043 342.625 111.509 342.625 110.877V96.6468C342.625 96.0153 342.844 95.4809 343.281 95.0434C343.719 94.6059 344.253 94.3871 344.885 94.3871H347.312V94.0746C347.312 92.7798 347.77 91.6748 348.685 90.7597C349.6 89.8447 350.705 89.3871 352 89.3871C353.295 89.3871 354.4 89.8447 355.315 90.7597C356.23 91.6748 356.687 92.7798 356.687 94.0746V94.3871H359.115C359.747 94.3871 360.281 94.6059 360.719 95.0434C361.156 95.4809 361.375 96.0153 361.375 96.6468V110.877C361.375 111.509 361.156 112.043 360.719 112.481C360.281 112.918 359.747 113.137 359.115 113.137H344.885ZM344.885 111.262H359.115C359.211 111.262 359.3 111.222 359.38 111.142C359.46 111.062 359.5 110.974 359.5 110.877V96.6468C359.5 96.5506 359.46 96.4624 359.38 96.3823C359.3 96.3022 359.211 96.2621 359.115 96.2621H356.687V99.0746C356.687 99.3407 356.598 99.5634 356.418 99.7429C356.239 99.9224 356.016 100.012 355.75 100.012C355.484 100.012 355.261 99.9224 355.082 99.7429C354.902 99.5634 354.812 99.3407 354.812 99.0746V96.2621H349.187V99.0746C349.187 99.3407 349.098 99.5634 348.918 99.7429C348.739 99.9224 348.516 100.012 348.25 100.012C347.984 100.012 347.761 99.9224 347.582 99.7429C347.402 99.5634 347.312 99.3407 347.312 99.0746V96.2621H344.885C344.788 96.2621 344.7 96.3022 344.62 96.3823C344.54 96.4624 344.5 96.5506 344.5 96.6468V110.877C344.5 110.974 344.54 111.062 344.62 111.142C344.7 111.222 344.788 111.262 344.885 111.262ZM349.187 94.3871H354.812V94.0746C354.812 93.291 354.54 92.6263 353.994 92.0806C353.448 91.5349 352.784 91.2621 352 91.2621C351.216 91.2621 350.552 91.5349 350.006 92.0806C349.46 92.6263 349.187 93.291 349.187 94.0746V94.3871Z" fill="black"/>
</svg>
