<svg width="1297" height="180" viewBox="0 0 1297 180" fill="none" xmlns="http://www.w3.org/2000/svg">
<path d="M5 122.431C16.5273 102.415 80.0498 18.1131 187.669 76.0406C257.081 113.403 326.605 184.793 441.648 172.706C556.692 160.62 608.504 -10.735 742 8.1725C898.654 30.3599 998.871 220.23 1258.27 91.8291" stroke="#EAC8FF" stroke-width="11.5199"/>
<path d="M866.869 50.9055C866.869 58.478 861.015 64.3454 854.123 64.3454C847.23 64.3454 841.377 58.478 841.377 50.9055C841.377 43.333 847.23 37.4656 854.123 37.4656C861.015 37.4656 866.869 43.333 866.869 50.9055Z" fill="#060606" stroke="#B091C2" stroke-width="7.67992"/>
<path d="M1258.93 95.7798C1258.93 103.352 1253.07 109.22 1246.18 109.22C1239.29 109.22 1233.44 103.352 1233.44 95.7798C1233.44 88.2073 1239.29 82.34 1246.18 82.34C1253.07 82.34 1258.93 88.2073 1258.93 95.7798Z" fill="#060606" stroke="#EAC8FF" stroke-width="7.67992"/>
<rect x="1135.58" y="36" width="94.0202" height="38.7316" rx="13" fill="white"/>
<path d="M1151.11 57.678V55.7868H1156.34V57.678H1151.11ZM1158.35 61.8658C1158.35 60.9524 1158.44 60.0132 1158.62 59.0482C1158.82 58.0704 1159.09 57.1055 1159.45 56.1534C1159.83 55.1885 1160.29 54.2686 1160.86 53.3937C1161.44 52.506 1162.12 51.7083 1162.89 51.0007V50.8656L1156.33 50.9042V49.1094H1164.84V50.9814C1164.23 51.5989 1163.67 52.3066 1163.16 53.1042C1162.64 53.889 1162.2 54.7446 1161.83 55.671C1161.45 56.5973 1161.16 57.5815 1160.96 58.6237C1160.75 59.6658 1160.65 60.7465 1160.65 61.8658H1158.35ZM1170.9 62.136C1170.25 62.136 1169.64 62.0588 1169.09 61.9044C1168.55 61.7501 1168.07 61.5185 1167.66 61.2097C1167.26 60.888 1166.94 60.4956 1166.7 60.0325C1166.47 59.5693 1166.33 59.0289 1166.29 58.4114L1168.26 57.9868C1168.31 58.4628 1168.43 58.8552 1168.61 59.164C1168.79 59.4728 1169 59.7108 1169.24 59.8781C1169.5 60.0453 1169.77 60.1611 1170.06 60.2255C1170.35 60.2898 1170.63 60.3219 1170.9 60.3219C1171.53 60.3219 1172.06 60.2062 1172.47 59.9746C1172.89 59.7301 1173.23 59.3956 1173.49 58.971C1173.75 58.5336 1173.93 58.0383 1174.05 57.485C1174.17 56.9189 1174.22 56.3143 1174.22 55.671C1174.22 55.3493 1174.21 55.0277 1174.19 54.706C1174.16 54.3844 1174.12 54.0692 1174.07 53.7604C1174.02 53.4387 1173.96 53.13 1173.9 52.8341H1173.7C1173.77 53.5931 1173.7 54.2364 1173.51 54.7639C1173.32 55.2786 1173.03 55.7031 1172.66 56.0376C1172.29 56.3593 1171.87 56.5973 1171.41 56.7517C1170.96 56.8932 1170.49 56.964 1170.02 56.964C1169.31 56.964 1168.66 56.8096 1168.07 56.5008C1167.49 56.1792 1167.03 55.7289 1166.68 55.1499C1166.33 54.5581 1166.16 53.8569 1166.16 53.0463C1166.16 52.5188 1166.24 52.0042 1166.41 51.5024C1166.59 51.0007 1166.86 50.5504 1167.22 50.1515C1167.59 49.7527 1168.07 49.4375 1168.65 49.2059C1169.23 48.9743 1169.92 48.8585 1170.73 48.8585C1171.9 48.8585 1172.9 49.1223 1173.72 49.6498C1174.56 50.1773 1175.2 50.9556 1175.63 51.9849C1176.07 53.0013 1176.29 54.2364 1176.29 55.6903C1176.29 57.0412 1176.09 58.1991 1175.69 59.164C1175.29 60.129 1174.69 60.8687 1173.9 61.3834C1173.1 61.8851 1172.1 62.136 1170.9 62.136ZM1170.63 55.4008C1171.14 55.4008 1171.58 55.2914 1171.97 55.0727C1172.35 54.854 1172.65 54.5452 1172.87 54.1464C1173.09 53.7347 1173.2 53.2651 1173.2 52.7376C1173.2 52.1843 1173.09 51.7533 1172.85 51.4445C1172.62 51.1358 1172.33 50.917 1171.97 50.7884C1171.62 50.6597 1171.26 50.5954 1170.89 50.5954C1170.42 50.5954 1170.02 50.6662 1169.69 50.8077C1169.37 50.9363 1169.1 51.1165 1168.9 51.3481C1168.69 51.5796 1168.54 51.8434 1168.43 52.1393C1168.33 52.4223 1168.28 52.7183 1168.28 53.027C1168.28 53.5288 1168.38 53.9598 1168.59 54.3201C1168.81 54.6674 1169.09 54.9376 1169.44 55.1306C1169.8 55.3107 1170.2 55.4008 1170.63 55.4008ZM1176.8 64.4326C1177.03 63.8279 1177.19 63.2811 1177.28 62.7922C1177.39 62.3161 1177.44 61.8594 1177.46 61.422C1177.48 60.9717 1177.5 60.5149 1177.5 60.0518H1179.46C1179.46 60.7723 1179.41 61.4027 1179.31 61.943C1179.22 62.4834 1179.1 62.953 1178.94 63.3518C1178.79 63.7636 1178.63 64.1238 1178.46 64.4326H1176.8ZM1180.09 59.2026V56.9833C1180.7 56.3528 1181.26 55.7096 1181.77 55.0534C1182.3 54.3972 1182.77 53.7411 1183.2 53.0849C1183.64 52.4159 1184.02 51.7469 1184.36 51.0779C1184.69 50.4089 1184.97 49.7527 1185.21 49.1094H1188.81V61.8658H1186.71V50.6919H1186.58C1186.22 51.5668 1185.8 52.3966 1185.34 53.1814C1184.88 53.9662 1184.38 54.6996 1183.84 55.3815C1183.31 56.0634 1182.76 56.7002 1182.2 57.2921V57.4271H1190.44V59.2026H1180.09ZM1192.94 61.8658C1192.94 60.9524 1193.03 60.0132 1193.21 59.0482C1193.4 58.0704 1193.67 57.1055 1194.04 56.1534C1194.41 55.1885 1194.88 54.2686 1195.44 53.3937C1196.02 52.506 1196.7 51.7083 1197.47 51.0007V50.8656L1190.91 50.9042V49.1094H1199.42V50.9814C1198.81 51.5989 1198.26 52.3066 1197.74 53.1042C1197.23 53.889 1196.78 54.7446 1196.41 55.671C1196.04 56.5973 1195.75 57.5815 1195.54 58.6237C1195.33 59.6658 1195.23 60.7465 1195.23 61.8658H1192.94ZM1200.53 55.0148L1200.97 53.799H1208.15L1207.71 55.0148H1200.53ZM1200.26 57.5429L1200.7 56.3271H1207.57L1207.13 57.5429H1200.26ZM1207.92 62.1167C1206.98 62.1167 1206.14 61.9688 1205.39 61.6729C1204.66 61.3769 1204.03 60.9459 1203.52 60.3798C1203.02 59.8137 1202.64 59.1319 1202.38 58.3342C1202.12 57.5236 1201.99 56.6166 1201.99 55.6131C1201.99 54.5838 1202.12 53.6575 1202.38 52.8341C1202.65 51.9978 1203.04 51.2837 1203.54 50.6919C1204.05 50.1001 1204.67 49.6498 1205.39 49.341C1206.11 49.0322 1206.92 48.8778 1207.82 48.8778C1208.54 48.8778 1209.19 48.9807 1209.77 49.1866C1210.36 49.3796 1210.86 49.6626 1211.28 50.0357C1211.7 50.4088 1212.02 50.8592 1212.24 51.3867C1212.47 51.9013 1212.59 52.4802 1212.59 53.1235L1210.62 53.5481C1210.62 52.9177 1210.49 52.3902 1210.23 51.9656C1209.98 51.541 1209.63 51.2194 1209.19 51.0007C1208.77 50.782 1208.29 50.6726 1207.76 50.6726C1207.29 50.6726 1206.83 50.7691 1206.39 50.9621C1205.96 51.1422 1205.57 51.4317 1205.24 51.8305C1204.91 52.2165 1204.66 52.7183 1204.46 53.3358C1204.27 53.9405 1204.17 54.6674 1204.17 55.5166C1204.17 56.6102 1204.33 57.5108 1204.64 58.2184C1204.96 58.926 1205.4 59.4535 1205.97 59.8009C1206.55 60.1483 1207.22 60.3219 1207.99 60.3219C1208.73 60.3219 1209.32 60.174 1209.77 59.8781C1210.22 59.5822 1210.56 59.1705 1210.77 58.643C1210.99 58.1155 1211.1 57.5108 1211.1 56.8289L1213.03 57.1184C1213.03 57.8131 1212.94 58.4628 1212.74 59.0675C1212.56 59.6722 1212.27 60.2062 1211.85 60.6693C1211.44 61.1196 1210.91 61.4734 1210.25 61.7308C1209.61 61.9881 1208.83 62.1167 1207.92 62.1167Z" fill="black"/>
<rect x="874.01" y="3" width="95.8315" height="39.427" rx="13" fill="white"/>
<path d="M889.961 24.9125V22.9701H895.332V24.9125H889.961ZM896.559 26.4783V24.199C897.18 23.5515 897.755 22.8908 898.284 22.2169C898.825 21.5431 899.314 20.8692 899.75 20.1953C900.2 19.5082 900.596 18.8211 900.94 18.134C901.283 17.4469 901.574 16.773 901.812 16.1123H905.518V29.2135H903.358V17.7376H903.219C902.849 18.6361 902.426 19.4884 901.95 20.2944C901.475 21.1004 900.959 21.8536 900.405 22.5539C899.863 23.2542 899.301 23.9083 898.72 24.5161V24.6548H907.183V26.4783H896.559ZM908.453 29.2135V26.8152L913.17 23.3071C913.435 23.0956 913.705 22.8644 913.983 22.6134C914.274 22.3491 914.531 22.0716 914.756 21.7809C914.994 21.477 915.185 21.1533 915.331 20.8097C915.489 20.4662 915.569 20.1028 915.569 19.7196C915.569 19.3364 915.476 18.9929 915.291 18.6889C915.106 18.385 914.835 18.1472 914.478 17.9754C914.122 17.8036 913.679 17.7177 913.15 17.7177C912.741 17.7177 912.371 17.7772 912.041 17.8961C911.71 18.0151 911.426 18.2066 911.188 18.4709C910.964 18.7352 910.798 19.0721 910.693 19.4818C910.6 19.8914 910.58 20.3869 910.633 20.9683L908.552 20.6511C908.486 19.6733 908.618 18.8277 908.949 18.1142C909.279 17.3874 909.801 16.8258 910.514 16.4294C911.228 16.033 912.12 15.8348 913.19 15.8348C914.115 15.8348 914.914 15.9868 915.588 16.2907C916.262 16.5814 916.784 17.0108 917.154 17.579C917.524 18.134 917.709 18.8013 917.709 19.5809C917.709 20.1887 917.61 20.7502 917.412 21.2656C917.214 21.7677 916.949 22.2302 916.619 22.653C916.289 23.0626 915.919 23.4392 915.509 23.7827C915.113 24.1263 914.716 24.4434 914.32 24.7341L910.871 27.3108V27.4495L918.006 27.39V29.2135H908.453ZM919 31.8496C919.238 31.2286 919.403 30.667 919.496 30.1649C919.602 29.676 919.661 29.2069 919.674 28.7576C919.701 28.2952 919.714 27.8261 919.714 27.3504H921.736C921.736 28.0904 921.683 28.7378 921.577 29.2928C921.485 29.8477 921.359 30.33 921.2 30.7397C921.042 31.1625 920.877 31.5325 920.705 31.8496H919ZM924.128 29.2135V19.4619H922.285V17.579C922.853 17.579 923.335 17.4865 923.732 17.3015C924.128 17.1165 924.386 16.7267 924.505 16.1321H926.308V29.2135H924.128ZM933.935 29.491C932.878 29.491 931.947 29.3588 931.141 29.0946C930.335 28.8303 929.707 28.4339 929.258 27.9054C928.822 27.3768 928.604 26.7161 928.604 25.9233C928.604 25.3023 928.736 24.7672 929 24.3179C929.278 23.8686 929.654 23.5053 930.13 23.2278C930.606 22.9371 931.161 22.7521 931.795 22.6728V22.5341L933.916 22.2169L936.036 22.5143V22.653C936.657 22.7191 937.206 22.8908 937.681 23.1683C938.17 23.4458 938.554 23.8158 938.831 24.2783C939.109 24.7275 939.247 25.2759 939.247 25.9233C939.247 26.7161 939.023 27.3768 938.573 27.9054C938.137 28.4339 937.516 28.8303 936.71 29.0946C935.917 29.3588 934.993 29.491 933.935 29.491ZM933.955 27.6279C934.272 27.6279 934.609 27.6015 934.966 27.5486C935.323 27.4825 935.66 27.3768 935.977 27.2315C936.294 27.0861 936.552 26.8879 936.75 26.6369C936.961 26.3726 937.067 26.0423 937.067 25.6459C937.067 25.1702 936.915 24.7738 936.611 24.4566C936.32 24.1263 935.937 23.8819 935.462 23.7233C934.986 23.5515 934.471 23.4656 933.916 23.4656C933.387 23.4656 932.885 23.5449 932.409 23.7035C931.934 23.862 931.544 24.1065 931.24 24.4368C930.949 24.7539 930.804 25.1503 930.804 25.626C930.804 26.0092 930.903 26.333 931.101 26.5972C931.299 26.8483 931.557 27.0531 931.874 27.2117C932.191 27.357 932.528 27.4627 932.885 27.5288C933.255 27.5948 933.612 27.6279 933.955 27.6279ZM933.916 21.7413C934.352 21.7413 934.768 21.6686 935.164 21.5232C935.574 21.3779 935.911 21.1533 936.175 20.8494C936.439 20.5454 936.572 20.149 936.572 19.6601C936.572 19.2902 936.486 18.9796 936.314 18.7286C936.142 18.4775 935.924 18.2793 935.66 18.134C935.396 17.9754 935.105 17.8631 934.788 17.797C934.471 17.731 934.167 17.6979 933.876 17.6979C933.48 17.6979 933.077 17.7574 932.667 17.8763C932.271 17.9952 931.934 18.2 931.656 18.4907C931.392 18.7682 931.26 19.1514 931.26 19.6403C931.26 20.116 931.385 20.5124 931.636 20.8295C931.901 21.1334 932.231 21.3647 932.627 21.5232C933.037 21.6686 933.466 21.7413 933.916 21.7413ZM933.916 23.1485L931.795 22.7125V22.4548C931.24 22.3491 930.751 22.1707 930.328 21.9196C929.919 21.6686 929.601 21.3383 929.377 20.9286C929.152 20.5058 929.04 20.0037 929.04 19.4223C929.04 18.6295 929.245 17.9688 929.654 17.4403C930.077 16.9117 930.652 16.5153 931.379 16.2511C932.105 15.9736 932.951 15.8348 933.916 15.8348C934.907 15.8348 935.765 15.9802 936.492 16.2709C937.232 16.5484 937.794 16.958 938.177 17.4997C938.573 18.0283 938.772 18.6757 938.772 19.4421C938.772 20.2614 938.54 20.9286 938.078 21.444C937.629 21.9461 936.948 22.283 936.036 22.4548V22.6926L933.916 23.1485ZM940.831 22.1773L941.287 20.9286H948.66L948.204 22.1773H940.831ZM940.554 24.7738L941.009 23.5251H948.065L947.61 24.7738H940.554ZM948.422 29.4712C947.458 29.4712 946.592 29.3192 945.826 29.0153C945.073 28.7114 944.432 28.2687 943.903 27.6873C943.388 27.1059 942.998 26.4056 942.734 25.5864C942.469 24.7539 942.337 23.8224 942.337 22.7917C942.337 21.7347 942.469 20.7833 942.734 19.9376C943.011 19.0787 943.408 18.3454 943.923 17.7376C944.452 17.1297 945.086 16.6673 945.826 16.3502C946.566 16.033 947.398 15.8745 948.323 15.8745C949.063 15.8745 949.73 15.9802 950.325 16.1916C950.933 16.3898 951.448 16.6805 951.871 17.0637C952.307 17.4469 952.637 17.9093 952.862 18.4511C953.1 18.9796 953.219 19.5742 953.219 20.2349L951.197 20.671C951.197 20.0235 951.065 19.4818 950.801 19.0457C950.536 18.6097 950.18 18.2793 949.73 18.0547C949.294 17.8301 948.805 17.7177 948.264 17.7177C947.775 17.7177 947.306 17.8169 946.856 18.0151C946.407 18.2 946.011 18.4973 945.667 18.907C945.337 19.3034 945.073 19.8187 944.874 20.4529C944.676 21.074 944.577 21.8205 944.577 22.6926C944.577 23.8158 944.736 24.7407 945.053 25.4675C945.383 26.1942 945.839 26.736 946.42 27.0927C947.015 27.4495 947.709 27.6279 948.501 27.6279C949.255 27.6279 949.862 27.4759 950.325 27.172C950.787 26.8681 951.131 26.4453 951.356 25.9035C951.58 25.3618 951.693 24.7407 951.693 24.0404L953.675 24.3377C953.675 25.0512 953.575 25.7185 953.377 26.3396C953.192 26.9606 952.888 27.509 952.466 27.9846C952.043 28.4471 951.494 28.8105 950.82 29.0748C950.16 29.339 949.36 29.4712 948.422 29.4712Z" fill="black"/>
</svg>
