<svg width="232" height="135" viewBox="0 0 232 135" fill="none" xmlns="http://www.w3.org/2000/svg">
<rect x="0.0634766" y="0.830261" width="230.995" height="133.631" rx="33" fill="#33CFFF"/>
<g clip-path="url(#clip0_263_14984)">
<g clip-path="url(#clip1_263_14984)">
<path d="M64.9365 51.6487L64.9679 51.7371H65.0616H65.3359C66.577 51.7371 67.7673 52.2301 68.6449 53.1077C69.5225 53.9853 70.0155 55.1756 70.0155 56.4167V61.0963H68.3565H68.2393L68.2247 61.2126L65.031 86.7624H39.9747L36.781 61.2126L36.7664 61.0963H36.6492H34.9902V56.4167C34.9902 55.1756 35.4832 53.9853 36.3608 53.1077C37.2384 52.2301 38.4287 51.7371 39.6698 51.7371H39.9441H40.0379L40.0692 51.6487C40.393 50.7369 40.991 49.9476 41.7811 49.389C42.5712 48.8305 43.5148 48.53 44.4824 48.5288L60.5234 48.5288C61.491 48.53 62.4345 48.8305 63.2246 49.389C64.0147 49.9476 64.6127 50.7369 64.9365 51.6487ZM66.94 58.1536H67.0728V58.0208V56.4167C67.0728 55.9561 66.8898 55.5143 66.5641 55.1885C66.2383 54.8628 65.7965 54.6798 65.3359 54.6798H62.2604V53.2084C62.2604 52.7478 62.0774 52.306 61.7517 51.9803C61.4259 51.6546 60.9842 51.4716 60.5235 51.4716H44.4822C44.0216 51.4716 43.5798 51.6546 43.254 51.9803C42.9283 52.306 42.7453 52.7478 42.7453 53.2084V54.6798H39.6698C39.2092 54.6798 38.7674 54.8628 38.4416 55.1885C38.1159 55.5143 37.9329 55.9561 37.9329 56.4167V58.0208V58.1536H38.0657H66.94ZM42.5587 83.7034L42.5732 83.8197H42.6904H62.3153H62.4325L62.4471 83.7034L63.6502 74.0786L63.6688 73.9294H63.5184H58.7894H58.6772L58.6585 74.0401C57.9535 78.226 55.214 80.2878 52.504 80.2884C49.794 80.2889 47.0538 78.2284 46.3472 74.0401L46.3285 73.9294H46.2163H41.4873H41.3369L41.3556 74.0786L42.5587 83.7034ZM49.1619 72.4545L49.1617 72.4545L49.1619 72.4615C49.2469 75.6633 50.8361 77.347 52.5058 77.3472C54.1757 77.3474 55.7628 75.664 55.8438 72.4614L55.844 72.4614L55.8438 72.4545C55.7588 69.2528 54.1717 67.569 52.5029 67.5688C50.834 67.5686 49.2469 69.252 49.1619 72.4545ZM63.9195 70.9866H64.0366L64.0512 70.8703L65.2543 61.2456L65.2729 61.0963H65.1226H39.8767H39.7264L39.745 61.2456L40.9481 70.8703L40.9626 70.9866H41.0798H46.2131H46.3253L46.344 70.876C47.0498 66.6901 49.7893 64.6283 52.4991 64.6277C55.2088 64.6271 57.9487 66.6876 58.6553 70.876L58.674 70.9866H58.7862H63.9195Z" fill="black" stroke="#E5BAFF" stroke-width="0.265511"/>
</g>
</g>
<path d="M167.851 49.5251V40.7633H169.072V49.5251H167.851ZM168.342 45.8213V44.7725H173.267V45.8213H168.342ZM168.342 41.8386V40.7633H173.838V41.8386H168.342ZM177.785 49.6977C177.139 49.6977 176.564 49.5605 176.059 49.2862C175.563 49.003 175.174 48.5914 174.891 48.0516C174.608 47.5117 174.466 46.8523 174.466 46.0735C174.466 45.277 174.612 44.6132 174.904 44.0822C175.205 43.5511 175.603 43.1529 176.099 42.8874C176.595 42.6219 177.148 42.4891 177.758 42.4891C178.387 42.4891 178.949 42.6263 179.444 42.9006C179.949 43.175 180.343 43.5821 180.626 44.122C180.918 44.6619 181.064 45.3301 181.064 46.1266C181.064 46.9143 180.918 47.5736 180.626 48.1047C180.343 48.6357 179.953 49.034 179.458 49.2995C178.962 49.565 178.404 49.6977 177.785 49.6977ZM177.825 48.7021C178.081 48.7021 178.329 48.6578 178.568 48.5693C178.807 48.472 179.024 48.3259 179.219 48.1312C179.413 47.9277 179.568 47.6666 179.683 47.348C179.798 47.0205 179.856 46.6266 179.856 46.1664C179.856 45.6974 179.794 45.2947 179.67 44.9584C179.555 44.622 179.396 44.3477 179.192 44.1353C178.997 43.9229 178.772 43.768 178.515 43.6706C178.258 43.5644 177.997 43.5113 177.732 43.5113C177.475 43.5113 177.223 43.56 176.975 43.6573C176.736 43.7459 176.519 43.8919 176.325 44.0954C176.13 44.299 175.975 44.5601 175.86 44.8787C175.745 45.1973 175.687 45.5867 175.687 46.0469C175.687 46.516 175.745 46.9187 175.86 47.255C175.975 47.5913 176.13 47.8657 176.325 48.0781C176.528 48.2905 176.758 48.4498 177.015 48.556C177.272 48.6534 177.542 48.7021 177.825 48.7021ZM185.564 49.6977C184.918 49.6977 184.342 49.5605 183.838 49.2862C183.342 49.003 182.953 48.5914 182.67 48.0516C182.386 47.5117 182.245 46.8523 182.245 46.0735C182.245 45.277 182.391 44.6132 182.683 44.0822C182.984 43.5511 183.382 43.1529 183.878 42.8874C184.373 42.6219 184.926 42.4891 185.537 42.4891C186.165 42.4891 186.727 42.6263 187.223 42.9006C187.727 43.175 188.121 43.5821 188.405 44.122C188.697 44.6619 188.843 45.3301 188.843 46.1266C188.843 46.9143 188.697 47.5736 188.405 48.1047C188.121 48.6357 187.732 49.034 187.236 49.2995C186.741 49.565 186.183 49.6977 185.564 49.6977ZM185.603 48.7021C185.86 48.7021 186.108 48.6578 186.347 48.5693C186.586 48.472 186.803 48.3259 186.997 48.1312C187.192 47.9277 187.347 47.6666 187.462 47.348C187.577 47.0205 187.635 46.6266 187.635 46.1664C187.635 45.6974 187.573 45.2947 187.449 44.9584C187.334 44.622 187.174 44.3477 186.971 44.1353C186.776 43.9229 186.55 43.768 186.294 43.6706C186.037 43.5644 185.776 43.5113 185.51 43.5113C185.254 43.5113 185.002 43.56 184.754 43.6573C184.515 43.7459 184.298 43.8919 184.103 44.0954C183.909 44.299 183.754 44.5601 183.639 44.8787C183.524 45.1973 183.466 45.5867 183.466 46.0469C183.466 46.516 183.524 46.9187 183.639 47.255C183.754 47.5913 183.909 47.8657 184.103 48.0781C184.307 48.2905 184.537 48.4498 184.794 48.556C185.05 48.6534 185.32 48.7021 185.603 48.7021ZM192.798 49.6977C192.24 49.6977 191.754 49.5561 191.338 49.2729C190.931 48.9808 190.612 48.5649 190.382 48.025C190.152 47.4851 190.037 46.8391 190.037 46.0868C190.037 45.361 190.143 44.7282 190.355 44.1884C190.576 43.6485 190.891 43.2325 191.298 42.9405C191.705 42.6396 192.192 42.4891 192.758 42.4891C193.236 42.4891 193.634 42.5953 193.953 42.8077C194.28 43.0113 194.537 43.2901 194.723 43.6441C194.918 43.9981 195.059 44.4052 195.148 44.8654H195.347C195.303 44.5557 195.258 44.2503 195.214 43.9494C195.179 43.6485 195.148 43.3653 195.121 43.0998C195.103 42.8254 195.095 42.582 195.095 42.3696V40.3252H196.316L196.303 46.2726L196.316 49.5251H195.214L195.307 47.494H195.121C195.015 47.9542 194.86 48.348 194.657 48.6755C194.462 49.003 194.21 49.2552 193.9 49.4322C193.599 49.6092 193.232 49.6977 192.798 49.6977ZM193.063 48.649C193.4 48.649 193.692 48.5693 193.94 48.41C194.196 48.2507 194.409 48.0471 194.577 47.7993C194.745 47.5515 194.873 47.286 194.962 47.0028C195.05 46.7107 195.095 46.4408 195.095 46.193V46.0602C195.095 45.8921 195.068 45.6974 195.015 45.4761C194.971 45.2548 194.895 45.0336 194.789 44.8123C194.692 44.5911 194.564 44.3875 194.404 44.2016C194.254 44.0069 194.068 43.8521 193.847 43.737C193.634 43.6219 193.382 43.5644 193.09 43.5644C192.709 43.5644 192.382 43.675 192.108 43.8963C191.842 44.1087 191.639 44.4096 191.497 44.799C191.355 45.1796 191.285 45.6221 191.285 46.1266C191.285 46.6311 191.355 47.0736 191.497 47.4542C191.639 47.8347 191.842 48.1312 192.108 48.3436C192.373 48.5472 192.692 48.649 193.063 48.649Z" fill="#4B4B4B"/>
<path d="M118.432 70.6093V67.6754H124.91V70.6093H118.432ZM126.788 75.1456C126.788 74.1225 126.901 73.0768 127.127 72.0086C127.353 70.9403 127.684 69.8796 128.12 68.8264C128.571 67.7582 129.135 66.7351 129.813 65.7571C130.49 64.7791 131.287 63.8613 132.205 63.0037V62.8458L124.622 62.9135V60.2278H135.161V62.936C134.514 63.568 133.905 64.3353 133.333 65.238C132.761 66.1257 132.25 67.1037 131.799 68.1719C131.362 69.2251 131.016 70.346 130.76 71.5346C130.505 72.7082 130.377 73.9118 130.377 75.1456H126.788ZM142.412 75.4615C141.449 75.4615 140.576 75.2885 139.794 74.9425C139.027 74.5814 138.372 74.0773 137.831 73.4304C137.304 72.7684 136.898 71.9634 136.612 71.0155C136.326 70.0526 136.183 68.9769 136.183 67.7883C136.183 66.0881 136.446 64.6588 136.973 63.5002C137.515 62.3267 138.259 61.4465 139.207 60.8597C140.155 60.2579 141.261 59.957 142.525 59.957C143.804 59.957 144.902 60.2654 145.82 60.8823C146.753 61.4841 147.467 62.3643 147.964 63.5228C148.475 64.6663 148.731 66.0655 148.731 67.7205C148.731 68.9392 148.581 70.0301 148.28 70.993C147.994 71.9408 147.573 72.7458 147.016 73.4078C146.474 74.0698 145.812 74.5814 145.03 74.9425C144.263 75.2885 143.39 75.4615 142.412 75.4615ZM142.502 72.8662C142.909 72.8662 143.285 72.7759 143.631 72.5953C143.992 72.3997 144.308 72.0988 144.579 71.6926C144.849 71.2864 145.06 70.7673 145.211 70.1354C145.361 69.5035 145.436 68.7361 145.436 67.8334C145.436 66.6899 145.316 65.727 145.075 64.9446C144.849 64.1623 144.511 63.568 144.06 63.1617C143.623 62.7404 143.089 62.5298 142.457 62.5298C141.931 62.5298 141.442 62.7028 140.99 63.0489C140.539 63.3949 140.17 63.9516 139.884 64.7189C139.614 65.4712 139.478 66.4718 139.478 67.7205C139.478 68.6082 139.553 69.3756 139.704 70.0225C139.854 70.6695 140.065 71.2036 140.336 71.6249C140.607 72.0311 140.923 72.3396 141.284 72.5502C141.66 72.7608 142.066 72.8662 142.502 72.8662ZM149.186 78.102C149.457 77.3798 149.645 76.7178 149.75 76.116C149.87 75.5292 149.938 74.9349 149.953 74.3331C149.983 73.7313 149.998 73.0918 149.998 72.4148H152.977C152.977 73.4078 152.917 74.2579 152.797 74.965C152.676 75.6722 152.511 76.274 152.3 76.7705C152.105 77.282 151.894 77.7259 151.668 78.102H149.186ZM160.33 75.4615C159.367 75.4615 158.495 75.2885 157.712 74.9425C156.945 74.5814 156.29 74.0773 155.749 73.4304C155.222 72.7684 154.816 71.9634 154.53 71.0155C154.244 70.0526 154.101 68.9769 154.101 67.7883C154.101 66.0881 154.365 64.6588 154.891 63.5002C155.433 62.3267 156.178 61.4465 157.125 60.8597C158.073 60.2579 159.179 59.957 160.443 59.957C161.722 59.957 162.82 60.2654 163.738 60.8823C164.671 61.4841 165.386 62.3643 165.882 63.5228C166.394 64.6663 166.649 66.0655 166.649 67.7205C166.649 68.9392 166.499 70.0301 166.198 70.993C165.912 71.9408 165.491 72.7458 164.934 73.4078C164.393 74.0698 163.73 74.5814 162.948 74.9425C162.181 75.2885 161.308 75.4615 160.33 75.4615ZM160.42 72.8662C160.827 72.8662 161.203 72.7759 161.549 72.5953C161.91 72.3997 162.226 72.0988 162.497 71.6926C162.768 71.2864 162.978 70.7673 163.129 70.1354C163.279 69.5035 163.354 68.7361 163.354 67.8334C163.354 66.6899 163.234 65.727 162.993 64.9446C162.768 64.1623 162.429 63.568 161.978 63.1617C161.541 62.7404 161.007 62.5298 160.375 62.5298C159.849 62.5298 159.36 62.7028 158.908 63.0489C158.457 63.3949 158.088 63.9516 157.803 64.7189C157.532 65.4712 157.396 66.4718 157.396 67.7205C157.396 68.6082 157.472 69.3756 157.622 70.0225C157.772 70.6695 157.983 71.2036 158.254 71.6249C158.525 72.0311 158.841 72.3396 159.202 72.5502C159.578 72.7608 159.984 72.8662 160.42 72.8662ZM168.425 75.1456V71.7829L174.067 67.9688C174.353 67.7732 174.632 67.5626 174.903 67.3369C175.173 67.0962 175.422 66.8329 175.647 66.547C175.873 66.2611 176.054 65.9602 176.189 65.6442C176.324 65.3132 176.392 64.9597 176.392 64.5835C176.392 64.1773 176.302 63.8312 176.121 63.5454C175.941 63.2595 175.677 63.0338 175.331 62.8683C174.985 62.7028 174.564 62.6201 174.067 62.6201C173.571 62.6201 173.15 62.7028 172.804 62.8683C172.473 63.0338 172.209 63.267 172.014 63.568C171.818 63.8538 171.683 64.1999 171.608 64.6061C171.532 64.9973 171.51 65.4261 171.54 65.8925L168.425 65.3734C168.365 64.245 168.546 63.2746 168.967 62.4621C169.403 61.6346 170.058 61.0027 170.93 60.5663C171.818 60.13 172.886 59.9119 174.135 59.9119C175.234 59.9119 176.196 60.0849 177.024 60.4309C177.851 60.7619 178.491 61.266 178.942 61.943C179.394 62.605 179.619 63.4175 179.619 64.3804C179.619 65.1026 179.499 65.7571 179.258 66.3439C179.033 66.9307 178.724 67.4572 178.333 67.9237C177.942 68.375 177.505 68.7888 177.024 69.1649C176.558 69.5411 176.084 69.8796 175.602 70.1805L172.172 72.3922V72.5502L179.845 72.4599V75.1456H168.425ZM181.357 67.2015L181.876 65.5314H190.498L190.001 67.2015H181.357ZM181.041 70.2256L181.538 68.5556H189.843L189.347 70.2256H181.041ZM190.227 75.4615C189.053 75.4615 188.015 75.2885 187.112 74.9425C186.21 74.5814 185.45 74.0698 184.833 73.4078C184.231 72.7458 183.772 71.9484 183.456 71.0155C183.14 70.0677 182.982 68.9994 182.982 67.8108C182.982 66.6072 183.14 65.5239 183.456 64.561C183.787 63.598 184.254 62.7705 184.855 62.0784C185.472 61.3863 186.217 60.8597 187.09 60.4986C187.962 60.1225 188.955 59.9344 190.069 59.9344C190.971 59.9344 191.784 60.0623 192.506 60.3181C193.228 60.5588 193.838 60.9049 194.334 61.3562C194.846 61.7926 195.229 62.3192 195.485 62.936C195.741 63.5529 195.861 64.2375 195.846 64.9898L192.822 65.6442C192.837 64.9822 192.717 64.4331 192.461 63.9968C192.205 63.5454 191.859 63.2069 191.423 62.9812C190.986 62.7404 190.498 62.6201 189.956 62.6201C189.489 62.6201 189.038 62.7179 188.602 62.9135C188.18 63.094 187.804 63.3874 187.473 63.7936C187.142 64.1848 186.879 64.7039 186.683 65.3509C186.488 65.9828 186.39 66.7426 186.39 67.6303C186.39 68.8038 186.548 69.7743 186.864 70.5416C187.195 71.2939 187.654 71.8581 188.241 72.2342C188.842 72.6104 189.535 72.7984 190.317 72.7984C191.099 72.7984 191.716 72.6329 192.168 72.3019C192.634 71.9559 192.965 71.5045 193.161 70.9478C193.356 70.3911 193.454 69.7818 193.454 69.1198L196.365 69.526C196.38 70.3385 196.283 71.1058 196.072 71.828C195.861 72.5502 195.508 73.1821 195.011 73.7238C194.53 74.2654 193.89 74.6942 193.093 75.0102C192.311 75.3111 191.355 75.4615 190.227 75.4615Z" fill="black"/>
<path d="M172.453 94.9519C171.904 94.9519 171.426 94.89 171.019 94.7661C170.621 94.651 170.289 94.4828 170.023 94.2616C169.766 94.0315 169.572 93.7571 169.439 93.4385C169.315 93.111 169.253 92.7482 169.253 92.3499L170.408 92.0711C170.39 92.4428 170.439 92.7482 170.554 92.9871C170.678 93.2261 170.846 93.4164 171.059 93.558C171.271 93.6907 171.501 93.7881 171.749 93.85C171.997 93.9031 172.24 93.9297 172.479 93.9297C172.886 93.9297 173.258 93.8766 173.594 93.7704C173.931 93.6553 174.196 93.4739 174.391 93.2261C174.594 92.9783 174.696 92.6552 174.696 92.257C174.696 91.7613 174.55 91.3764 174.258 91.102C173.966 90.8188 173.55 90.6241 173.01 90.5179C172.479 90.4117 171.842 90.3718 171.098 90.3984V89.5886L174.152 87.1193V87.0397L169.612 87.053V86.0042H175.426V87.2654L172.532 89.6284V89.7081C173.355 89.7081 174.015 89.8187 174.51 90.04C175.006 90.2612 175.364 90.5665 175.586 90.956C175.816 91.3365 175.931 91.7746 175.931 92.2702C175.931 92.8101 175.798 93.2836 175.532 93.6907C175.276 94.089 174.891 94.3988 174.378 94.62C173.864 94.8413 173.223 94.9519 172.453 94.9519ZM180.951 94.9519C179.783 94.9519 178.867 94.5758 178.203 93.8235C177.548 93.0712 177.221 91.9561 177.221 90.478C177.221 89.5399 177.358 88.7212 177.632 88.0221C177.916 87.3229 178.327 86.783 178.867 86.4024C179.407 86.013 180.071 85.8183 180.858 85.8183C181.265 85.8183 181.642 85.8759 181.987 85.9909C182.332 86.0971 182.633 86.2608 182.889 86.4821C183.146 86.6945 183.354 86.9644 183.513 87.2919C183.673 87.6194 183.766 87.9999 183.792 88.4336L182.637 88.6726C182.611 88.2389 182.509 87.8937 182.332 87.6371C182.155 87.3716 181.934 87.1813 181.668 87.0662C181.411 86.9423 181.128 86.8804 180.818 86.8804C180.394 86.8804 180.026 86.9821 179.717 87.1857C179.416 87.3804 179.168 87.6504 178.973 87.9955C178.787 88.3318 178.65 88.7168 178.562 89.1505C178.473 89.5842 178.429 90.0355 178.429 90.5046C178.429 90.8144 178.451 91.1374 178.495 91.4737C178.539 91.81 178.601 92.1242 178.681 92.4163H178.787C178.752 91.8676 178.801 91.4029 178.933 91.0223C179.075 90.6329 179.274 90.3187 179.531 90.0798C179.787 89.8408 180.075 89.6682 180.394 89.562C180.721 89.447 181.053 89.3894 181.389 89.3894C181.876 89.3894 182.323 89.4912 182.73 89.6948C183.146 89.8983 183.478 90.1993 183.726 90.5975C183.982 90.9869 184.111 91.4781 184.111 92.0711C184.111 92.4517 184.049 92.8145 183.925 93.1597C183.801 93.5049 183.611 93.8146 183.354 94.089C183.097 94.3545 182.77 94.5669 182.372 94.7262C181.973 94.8767 181.5 94.9519 180.951 94.9519ZM180.858 93.9164C181.23 93.9164 181.544 93.8677 181.801 93.7704C182.058 93.6642 182.265 93.5226 182.425 93.3456C182.584 93.1686 182.699 92.9694 182.77 92.7482C182.841 92.5269 182.876 92.3012 182.876 92.0711C182.876 91.6728 182.788 91.3454 182.611 91.0887C182.442 90.8321 182.226 90.6462 181.96 90.5311C181.695 90.4072 181.411 90.3453 181.111 90.3453C180.721 90.3453 180.38 90.4294 180.088 90.5975C179.796 90.7568 179.566 90.9869 179.398 91.2879C179.23 91.5888 179.146 91.9472 179.146 92.3632C179.146 92.6729 179.194 92.9296 179.292 93.1332C179.398 93.3367 179.535 93.496 179.703 93.6111C179.871 93.7261 180.053 93.8058 180.248 93.85C180.451 93.8943 180.655 93.9164 180.858 93.9164ZM187.486 90.717C187.043 90.717 186.636 90.6241 186.264 90.4382C185.893 90.2435 185.596 89.9603 185.375 89.5886C185.162 89.2169 185.056 88.7611 185.056 88.2212C185.056 87.7875 185.123 87.4158 185.255 87.1061C185.388 86.7874 185.569 86.5264 185.8 86.3228C186.03 86.1192 186.291 85.9688 186.583 85.8714C186.884 85.7741 187.189 85.7254 187.499 85.7254C187.95 85.7254 188.362 85.8183 188.733 86.0042C189.105 86.19 189.397 86.4688 189.61 86.8405C189.831 87.2123 189.942 87.6769 189.942 88.2345C189.942 88.8186 189.822 89.2921 189.583 89.655C189.344 90.0178 189.039 90.2878 188.667 90.4648C188.295 90.6329 187.902 90.717 187.486 90.717ZM187.539 89.7213C187.76 89.7213 187.972 89.6727 188.176 89.5753C188.379 89.478 188.548 89.3231 188.68 89.1107C188.813 88.8894 188.88 88.6062 188.88 88.261C188.88 87.8716 188.804 87.5663 188.654 87.345C188.503 87.1238 188.318 86.9644 188.096 86.8671C187.884 86.7697 187.671 86.7211 187.459 86.7211C187.238 86.7211 187.025 86.7742 186.822 86.8804C186.618 86.9777 186.45 87.1326 186.317 87.345C186.185 87.5574 186.118 87.8362 186.118 88.1814C186.118 88.5442 186.189 88.8407 186.331 89.0708C186.472 89.2921 186.654 89.4558 186.875 89.562C187.096 89.6682 187.317 89.7213 187.539 89.7213ZM194.11 95.0847C193.659 95.0847 193.247 94.9917 192.875 94.8059C192.504 94.62 192.207 94.3412 191.986 93.9695C191.774 93.589 191.667 93.1287 191.667 92.5889C191.667 92.1552 191.734 91.7835 191.867 91.4737C192.008 91.1551 192.194 90.8984 192.424 90.7037C192.654 90.5002 192.915 90.3497 193.207 90.2524C193.499 90.1462 193.805 90.0931 194.123 90.0931C194.575 90.0931 194.982 90.1904 195.345 90.3851C195.716 90.571 196.013 90.8498 196.234 91.2215C196.455 91.5843 196.566 92.0446 196.566 92.6021C196.566 93.1863 196.447 93.6642 196.208 94.0359C195.969 94.3988 195.663 94.6643 195.292 94.8324C194.92 95.0006 194.526 95.0847 194.11 95.0847ZM194.163 94.089C194.376 94.089 194.584 94.0403 194.787 93.943C195 93.8456 195.168 93.6907 195.292 93.4783C195.424 93.2659 195.491 92.9827 195.491 92.6287C195.491 92.2481 195.416 91.9472 195.265 91.7259C195.123 91.4958 194.942 91.3321 194.721 91.2348C194.508 91.1374 194.296 91.0887 194.084 91.0887C193.862 91.0887 193.645 91.1418 193.433 91.248C193.229 91.3454 193.061 91.5003 192.929 91.7127C192.805 91.9251 192.743 92.2039 192.743 92.549C192.743 92.9119 192.814 93.2084 192.955 93.4385C193.097 93.6598 193.274 93.8235 193.486 93.9297C193.707 94.0359 193.933 94.089 194.163 94.089ZM187.379 94.7661L192.862 86.0042H194.097L188.627 94.7661H187.379Z" fill="#4B4B4B"/>
<defs>
<clipPath id="clip0_263_14984">
<rect width="38.4991" height="38.4991" fill="white" transform="translate(33.2539 48.3961)"/>
</clipPath>
<clipPath id="clip1_263_14984">
<rect width="38.4991" height="38.4991" fill="white" transform="translate(33.2539 48.3961)"/>
</clipPath>
</defs>
</svg>
