<svg width="232" height="135" viewBox="0 0 232 135" fill="none" xmlns="http://www.w3.org/2000/svg">
<rect x="0.0195312" y="0.830261" width="231.674" height="133.927" rx="33" fill="#F3A6FF"/>
<g clip-path="url(#clip0_263_14991)">
<path d="M35.4301 60.3973C34.1133 57.7315 31.5015 51.1244 35.2238 49.386C35.7772 49.1553 36.3866 49.0945 36.9746 49.2116C37.5625 49.3286 38.1025 49.618 38.5258 50.0432L46.2185 58.2768C46.3638 58.4198 46.4796 58.5901 46.5592 58.7779C46.6388 58.9657 46.6807 59.1674 46.6825 59.3715C46.6843 59.5755 46.646 59.7779 46.5697 59.9671C46.4934 60.1563 46.3807 60.3286 46.2379 60.4742C46.0951 60.6198 45.9251 60.7357 45.7376 60.8155C45.5501 60.8952 45.3487 60.9372 45.145 60.939C44.9413 60.9408 44.7392 60.9024 44.5503 60.826C44.3614 60.7496 44.1894 60.6366 44.0441 60.4936L36.4646 52.3843C36.6491 58.2519 40.0984 62.6375 43.9727 67.0479C44.2701 67.3342 44.4418 67.7272 44.4499 68.1403C44.458 68.5534 44.302 68.9529 44.0161 69.2508C43.7303 69.5486 43.3379 69.7206 42.9255 69.7287C42.5131 69.7369 42.1143 69.5806 41.8169 69.2943C39.271 66.6524 37.1198 63.6558 35.4301 60.3973ZM61.2875 74.3199C61.0762 74.088 60.8123 73.9105 60.5181 73.8023C60.2238 73.6941 59.9079 73.6585 59.597 73.6985C57.7978 73.9404 55.9676 73.7866 54.2338 73.2479C53.9683 73.1695 53.6865 73.1647 53.4185 73.2342C53.1505 73.3037 52.9064 73.4448 52.7123 73.6425C50.3952 77.1472 57.7901 76.9251 59.4 76.8738L67.9039 85.9448C68.0435 86.0935 68.211 86.2132 68.3968 86.2971C68.5826 86.381 68.7831 86.4274 68.9868 86.4337C69.1906 86.4399 69.3935 86.406 69.5841 86.3337C69.7747 86.2614 69.9492 86.1522 70.0977 86.0123C70.2462 85.8725 70.3657 85.7047 70.4495 85.5186C70.5332 85.3325 70.5796 85.1317 70.5858 84.9276C70.5921 84.7236 70.5582 84.5203 70.486 84.3294C70.4138 84.1384 70.3048 83.9636 70.1652 83.8149L61.2875 74.3199ZM56.6269 70.9021C57.6453 70.9036 58.6539 70.7037 59.595 70.314C60.5361 69.9242 61.3911 69.3523 62.1111 68.6309L70.1311 60.5962C70.2753 60.4519 70.3897 60.2806 70.4678 60.0921C70.5459 59.9036 70.5862 59.7015 70.5864 59.4974C70.5865 59.2932 70.5465 59.0911 70.4687 58.9024C70.3908 58.7138 70.2766 58.5424 70.1326 58.3979C69.9886 58.2535 69.8176 58.1389 69.6294 58.0606C69.4412 57.9824 69.2394 57.942 69.0356 57.9419C68.8319 57.9418 68.63 57.9818 68.4417 58.0598C68.2534 58.1378 68.0822 58.2521 67.938 58.3964L59.9181 66.4311C59.237 67.1074 58.3639 67.5564 57.4183 67.7165C56.4727 67.8767 55.5007 67.7403 54.6355 67.326L65.4782 56.4654C65.6264 56.3221 65.7445 56.1506 65.8258 55.9611C65.9071 55.7716 65.9499 55.5677 65.9516 55.3614C65.9534 55.1552 65.9142 54.9506 65.8362 54.7597C65.7582 54.5688 65.6431 54.3953 65.4974 54.2495C65.3518 54.1036 65.1787 53.9882 64.988 53.9101C64.7974 53.832 64.5932 53.7927 64.3873 53.7945C64.1813 53.7963 63.9778 53.8391 63.7886 53.9206C63.5994 54.002 63.4282 54.1203 63.2852 54.2687L52.4394 65.1293C52.0257 64.2626 51.8895 63.2891 52.0494 62.342C52.2093 61.3948 52.6575 60.5203 53.3327 59.838L61.3573 51.8048C61.6399 51.5118 61.7962 51.1194 61.7926 50.7121C61.7891 50.3048 61.626 49.9151 61.3384 49.6271C61.0509 49.3391 60.6619 49.1757 60.2552 49.1722C59.8486 49.1686 59.4568 49.3252 59.1643 49.6082L51.1428 57.6414C49.8814 58.9091 49.0948 60.5734 48.9154 62.3541C48.7361 64.1349 49.1748 65.9231 50.1579 67.4176L33.8171 83.7854C33.5346 84.0784 33.3782 84.4708 33.3818 84.8781C33.3853 85.2855 33.5484 85.6751 33.836 85.9631C34.1235 86.2512 34.5125 86.4145 34.9192 86.4181C35.3258 86.4216 35.7176 86.265 36.0101 85.9821L52.351 69.6143C53.6194 70.4542 55.1064 70.902 56.6269 70.9021Z" fill="black"/>
</g>
<path d="M163.014 49.8154C162.375 49.8154 161.811 49.7088 161.323 49.4958C160.844 49.2828 160.44 48.981 160.111 48.5904C159.783 48.191 159.535 47.7161 159.366 47.1658C159.197 46.6065 159.113 45.9808 159.113 45.2884C159.113 44.2676 159.282 43.4155 159.619 42.732C159.956 42.0485 160.418 41.5381 161.004 41.2008C161.598 40.8546 162.277 40.6815 163.041 40.6815C163.627 40.6815 164.159 40.7836 164.638 40.9878C165.118 41.1919 165.526 41.4937 165.863 41.8932C166.201 42.2837 166.458 42.7675 166.636 43.3445C166.822 43.9126 166.915 44.5605 166.915 45.2884C166.915 45.9808 166.831 46.6065 166.662 47.1658C166.494 47.725 166.245 48.1999 165.917 48.5904C165.588 48.981 165.18 49.2828 164.692 49.4958C164.204 49.7088 163.644 49.8154 163.014 49.8154ZM163.014 48.7635C163.298 48.7635 163.591 48.7147 163.893 48.617C164.204 48.5194 164.492 48.3508 164.758 48.1111C165.033 47.8626 165.251 47.5119 165.411 47.0592C165.579 46.6065 165.664 46.0251 165.664 45.315C165.664 44.4718 165.544 43.7927 165.304 43.2779C165.065 42.7542 164.745 42.3725 164.346 42.1328C163.946 41.8843 163.507 41.76 163.027 41.76C162.77 41.76 162.486 41.8088 162.175 41.9065C161.873 41.9953 161.585 42.1639 161.31 42.4124C161.035 42.6521 160.808 43.0027 160.631 43.4643C160.453 43.9259 160.364 44.525 160.364 45.2618C160.364 45.9541 160.44 46.5267 160.591 46.9794C160.751 47.432 160.959 47.7915 161.217 48.0578C161.474 48.3153 161.758 48.4972 162.069 48.6037C162.379 48.7103 162.695 48.7635 163.014 48.7635ZM170.781 49.8154C170.417 49.8154 170.102 49.7577 169.836 49.6423C169.569 49.5269 169.347 49.3627 169.17 49.1496C168.992 48.9366 168.85 48.6881 168.744 48.404C168.637 48.12 168.562 47.8049 168.517 47.4587C168.473 47.1125 168.451 46.7486 168.451 46.3669V42.7586H169.676V46.1405C169.676 46.4335 169.685 46.7353 169.702 47.0459C169.729 47.3477 169.787 47.6273 169.876 47.8847C169.973 48.1422 170.12 48.3463 170.315 48.4972C170.51 48.6481 170.777 48.7236 171.114 48.7236C171.407 48.7236 171.669 48.6526 171.899 48.5105C172.13 48.3685 172.325 48.1644 172.485 47.8981C172.645 47.6229 172.774 47.2945 172.871 46.9128C172.969 46.5311 173.031 46.1006 173.058 45.6213V42.7586H174.269V46.54V49.6423H173.178L173.324 47.1791H173.138C173.04 47.8004 172.885 48.3064 172.672 48.6969C172.459 49.0875 172.192 49.3715 171.873 49.5491C171.562 49.7266 171.198 49.8154 170.781 49.8154ZM178.269 49.7754C177.95 49.7754 177.67 49.731 177.431 49.6423C177.2 49.5446 177.005 49.407 176.845 49.2295C176.685 49.052 176.565 48.8345 176.485 48.5771C176.414 48.3197 176.379 48.0223 176.379 47.685V43.7705H175.407L175.42 42.7986H175.953C176.201 42.7897 176.383 42.7364 176.499 42.6388C176.614 42.5323 176.685 42.3636 176.712 42.1328L176.818 41.2408H177.564V42.7586H179.481V43.7972H177.564V47.6451C177.564 48.0179 177.653 48.2797 177.83 48.4306C178.008 48.5815 178.234 48.657 178.509 48.657C178.669 48.657 178.838 48.6348 179.015 48.5904C179.193 48.546 179.357 48.4617 179.508 48.3374V49.5358C179.277 49.6245 179.059 49.6867 178.855 49.7222C178.651 49.7577 178.456 49.7754 178.269 49.7754ZM180.819 49.6423V42.7586H182.03V49.6423H180.819ZM181.431 41.6801C181.156 41.6801 180.948 41.6224 180.806 41.5071C180.672 41.3917 180.606 41.2274 180.606 41.0144C180.606 40.7836 180.677 40.615 180.819 40.5085C180.961 40.3931 181.165 40.3354 181.431 40.3354C181.706 40.3354 181.911 40.3931 182.044 40.5085C182.186 40.615 182.257 40.7836 182.257 41.0144C182.257 41.2274 182.186 41.3917 182.044 41.5071C181.911 41.6224 181.706 41.6801 181.431 41.6801ZM183.835 49.6423V45.7278L183.822 42.7586H184.927L184.781 45.315H184.967C185.074 44.6493 185.238 44.1167 185.46 43.7173C185.682 43.3178 185.957 43.0294 186.285 42.8518C186.623 42.6743 187 42.5855 187.417 42.5855C187.808 42.5855 188.136 42.6521 188.402 42.7853C188.669 42.9184 188.886 43.1004 189.055 43.3312C189.232 43.5619 189.37 43.8238 189.467 44.1167C189.565 44.4008 189.632 44.7026 189.667 45.0221C189.712 45.3328 189.734 45.6435 189.734 45.9541V49.6423H188.509V46.1139C188.509 45.892 188.496 45.6435 188.469 45.3683C188.451 45.0931 188.398 44.8268 188.309 44.5694C188.22 44.312 188.078 44.099 187.883 43.9303C187.697 43.7617 187.426 43.6773 187.071 43.6773C186.645 43.6773 186.281 43.8149 185.979 44.0901C185.686 44.3653 185.46 44.7514 185.3 45.2485C185.14 45.7367 185.056 46.3047 185.047 46.9527V49.6423H183.835ZM194.052 51.8658C193.306 51.8658 192.702 51.8081 192.241 51.6927C191.788 51.5773 191.46 51.4087 191.255 51.1868C191.051 50.9649 190.949 50.6986 190.949 50.3879C190.949 49.9885 191.105 49.66 191.415 49.4026C191.726 49.1452 192.21 48.9677 192.867 48.87V48.6703C192.378 48.6703 192.01 48.6126 191.761 48.4972C191.522 48.3818 191.402 48.2043 191.402 47.9646C191.402 47.7338 191.522 47.5341 191.761 47.3655C192.001 47.1968 192.396 47.0504 192.946 46.9261V46.7131C192.396 46.6776 191.979 46.5 191.695 46.1805C191.411 45.8609 191.269 45.4526 191.269 44.9555C191.269 44.5028 191.389 44.1123 191.628 43.7838C191.877 43.4554 192.227 43.198 192.68 43.0116C193.133 42.8252 193.67 42.732 194.291 42.732H197.607V43.7705L195.423 43.4643V43.664C195.964 43.7705 196.368 43.9569 196.635 44.2232C196.901 44.4806 197.034 44.8135 197.034 45.2218C197.034 45.6035 196.923 45.9364 196.701 46.2204C196.479 46.5045 196.155 46.7264 195.729 46.8861C195.312 47.0459 194.793 47.1258 194.171 47.1258C194.038 47.1258 193.905 47.1214 193.772 47.1125C193.639 47.1036 193.47 47.0814 193.266 47.0459C192.982 47.1879 192.769 47.3211 192.627 47.4454C192.485 47.5608 192.414 47.6628 192.414 47.7516C192.414 47.8492 192.472 47.9203 192.587 47.9646C192.711 48.009 192.858 48.0401 193.026 48.0578C193.204 48.0756 193.377 48.0845 193.546 48.0845H195.29C195.45 48.0845 195.663 48.1022 195.929 48.1377C196.204 48.1644 196.479 48.2309 196.754 48.3374C197.03 48.444 197.26 48.617 197.447 48.8567C197.633 49.0875 197.726 49.4159 197.726 49.842C197.726 50.3124 197.584 50.6941 197.3 50.987C197.025 51.2888 196.617 51.5108 196.075 51.6528C195.534 51.7948 194.859 51.8658 194.052 51.8658ZM194.038 50.8273C194.66 50.8273 195.157 50.7918 195.529 50.7208C195.911 50.6497 196.186 50.5344 196.355 50.3746C196.524 50.2237 196.608 50.0328 196.608 49.802C196.608 49.5801 196.55 49.4115 196.435 49.2961C196.328 49.1718 196.186 49.0875 196.009 49.0431C195.84 48.9899 195.663 48.9588 195.476 48.9499C195.299 48.9322 195.139 48.9233 194.997 48.9233H193.386C192.889 49.0564 192.547 49.2162 192.361 49.4026C192.174 49.5801 192.081 49.7799 192.081 50.0018C192.081 50.2414 192.165 50.419 192.334 50.5344C192.512 50.6497 192.747 50.7252 193.04 50.7607C193.341 50.8051 193.674 50.8273 194.038 50.8273ZM194.211 46.3403C194.744 46.3403 195.152 46.2249 195.436 45.9941C195.72 45.7544 195.862 45.4349 195.862 45.0354C195.862 44.6182 195.716 44.2809 195.423 44.0235C195.13 43.7572 194.713 43.6241 194.171 43.6241C193.639 43.6241 193.222 43.7528 192.92 44.0102C192.618 44.2676 192.467 44.596 192.467 44.9955C192.467 45.2618 192.534 45.497 192.667 45.7012C192.809 45.8964 193.009 46.0518 193.266 46.1672C193.532 46.2826 193.847 46.3403 194.211 46.3403Z" fill="#4B4B4B"/>
<path d="M115.973 70.7443V67.8018H122.469V70.7443H115.973ZM123.474 75.2939V71.9214L129.133 68.0961C129.419 67.8999 129.698 67.6886 129.97 67.4623C130.242 67.2209 130.491 66.9568 130.717 66.6701C130.943 66.3834 131.124 66.0816 131.26 65.7647C131.396 65.4327 131.464 65.0781 131.464 64.7008C131.464 64.2934 131.373 63.9464 131.192 63.6596C131.011 63.3729 130.747 63.1466 130.4 62.9806C130.053 62.8146 129.631 62.7316 129.133 62.7316C128.635 62.7316 128.212 62.8146 127.865 62.9806C127.533 63.1466 127.269 63.3805 127.073 63.6823C126.877 63.969 126.741 64.3161 126.665 64.7235C126.59 65.1158 126.567 65.5459 126.597 66.0137L123.474 65.4931C123.414 64.3613 123.595 63.388 124.017 62.5732C124.455 61.7432 125.111 61.1095 125.986 60.6718C126.877 60.2342 127.948 60.0154 129.2 60.0154C130.302 60.0154 131.268 60.189 132.098 60.536C132.928 60.868 133.569 61.3735 134.022 62.0526C134.474 62.7165 134.701 63.5314 134.701 64.4971C134.701 65.2214 134.58 65.8779 134.339 66.4664C134.112 67.0549 133.803 67.583 133.411 68.0508C133.018 68.5035 132.581 68.9185 132.098 69.2957C131.63 69.673 131.155 70.0125 130.672 70.3143L127.231 72.5325V72.6909L134.927 72.6004V75.2939H123.474ZM136.108 72.3967V69.2504C136.847 68.4205 137.496 67.6207 138.055 66.8512C138.613 66.0816 139.103 65.3346 139.526 64.6103C139.948 63.886 140.311 63.1692 140.612 62.46C140.929 61.7508 141.208 61.0416 141.45 60.3323H146.995V75.2939H143.759V62.6184H143.578C143.23 63.5238 142.838 64.384 142.4 65.1988C141.963 66.0137 141.488 66.7833 140.974 67.5076C140.461 68.2319 139.918 68.9185 139.345 69.5673V69.7484H149.01V72.3967H136.108ZM149.492 78.2591C149.763 77.5348 149.952 76.8708 150.057 76.2672C150.178 75.6787 150.246 75.0827 150.261 74.4791C150.291 73.8755 150.306 73.2342 150.306 72.5551H153.294C153.294 73.5511 153.234 74.4036 153.113 75.1129C152.992 75.8221 152.826 76.4257 152.615 76.9237C152.419 77.4367 152.208 77.8819 151.981 78.2591H149.492ZM160.299 75.6108C159.137 75.6108 158.134 75.4448 157.289 75.1129C156.444 74.7809 155.795 74.298 155.342 73.6642C154.889 73.0154 154.671 72.2382 154.686 71.3329L157.764 70.8349C157.809 71.5441 158.058 72.0798 158.511 72.442C158.979 72.789 159.582 72.9626 160.322 72.9626C161.167 72.9626 161.808 72.7287 162.246 72.2609C162.698 71.7931 162.925 71.099 162.925 70.1785C162.925 69.756 162.872 69.3787 162.766 69.0467C162.676 68.6997 162.54 68.4054 162.359 68.164C162.178 67.9074 161.936 67.7188 161.635 67.5981C161.348 67.4623 161.001 67.3944 160.593 67.3944C160.307 67.3944 160.043 67.4321 159.801 67.5076C159.56 67.583 159.341 67.6886 159.145 67.8245C158.964 67.9603 158.798 68.1338 158.647 68.3451C158.496 68.5412 158.368 68.7676 158.262 69.0241H154.957L155.568 60.355H165.641V63.0711H158.285L157.922 67.5528H158.126C158.413 66.738 158.881 66.1193 159.53 65.6968C160.194 65.2743 160.971 65.063 161.861 65.063C162.842 65.063 163.657 65.2743 164.306 65.6968C164.969 66.1193 165.46 66.7153 165.777 67.4849C166.109 68.2394 166.275 69.1373 166.275 70.1785C166.275 71.4309 166.026 72.457 165.528 73.2568C165.045 74.0566 164.358 74.6526 163.468 75.045C162.578 75.4222 161.521 75.6108 160.299 75.6108ZM174.849 75.6335C172.661 75.6335 170.986 74.9771 169.824 73.6642C168.678 72.3514 168.104 70.4501 168.104 67.9603C168.104 66.24 168.368 64.7914 168.896 63.6144C169.44 62.4223 170.209 61.5244 171.205 60.9208C172.201 60.3172 173.378 60.0154 174.736 60.0154C175.445 60.0154 176.109 60.106 176.728 60.2871C177.347 60.453 177.89 60.7171 178.358 61.0793C178.841 61.4414 179.225 61.9017 179.512 62.46C179.814 63.0183 180.002 63.6747 180.078 64.4292L177.022 65.063C176.962 64.4594 176.796 63.9916 176.524 63.6596C176.268 63.3126 175.958 63.0711 175.596 62.9353C175.249 62.7995 174.895 62.7316 174.532 62.7316C173.989 62.7316 173.514 62.8674 173.106 63.139C172.699 63.4107 172.359 63.7804 172.088 64.2482C171.831 64.7159 171.635 65.2592 171.499 65.8779C171.379 66.4965 171.318 67.153 171.318 67.8471C171.318 68.2092 171.341 68.6167 171.386 69.0694C171.431 69.507 171.499 69.9295 171.59 70.3369H171.771C171.741 69.4919 171.846 68.7978 172.088 68.2545C172.344 67.6962 172.684 67.251 173.106 66.9191C173.544 66.5871 174.012 66.3532 174.51 66.2174C175.008 66.0816 175.491 66.0137 175.958 66.0137C176.788 66.0137 177.55 66.1872 178.245 66.5343C178.954 66.8662 179.52 67.3718 179.942 68.0508C180.365 68.7298 180.576 69.5673 180.576 70.5633C180.576 71.1669 180.478 71.7705 180.282 72.3741C180.085 72.9776 179.761 73.5284 179.308 74.0264C178.871 74.5093 178.282 74.9016 177.543 75.2034C176.819 75.4901 175.921 75.6335 174.849 75.6335ZM174.713 73.0078C175.121 73.0078 175.483 72.955 175.8 72.8494C176.117 72.7287 176.388 72.5627 176.615 72.3514C176.856 72.1251 177.03 71.8685 177.135 71.5818C177.256 71.2951 177.316 70.9782 177.316 70.6312C177.316 70.1332 177.203 69.7107 176.977 69.3636C176.766 69.0166 176.479 68.7525 176.117 68.5714C175.755 68.3903 175.347 68.2998 174.895 68.2998C174.397 68.2998 173.951 68.4054 173.559 68.6167C173.167 68.8279 172.85 69.1297 172.608 69.5221C172.382 69.8993 172.269 70.352 172.269 70.8802C172.269 71.2574 172.337 71.5818 172.473 71.8535C172.608 72.1251 172.79 72.3514 173.016 72.5325C173.242 72.6985 173.499 72.8192 173.785 72.8947C174.087 72.9701 174.397 73.0078 174.713 73.0078ZM182.156 67.3265L182.676 65.6515H191.323L190.825 67.3265H182.156ZM181.839 70.3596L182.337 68.6846H190.666L190.168 70.3596H181.839ZM191.051 75.6108C189.874 75.6108 188.833 75.4373 187.927 75.0902C187.022 74.7281 186.26 74.215 185.641 73.5511C185.038 72.8871 184.577 72.0873 184.261 71.1518C183.944 70.2011 183.785 69.1297 183.785 67.9376C183.785 66.7304 183.944 65.644 184.261 64.6782C184.593 63.7125 185.06 62.8825 185.664 62.1884C186.283 61.4942 187.03 60.9661 187.905 60.6039C188.78 60.2267 189.776 60.0381 190.893 60.0381C191.798 60.0381 192.613 60.1663 193.337 60.4229C194.061 60.6643 194.673 61.0114 195.171 61.4641C195.684 61.9017 196.068 62.4298 196.325 63.0485C196.581 63.6672 196.702 64.3538 196.687 65.1083L193.654 65.7647C193.669 65.1007 193.548 64.5499 193.292 64.1123C193.035 63.6596 192.688 63.3201 192.251 63.0938C191.813 62.8523 191.323 62.7316 190.779 62.7316C190.312 62.7316 189.859 62.8297 189.421 63.0259C188.999 63.2069 188.622 63.5012 188.29 63.9086C187.958 64.301 187.694 64.8216 187.497 65.4704C187.301 66.1042 187.203 66.8662 187.203 67.7565C187.203 68.9336 187.362 69.9069 187.678 70.6764C188.01 71.4309 188.471 71.9968 189.059 72.3741C189.663 72.7513 190.357 72.9399 191.142 72.9399C191.926 72.9399 192.545 72.7739 192.998 72.442C193.465 72.0949 193.797 71.6422 193.994 71.0839C194.19 70.5255 194.288 69.9144 194.288 69.2504L197.208 69.6579C197.223 70.4727 197.125 71.2423 196.913 71.9666C196.702 72.6909 196.348 73.3247 195.85 73.868C195.367 74.4112 194.725 74.8412 193.926 75.1581C193.141 75.4599 192.183 75.6108 191.051 75.6108Z" fill="black"/>
<path d="M174.993 94.9456V93.5076L178.082 91.0977C178.277 90.9468 178.473 90.7781 178.668 90.5917C178.872 90.4053 179.058 90.2056 179.227 89.9926C179.405 89.7707 179.547 89.5355 179.653 89.2869C179.76 89.0384 179.813 88.7765 179.813 88.5013C179.813 88.2262 179.746 87.9776 179.613 87.7557C179.489 87.5338 179.298 87.3607 179.041 87.2365C178.783 87.1122 178.459 87.0501 178.069 87.0501C177.811 87.0501 177.563 87.09 177.323 87.1699C177.083 87.2409 176.879 87.3652 176.711 87.5427C176.542 87.7202 176.418 87.9599 176.338 88.2617C176.258 88.5546 176.245 88.923 176.298 89.3668L175.113 89.207C175.06 88.559 175.135 87.991 175.339 87.5028C175.543 87.0146 175.876 86.6373 176.338 86.371C176.799 86.1047 177.385 85.9716 178.095 85.9716C178.699 85.9716 179.218 86.0692 179.653 86.2645C180.097 86.4598 180.439 86.7394 180.678 87.1033C180.918 87.4672 181.038 87.9066 181.038 88.4215C181.038 88.8209 180.971 89.1937 180.838 89.5399C180.705 89.8772 180.528 90.1879 180.306 90.4719C180.093 90.7471 179.853 91.0045 179.587 91.2442C179.329 91.4749 179.067 91.688 178.801 91.8833L176.338 93.8405V93.9204L181.251 93.8938V94.9456H174.993ZM183.442 94.9456V88.1419H182.204V87.0767C182.577 87.0767 182.897 87.019 183.163 86.9036C183.438 86.7882 183.616 86.5397 183.695 86.158H184.667V94.9456H183.442ZM188.45 90.8847C188.007 90.8847 187.598 90.7915 187.226 90.6051C186.853 90.4098 186.555 90.1257 186.333 89.7529C186.12 89.3801 186.014 88.923 186.014 88.3815C186.014 87.9466 186.08 87.5738 186.214 87.2631C186.347 86.9435 186.529 86.6817 186.76 86.4775C186.99 86.2734 187.252 86.1225 187.545 86.0248C187.847 85.9272 188.153 85.8784 188.464 85.8784C188.917 85.8784 189.329 85.9716 189.702 86.158C190.075 86.3444 190.368 86.624 190.581 86.9968C190.803 87.3696 190.914 87.8356 190.914 88.3948C190.914 88.9807 190.794 89.4556 190.554 89.8195C190.315 90.1834 190.008 90.4542 189.635 90.6317C189.263 90.8003 188.868 90.8847 188.45 90.8847ZM188.504 89.8861C188.726 89.8861 188.939 89.8372 189.143 89.7396C189.347 89.642 189.516 89.4866 189.649 89.2736C189.782 89.0517 189.849 88.7676 189.849 88.4215C189.849 88.0309 189.773 87.7247 189.622 87.5028C189.471 87.2808 189.285 87.1211 189.063 87.0234C188.85 86.9258 188.637 86.877 188.424 86.877C188.202 86.877 187.989 86.9302 187.785 87.0367C187.581 87.1344 187.412 87.2897 187.279 87.5028C187.146 87.7158 187.079 87.9954 187.079 88.3416C187.079 88.7055 187.15 89.0029 187.292 89.2337C187.434 89.4556 187.616 89.6198 187.838 89.7263C188.06 89.8328 188.282 89.8861 188.504 89.8861ZM195.094 95.2652C194.642 95.2652 194.229 95.172 193.856 94.9856C193.483 94.7992 193.186 94.5196 192.964 94.1467C192.751 93.7651 192.645 93.3035 192.645 92.762C192.645 92.3271 192.711 91.9543 192.844 91.6436C192.986 91.324 193.173 91.0666 193.404 90.8713C193.634 90.6672 193.896 90.5163 194.189 90.4187C194.482 90.3121 194.788 90.2589 195.108 90.2589C195.56 90.2589 195.969 90.3565 196.333 90.5518C196.706 90.7382 197.003 91.0178 197.225 91.3906C197.447 91.7546 197.558 92.2161 197.558 92.7753C197.558 93.3612 197.438 93.8405 197.198 94.2133C196.959 94.5772 196.652 94.8435 196.279 95.0122C195.907 95.1808 195.512 95.2652 195.094 95.2652ZM195.148 94.2666C195.361 94.2666 195.569 94.2178 195.774 94.1201C195.987 94.0225 196.155 93.8671 196.279 93.6541C196.413 93.4411 196.479 93.157 196.479 92.802C196.479 92.4203 196.404 92.1185 196.253 91.8966C196.111 91.6658 195.929 91.5016 195.707 91.4039C195.494 91.3063 195.281 91.2575 195.068 91.2575C194.846 91.2575 194.628 91.3107 194.415 91.4172C194.211 91.5149 194.043 91.6702 193.909 91.8833C193.785 92.0963 193.723 92.3759 193.723 92.7221C193.723 93.086 193.794 93.3834 193.936 93.6142C194.078 93.8361 194.256 94.0003 194.469 94.1068C194.691 94.2133 194.917 94.2666 195.148 94.2666ZM188.344 94.9456L193.843 86.158H195.081L189.596 94.9456H188.344Z" fill="#4B4B4B"/>
<defs>
<clipPath id="clip0_263_14991">
<rect width="37.2809" height="37.2809" fill="white" transform="translate(33.3057 49.1535)"/>
</clipPath>
</defs>
</svg>
