<svg width="232" height="134" viewBox="0 0 232 134" fill="none" xmlns="http://www.w3.org/2000/svg">
<rect x="0.373047" y="0.250427" width="230.712" height="133.507" rx="33" fill="#4AFF93"/>
<g clip-path="url(#clip0_263_15010)">
<path d="M67.1674 63.9102H61.8694L55.0654 50.8588C54.6518 50.127 54.0417 49.5162 53.2991 49.0907C52.5566 48.6653 51.709 48.4408 50.8456 48.441H44.9468L49.5928 63.9102H43.7773L40.0926 60.36C39.6758 59.9579 39.1689 59.6537 38.611 59.4709C38.0531 59.288 37.4592 59.2314 36.875 59.3054C36.2909 59.3794 35.7322 59.5821 35.242 59.8977C34.7518 60.2133 34.3433 60.6334 34.048 61.1257C33.7055 61.688 33.5238 62.328 33.5215 62.9803C33.5193 63.6327 33.6965 64.2739 34.0352 64.8383L38.9824 73.1917H49.5752L44.769 85.567H50.8456C51.6942 85.5717 52.5286 85.3571 53.2624 84.9456C53.9962 84.5341 54.6027 83.9405 55.019 83.2265L61.5025 73.1917H71.9735V68.5509C71.9735 67.3201 71.4672 66.1397 70.5658 65.2694C69.6645 64.3991 68.442 63.9102 67.1674 63.9102ZM49.2115 51.5348H50.8456C51.1249 51.5325 51.4 51.6015 51.6428 51.7349C51.8856 51.8683 52.0875 52.0613 52.2282 52.2944L58.284 63.9102H52.9251L49.2115 51.5348ZM68.7694 70.0978H59.7242L52.2522 81.6672C52.1143 81.9112 51.911 82.1148 51.6635 82.2566C51.4159 82.3984 51.1334 82.4732 50.8456 82.4732H49.3845L54.1907 70.0978H40.8408L36.8164 63.2914C36.7598 63.1968 36.7302 63.0894 36.7305 62.9802C36.7308 62.871 36.7611 62.7638 36.8182 62.6695C36.8753 62.5752 36.9573 62.4972 37.0557 62.4435C37.1542 62.3897 37.2656 62.362 37.3787 62.3632C37.4636 62.363 37.5476 62.379 37.626 62.4103C37.7044 62.4416 37.7755 62.4877 37.8353 62.5458L42.4524 67.004H67.1674C67.5922 67.004 67.9997 67.167 68.3002 67.4571C68.6006 67.7472 68.7694 68.1406 68.7694 68.5509V70.0978Z" fill="black"/>
</g>
<path d="M152.659 48.8966V40.1455H153.879V48.8966H152.659ZM146.918 48.8966V40.1455H148.138V48.8966H146.918ZM147.554 44.9718V43.9244H153.176V44.9718H147.554ZM158.756 49.069C158.111 49.069 157.536 48.932 157.033 48.6579C156.538 48.3751 156.149 47.964 155.866 47.4248C155.583 46.8856 155.441 46.2271 155.441 45.4492C155.441 44.6536 155.587 43.9907 155.879 43.4603C156.18 42.9299 156.577 42.5321 157.072 42.2669C157.567 42.0018 158.12 41.8692 158.73 41.8692C159.357 41.8692 159.919 42.0062 160.414 42.2802C160.918 42.5542 161.311 42.9609 161.594 43.5001C161.886 44.0393 162.031 44.7067 162.031 45.5022C162.031 46.2889 161.886 46.9475 161.594 47.4779C161.311 48.0082 160.922 48.406 160.427 48.6712C159.932 48.9364 159.375 49.069 158.756 49.069ZM158.796 48.0745C159.052 48.0745 159.3 48.0303 159.539 47.9419C159.777 47.8447 159.994 47.6988 160.188 47.5044C160.383 47.3011 160.537 47.0403 160.652 46.7221C160.767 46.395 160.825 46.0017 160.825 45.542C160.825 45.0735 160.763 44.6713 160.639 44.3354C160.524 43.9995 160.365 43.7255 160.162 43.5133C159.967 43.3012 159.742 43.1465 159.486 43.0492C159.229 42.9432 158.968 42.8901 158.703 42.8901C158.447 42.8901 158.195 42.9388 157.947 43.036C157.709 43.1244 157.492 43.2702 157.298 43.4735C157.103 43.6769 156.949 43.9376 156.834 44.2558C156.719 44.5741 156.661 44.963 156.661 45.4227C156.661 45.8912 156.719 46.2934 156.834 46.6293C156.949 46.9652 157.103 47.2392 157.298 47.4513C157.501 47.6635 157.731 47.8226 157.987 47.9287C158.244 48.0259 158.513 48.0745 158.796 48.0745ZM163.529 48.8966V39.7079H164.722V48.8966H163.529ZM166.52 48.8966V42.0415H167.727V48.8966H166.52ZM167.13 40.9675C166.856 40.9675 166.648 40.9101 166.507 40.7952C166.374 40.6802 166.308 40.5167 166.308 40.3046C166.308 40.0747 166.379 39.9068 166.52 39.8007C166.661 39.6858 166.865 39.6283 167.13 39.6283C167.404 39.6283 167.607 39.6858 167.74 39.8007C167.881 39.9068 167.952 40.0747 167.952 40.3046C167.952 40.5167 167.881 40.6802 167.74 40.7952C167.607 40.9101 167.404 40.9675 167.13 40.9675ZM171.977 49.069C171.42 49.069 170.934 48.9275 170.518 48.6447C170.112 48.353 169.794 47.9375 169.564 47.3983C169.334 46.8591 169.219 46.2138 169.219 45.4624C169.219 44.7376 169.325 44.1056 169.537 43.5664C169.758 43.0271 170.072 42.6117 170.479 42.32C170.885 42.0194 171.371 41.8692 171.937 41.8692C172.415 41.8692 172.812 41.9752 173.131 42.1874C173.458 42.3907 173.714 42.6691 173.9 43.0227C174.094 43.3763 174.236 43.7829 174.324 44.2426H174.523C174.479 43.9332 174.434 43.6282 174.39 43.3277C174.355 43.0271 174.324 42.7443 174.297 42.4791C174.28 42.2051 174.271 41.962 174.271 41.7498V39.7079H175.491L175.477 45.6481L175.491 48.8966H174.39L174.483 46.8679H174.297C174.191 47.3276 174.037 47.7209 173.833 48.048C173.639 48.3751 173.387 48.627 173.078 48.8038C172.777 48.9806 172.41 49.069 171.977 49.069ZM172.242 48.0215C172.578 48.0215 172.87 47.9419 173.117 47.7828C173.374 47.6237 173.586 47.4204 173.754 47.1729C173.922 46.9254 174.05 46.6602 174.138 46.3773C174.227 46.0856 174.271 45.816 174.271 45.5685V45.4359C174.271 45.268 174.244 45.0735 174.191 44.8525C174.147 44.6315 174.072 44.4105 173.966 44.1895C173.869 43.9686 173.74 43.7652 173.581 43.5796C173.431 43.3851 173.245 43.2305 173.024 43.1155C172.812 43.0006 172.56 42.9432 172.269 42.9432C171.889 42.9432 171.562 43.0537 171.288 43.2747C171.022 43.4868 170.819 43.7873 170.678 44.1763C170.536 44.5564 170.465 44.9984 170.465 45.5022C170.465 46.0061 170.536 46.4481 170.678 46.8282C170.819 47.2083 171.022 47.5044 171.288 47.7165C171.553 47.9198 171.871 48.0215 172.242 48.0215ZM178.911 49.069C178.54 49.069 178.204 49.0027 177.903 48.8701C177.603 48.7287 177.36 48.5165 177.174 48.2336C176.997 47.9508 176.909 47.5972 176.909 47.1729C176.909 46.7309 176.997 46.3773 177.174 46.1121C177.36 45.8381 177.603 45.626 177.903 45.4757C178.204 45.3166 178.531 45.1973 178.885 45.1177C179.247 45.0381 179.614 44.9718 179.985 44.9188C180.383 44.8569 180.688 44.8039 180.9 44.7597C181.121 44.7067 181.271 44.6359 181.351 44.5475C181.439 44.4592 181.483 44.3266 181.483 44.1498C181.483 43.9023 181.426 43.6857 181.311 43.5001C181.205 43.3056 181.046 43.1553 180.834 43.0492C180.622 42.9432 180.361 42.8901 180.051 42.8901C179.786 42.8901 179.521 42.9388 179.256 43.036C178.991 43.1244 178.765 43.2747 178.58 43.4868C178.394 43.699 178.275 43.9907 178.222 44.3619L177.121 44.0702C177.174 43.699 177.285 43.3763 177.453 43.1023C177.621 42.8283 177.833 42.6028 178.089 42.4261C178.354 42.2404 178.65 42.1034 178.977 42.015C179.304 41.9178 179.658 41.8692 180.038 41.8692C180.542 41.8692 180.962 41.9399 181.298 42.0813C181.643 42.2227 181.912 42.4216 182.107 42.678C182.31 42.9343 182.456 43.2305 182.544 43.5664C182.641 43.8934 182.69 44.2426 182.69 44.6138V46.0326C182.69 46.3331 182.694 46.6469 182.703 46.974C182.712 47.3011 182.725 47.6281 182.743 47.9552C182.761 48.2823 182.778 48.5961 182.796 48.8966H181.669C181.669 48.5695 181.665 48.2469 181.656 47.9287C181.656 47.6105 181.656 47.2878 181.656 46.9607H181.497C181.391 47.3408 181.223 47.69 180.993 48.0082C180.772 48.3265 180.485 48.5828 180.131 48.7773C179.786 48.9717 179.38 49.069 178.911 49.069ZM179.256 48.0878C179.477 48.0878 179.698 48.048 179.919 47.9685C180.14 47.8801 180.352 47.7519 180.555 47.5839C180.767 47.416 180.953 47.2083 181.112 46.9607C181.271 46.7044 181.399 46.4039 181.497 46.0591V45.1044H181.855C181.731 45.2459 181.554 45.3519 181.324 45.4227C181.094 45.4934 180.838 45.5508 180.555 45.595C180.272 45.6392 179.985 45.6879 179.693 45.7409C179.411 45.7851 179.15 45.8558 178.911 45.953C178.672 46.0414 178.478 46.174 178.328 46.3508C178.186 46.5188 178.116 46.7486 178.116 47.0403C178.116 47.3674 178.217 47.6237 178.421 47.8093C178.633 47.995 178.911 48.0878 179.256 48.0878ZM186.75 51.0844C186.397 51.0844 186.048 51.0446 185.703 50.9651C185.367 50.8855 185.053 50.7618 184.761 50.5938C184.479 50.4347 184.24 50.2314 184.045 49.9839L184.642 49.0557C184.863 49.3651 185.155 49.5949 185.517 49.7452C185.889 49.9043 186.286 49.9839 186.711 49.9839C187.126 49.9839 187.475 49.9132 187.758 49.7717C188.05 49.6303 188.28 49.427 188.448 49.1618C188.624 48.8966 188.753 48.5784 188.832 48.2071C188.92 47.8359 188.965 47.4248 188.965 46.974L189.097 45.5553H188.898C188.819 46.2182 188.669 46.753 188.448 47.1596C188.235 47.5574 187.97 47.8447 187.652 48.0215C187.334 48.1983 186.971 48.2867 186.565 48.2867C186.14 48.2867 185.787 48.2071 185.504 48.048C185.23 47.8801 185.009 47.6679 184.841 47.4116C184.682 47.1464 184.563 46.8635 184.483 46.563C184.403 46.2624 184.35 45.9707 184.324 45.6879C184.306 45.405 184.297 45.1707 184.297 44.9851V42.0415H185.504V44.6404C185.504 44.7995 185.504 44.9895 185.504 45.2105C185.513 45.4315 185.539 45.6569 185.584 45.8867C185.637 46.1166 185.712 46.3331 185.809 46.5364C185.915 46.7309 186.056 46.89 186.233 47.0138C186.419 47.1375 186.658 47.1994 186.949 47.1994C187.241 47.1994 187.497 47.1287 187.718 46.9873C187.939 46.837 188.125 46.6248 188.275 46.3508C188.434 46.068 188.554 45.7365 188.633 45.3564C188.713 44.9674 188.761 44.5343 188.779 44.057V42.0415H189.999V47.027C189.999 47.3453 189.977 47.6679 189.933 47.995C189.897 48.3132 189.835 48.6226 189.747 48.9231C189.659 49.2237 189.535 49.5065 189.376 49.7717C189.225 50.0369 189.031 50.2667 188.792 50.4612C188.554 50.6557 188.266 50.8059 187.93 50.912C187.595 51.0269 187.201 51.0844 186.75 51.0844ZM194.381 49.069C193.922 49.069 193.506 49.0204 193.135 48.9231C192.764 48.8259 192.45 48.68 192.194 48.4856C191.937 48.2911 191.743 48.048 191.61 47.7563C191.478 47.4646 191.416 47.1331 191.425 46.7619L192.472 46.5497C192.454 46.8944 192.525 47.1817 192.684 47.4116C192.843 47.6414 193.073 47.8138 193.374 47.9287C193.674 48.0348 194.028 48.0878 194.434 48.0878C194.965 48.0878 195.371 47.9994 195.654 47.8226C195.946 47.6458 196.092 47.4027 196.092 47.0933C196.092 46.8458 196.012 46.6558 195.853 46.5232C195.694 46.3818 195.473 46.2713 195.19 46.1917C194.907 46.1121 194.585 46.037 194.222 45.9663C193.886 45.8956 193.555 45.816 193.228 45.7276C192.91 45.6392 192.622 45.5243 192.366 45.3829C192.11 45.2326 191.902 45.0426 191.743 44.8127C191.593 44.5741 191.517 44.2735 191.517 43.9111C191.517 43.4956 191.628 43.1376 191.849 42.8371C192.07 42.5277 192.384 42.289 192.79 42.1211C193.197 41.9531 193.679 41.8692 194.236 41.8692C194.775 41.8692 195.248 41.9531 195.654 42.1211C196.061 42.289 196.384 42.541 196.622 42.8769C196.861 43.2039 196.985 43.6061 196.994 44.0835L195.92 44.3089C195.928 43.9818 195.858 43.7122 195.707 43.5001C195.566 43.2791 195.363 43.1155 195.097 43.0095C194.832 42.9034 194.527 42.8504 194.183 42.8504C193.714 42.8504 193.343 42.9388 193.069 43.1155C192.804 43.2923 192.671 43.5354 192.671 43.8448C192.671 44.0923 192.751 44.2868 192.91 44.4282C193.078 44.5696 193.303 44.6801 193.586 44.7597C193.869 44.8304 194.187 44.9056 194.541 44.9851C194.876 45.047 195.204 45.1221 195.522 45.2105C195.849 45.2901 196.14 45.405 196.397 45.5553C196.653 45.6967 196.856 45.8867 197.007 46.1254C197.166 46.3641 197.245 46.669 197.245 47.0403C197.245 47.4734 197.126 47.8447 196.887 48.1541C196.658 48.4546 196.326 48.6845 195.893 48.8436C195.469 48.9938 194.965 49.069 194.381 49.069Z" fill="#4B4B4B"/>
<path d="M92.5 69.9734V67.0431H98.9693V69.9734H92.5ZM101.465 74.5041V64.2705H99.369V61.4304C100.045 61.4304 100.601 61.3177 101.037 61.0923C101.488 60.8519 101.781 60.3635 101.916 59.6271H104.734V74.5041H101.465ZM106.63 71.6189V68.4857C107.366 67.6592 108.012 66.8627 108.568 66.0964C109.125 65.33 109.613 64.5861 110.034 63.8648C110.454 63.1435 110.815 62.4297 111.116 61.7234C111.431 61.0172 111.709 60.3109 111.95 59.6046H117.472V74.5041H114.249V61.8812H114.068C113.723 62.7829 113.332 63.6394 112.896 64.4509C112.461 65.2623 111.987 66.0287 111.476 66.75C110.965 67.4713 110.424 68.1551 109.853 68.8013V68.9816H119.478V71.6189H106.63ZM127.369 74.8422C126.107 74.8422 125.002 74.6919 124.056 74.3914C123.109 74.0908 122.373 73.6325 121.847 73.0164C121.321 72.4003 121.058 71.6264 121.058 70.6947C121.058 70.0034 121.2 69.4023 121.486 68.8914C121.787 68.3805 122.207 67.9672 122.748 67.6517C123.289 67.3361 123.935 67.1332 124.687 67.0431V66.8853L127.369 66.3668L130.052 66.8627V67.0431C130.788 67.1182 131.426 67.3136 131.967 67.6291C132.508 67.9297 132.929 68.3354 133.23 68.8463C133.53 69.3573 133.681 69.9734 133.681 70.6947C133.681 71.6264 133.418 72.4003 132.892 73.0164C132.366 73.6325 131.629 74.0908 130.683 74.3914C129.736 74.6919 128.631 74.8422 127.369 74.8422ZM127.392 72.1598C127.722 72.1598 128.06 72.1298 128.406 72.0697C128.752 71.9945 129.075 71.8818 129.375 71.7316C129.676 71.5813 129.916 71.3784 130.097 71.123C130.292 70.8675 130.39 70.5519 130.39 70.1762C130.39 69.7254 130.254 69.3573 129.984 69.0717C129.713 68.7712 129.345 68.5533 128.879 68.4181C128.429 68.2828 127.925 68.2152 127.369 68.2152C126.813 68.2152 126.31 68.2828 125.859 68.4181C125.408 68.5533 125.047 68.7637 124.777 69.0492C124.521 69.3347 124.394 69.7029 124.394 70.1537C124.394 70.5144 124.484 70.8299 124.664 71.1004C124.845 71.3559 125.085 71.5663 125.386 71.7316C125.686 71.8818 126.009 71.9945 126.355 72.0697C126.7 72.1298 127.046 72.1598 127.392 72.1598ZM127.369 65.8259C127.805 65.8259 128.203 65.7658 128.564 65.6455C128.939 65.5103 129.24 65.3074 129.465 65.0369C129.691 64.7514 129.804 64.3757 129.804 63.9099C129.804 63.5342 129.728 63.2262 129.578 62.9857C129.428 62.7303 129.225 62.5274 128.97 62.3771C128.729 62.2268 128.466 62.1217 128.181 62.0615C127.895 62.0014 127.617 61.9714 127.347 61.9714C126.971 61.9714 126.595 62.0315 126.22 62.1517C125.859 62.2569 125.551 62.4523 125.295 62.7378C125.055 63.0233 124.935 63.4065 124.935 63.8874C124.935 64.3382 125.047 64.7138 125.273 65.0144C125.498 65.2999 125.791 65.5103 126.152 65.6455C126.528 65.7658 126.933 65.8259 127.369 65.8259ZM127.369 67.7869L124.687 67.0882V66.8402C123.996 66.72 123.417 66.5171 122.951 66.2316C122.5 65.9461 122.162 65.5779 121.937 65.1271C121.711 64.6613 121.599 64.1128 121.599 63.4816C121.599 62.5349 121.839 61.7535 122.32 61.1374C122.816 60.5062 123.492 60.0404 124.349 59.7398C125.22 59.4393 126.227 59.289 127.369 59.289C128.541 59.289 129.556 59.4468 130.412 59.7624C131.284 60.0779 131.952 60.5513 132.418 61.1825C132.899 61.7986 133.14 62.565 133.14 63.4816C133.14 64.3832 132.892 65.1196 132.396 65.6906C131.915 66.2617 131.133 66.6373 130.052 66.8177V67.0882L127.369 67.7869ZM141.699 74.8197C140.737 74.8197 139.865 74.6468 139.084 74.3012C138.318 73.9406 137.664 73.4372 137.123 72.791C136.597 72.1298 136.191 71.3258 135.906 70.3791C135.62 69.4174 135.478 68.3429 135.478 67.1558C135.478 65.4577 135.74 64.0301 136.266 62.873C136.807 61.7009 137.551 60.8218 138.498 60.2357C139.445 59.6346 140.549 59.3341 141.811 59.3341C143.089 59.3341 144.186 59.6422 145.102 60.2583C146.034 60.8594 146.748 61.7385 147.244 62.8956C147.755 64.0376 148.01 65.4352 148.01 67.0882C148.01 68.3054 147.86 69.3948 147.559 70.3566C147.274 71.3033 146.853 72.1072 146.297 72.7684C145.756 73.4296 145.095 73.9406 144.314 74.3012C143.547 74.6468 142.676 74.8197 141.699 74.8197ZM141.789 72.2275C142.195 72.2275 142.57 72.1373 142.916 71.957C143.277 71.7616 143.592 71.4611 143.863 71.0553C144.133 70.6496 144.344 70.1312 144.494 69.5C144.644 68.8689 144.719 68.1025 144.719 67.2009C144.719 66.0588 144.599 65.097 144.359 64.3156C144.133 63.5342 143.795 62.9406 143.344 62.5349C142.908 62.1141 142.375 61.9038 141.744 61.9038C141.218 61.9038 140.73 62.0766 140.279 62.4222C139.828 62.7678 139.46 63.3238 139.174 64.0902C138.904 64.8416 138.768 65.8409 138.768 67.0882C138.768 67.9748 138.844 68.7411 138.994 69.3873C139.144 70.0335 139.355 70.567 139.625 70.9877C139.896 71.3935 140.211 71.7015 140.572 71.9119C140.947 72.1223 141.353 72.2275 141.789 72.2275ZM148.464 77.4569C148.735 76.7356 148.923 76.0744 149.028 75.4733C149.148 74.8873 149.216 74.2937 149.231 73.6926C149.261 73.0915 149.276 72.4529 149.276 71.7766H152.251C152.251 72.7684 152.191 73.6175 152.071 74.3238C151.951 75.03 151.785 75.6311 151.575 76.127C151.379 76.638 151.169 77.0813 150.944 77.4569H148.464ZM159.595 74.8197C158.633 74.8197 157.762 74.6468 156.98 74.3012C156.214 73.9406 155.56 73.4372 155.019 72.791C154.493 72.1298 154.087 71.3258 153.802 70.3791C153.516 69.4174 153.374 68.3429 153.374 67.1558C153.374 65.4577 153.637 64.0301 154.163 62.873C154.704 61.7009 155.447 60.8218 156.394 60.2357C157.341 59.6346 158.445 59.3341 159.708 59.3341C160.985 59.3341 162.082 59.6422 162.999 60.2583C163.93 60.8594 164.644 61.7385 165.14 62.8956C165.651 64.0376 165.906 65.4352 165.906 67.0882C165.906 68.3054 165.756 69.3948 165.456 70.3566C165.17 71.3033 164.749 72.1072 164.193 72.7684C163.652 73.4296 162.991 73.9406 162.21 74.3012C161.443 74.6468 160.572 74.8197 159.595 74.8197ZM159.685 72.2275C160.091 72.2275 160.467 72.1373 160.812 71.957C161.173 71.7616 161.488 71.4611 161.759 71.0553C162.029 70.6496 162.24 70.1312 162.39 69.5C162.54 68.8689 162.615 68.1025 162.615 67.2009C162.615 66.0588 162.495 65.097 162.255 64.3156C162.029 63.5342 161.691 62.9406 161.24 62.5349C160.805 62.1141 160.271 61.9038 159.64 61.9038C159.114 61.9038 158.626 62.0766 158.175 62.4222C157.724 62.7678 157.356 63.3238 157.07 64.0902C156.8 64.8416 156.665 65.8409 156.665 67.0882C156.665 67.9748 156.74 68.7411 156.89 69.3873C157.04 70.0335 157.251 70.567 157.521 70.9877C157.792 71.3935 158.107 71.7015 158.468 71.9119C158.844 72.1223 159.249 72.2275 159.685 72.2275ZM174.014 74.8422C172.751 74.8422 171.647 74.6919 170.7 74.3914C169.754 74.0908 169.017 73.6325 168.491 73.0164C167.965 72.4003 167.702 71.6264 167.702 70.6947C167.702 70.0034 167.845 69.4023 168.131 68.8914C168.431 68.3805 168.852 67.9672 169.393 67.6517C169.934 67.3361 170.58 67.1332 171.331 67.0431V66.8853L174.014 66.3668L176.696 66.8627V67.0431C177.432 67.1182 178.071 67.3136 178.612 67.6291C179.153 67.9297 179.574 68.3354 179.874 68.8463C180.175 69.3573 180.325 69.9734 180.325 70.6947C180.325 71.6264 180.062 72.4003 179.536 73.0164C179.01 73.6325 178.274 74.0908 177.327 74.3914C176.381 74.6919 175.276 74.8422 174.014 74.8422ZM174.036 72.1598C174.367 72.1598 174.705 72.1298 175.051 72.0697C175.396 71.9945 175.719 71.8818 176.02 71.7316C176.32 71.5813 176.561 71.3784 176.741 71.123C176.937 70.8675 177.034 70.5519 177.034 70.1762C177.034 69.7254 176.899 69.3573 176.628 69.0717C176.358 68.7712 175.99 68.5533 175.524 68.4181C175.073 68.2828 174.57 68.2152 174.014 68.2152C173.458 68.2152 172.954 68.2828 172.503 68.4181C172.053 68.5533 171.692 68.7637 171.422 69.0492C171.166 69.3347 171.038 69.7029 171.038 70.1537C171.038 70.5144 171.128 70.8299 171.309 71.1004C171.489 71.3559 171.73 71.5663 172.03 71.7316C172.331 71.8818 172.654 71.9945 172.999 72.0697C173.345 72.1298 173.691 72.1598 174.036 72.1598ZM174.014 65.8259C174.45 65.8259 174.848 65.7658 175.208 65.6455C175.584 65.5103 175.885 65.3074 176.11 65.0369C176.335 64.7514 176.448 64.3757 176.448 63.9099C176.448 63.5342 176.373 63.2262 176.223 62.9857C176.072 62.7303 175.87 62.5274 175.614 62.3771C175.374 62.2268 175.111 62.1217 174.825 62.0615C174.54 62.0014 174.262 61.9714 173.991 61.9714C173.616 61.9714 173.24 62.0315 172.864 62.1517C172.503 62.2569 172.195 62.4523 171.94 62.7378C171.7 63.0233 171.579 63.4065 171.579 63.8874C171.579 64.3382 171.692 64.7138 171.917 65.0144C172.143 65.2999 172.436 65.5103 172.797 65.6455C173.172 65.7658 173.578 65.8259 174.014 65.8259ZM174.014 67.7869L171.331 67.0882V66.8402C170.64 66.72 170.062 66.5171 169.596 66.2316C169.145 65.9461 168.807 65.5779 168.581 65.1271C168.356 64.6613 168.243 64.1128 168.243 63.4816C168.243 62.5349 168.484 61.7535 168.965 61.1374C169.46 60.5062 170.137 60.0404 170.993 59.7398C171.865 59.4393 172.872 59.289 174.014 59.289C175.186 59.289 176.2 59.4468 177.057 59.7624C177.928 60.0779 178.597 60.5513 179.063 61.1825C179.544 61.7986 179.784 62.565 179.784 63.4816C179.784 64.3832 179.536 65.1196 179.04 65.6906C178.559 66.2617 177.778 66.6373 176.696 66.8177V67.0882L174.014 67.7869ZM181.851 66.5697L182.37 64.9017H190.98L190.484 66.5697H181.851ZM181.536 69.5902L182.031 67.9222H190.326L189.831 69.5902H181.536ZM190.71 74.8197C189.538 74.8197 188.501 74.6468 187.599 74.3012C186.697 73.9406 185.938 73.4296 185.322 72.7684C184.721 72.1072 184.263 71.3108 183.947 70.3791C183.632 69.4324 183.474 68.3655 183.474 67.1783C183.474 65.9761 183.632 64.8942 183.947 63.9324C184.278 62.9707 184.744 62.1442 185.345 61.4529C185.961 60.7617 186.705 60.2357 187.576 59.8751C188.448 59.4994 189.44 59.3116 190.552 59.3116C191.453 59.3116 192.265 59.4393 192.986 59.6948C193.708 59.9352 194.316 60.2808 194.812 60.7316C195.323 61.1674 195.706 61.6934 195.962 62.3095C196.217 62.9256 196.337 63.6093 196.322 64.3607L193.302 65.0144C193.317 64.3532 193.197 63.8047 192.941 63.3689C192.686 62.9181 192.34 62.58 191.904 62.3546C191.468 62.1141 190.98 61.9939 190.439 61.9939C189.973 61.9939 189.522 62.0916 189.087 62.287C188.666 62.4673 188.29 62.7603 187.96 63.166C187.629 63.5568 187.366 64.0752 187.171 64.7214C186.975 65.3525 186.878 66.1114 186.878 66.998C186.878 68.1701 187.035 69.1394 187.351 69.9058C187.682 70.6571 188.14 71.2206 188.726 71.5963C189.327 71.972 190.018 72.1598 190.8 72.1598C191.581 72.1598 192.197 71.9945 192.648 71.6639C193.114 71.3183 193.445 70.8675 193.64 70.3115C193.835 69.7555 193.933 69.1469 193.933 68.4857L196.841 68.8914C196.856 69.7029 196.758 70.4693 196.548 71.1906C196.337 71.9119 195.984 72.543 195.488 73.084C195.007 73.625 194.369 74.0533 193.572 74.3688C192.791 74.6694 191.837 74.8197 190.71 74.8197Z" fill="black"/>
<path d="M172.7 94.1115C172.7 93.4751 172.757 92.8121 172.872 92.1226C172.996 91.4331 173.182 90.7481 173.429 90.0674C173.686 89.3868 174.004 88.7415 174.384 88.1316C174.773 87.5128 175.233 86.9603 175.763 86.4741V86.3813L171.241 86.4078V85.3604H176.916V86.4874C176.475 86.9294 176.072 87.4288 175.71 87.9857C175.356 88.5426 175.051 89.1437 174.795 89.789C174.539 90.4254 174.34 91.1061 174.198 91.8309C174.066 92.5558 173.999 93.316 173.999 94.1115H172.7ZM181.089 94.2971C180.638 94.2971 180.227 94.2397 179.856 94.1248C179.485 94.0187 179.162 93.8596 178.888 93.6474C178.614 93.4264 178.397 93.1568 178.238 92.8386C178.079 92.5116 177.991 92.1359 177.973 91.7116L179.113 91.4596C179.14 91.8309 179.219 92.1315 179.352 92.3613C179.485 92.5911 179.644 92.7723 179.829 92.9049C180.024 93.0287 180.227 93.1126 180.439 93.1568C180.66 93.201 180.872 93.2231 181.076 93.2231C181.535 93.2231 181.92 93.1392 182.229 92.9712C182.539 92.7944 182.786 92.5513 182.972 92.2419C183.157 91.9326 183.29 91.579 183.37 91.1812C183.449 90.7746 183.489 90.3414 183.489 89.8818C183.489 89.6254 183.476 89.3779 183.449 89.1393C183.431 88.8918 183.4 88.6487 183.356 88.41C183.321 88.1713 183.277 87.9459 183.224 87.7338H183.091C183.144 88.2642 183.104 88.7194 182.972 89.0995C182.839 89.4796 182.645 89.789 182.388 90.0276C182.141 90.2663 181.854 90.4431 181.526 90.558C181.199 90.6729 180.868 90.7304 180.532 90.7304C180.037 90.7304 179.586 90.6199 179.18 90.3989C178.782 90.1779 178.464 89.8685 178.225 89.4707C177.995 89.0641 177.88 88.5824 177.88 88.0255C177.88 87.6542 177.938 87.2962 178.053 86.9515C178.176 86.6067 178.362 86.3018 178.609 86.0366C178.866 85.7714 179.184 85.5637 179.564 85.4134C179.953 85.2543 180.413 85.1747 180.943 85.1747C181.721 85.1747 182.388 85.3604 182.945 85.7316C183.502 86.094 183.931 86.6288 184.231 87.336C184.532 88.0343 184.682 88.8918 184.682 89.9083C184.682 90.8099 184.55 91.5922 184.284 92.2552C184.028 92.9093 183.635 93.4132 183.104 93.7668C182.583 94.1204 181.911 94.2971 181.089 94.2971ZM180.85 89.7757C181.213 89.7757 181.535 89.6962 181.818 89.537C182.101 89.3691 182.322 89.1348 182.481 88.8343C182.649 88.5338 182.733 88.1846 182.733 87.7868C182.733 87.3714 182.649 87.0487 182.481 86.8189C182.313 86.5891 182.101 86.4299 181.845 86.3415C181.588 86.2532 181.323 86.209 181.049 86.209C180.696 86.209 180.395 86.262 180.148 86.3681C179.9 86.4653 179.697 86.6023 179.538 86.7791C179.387 86.9559 179.277 87.1504 179.206 87.3625C179.135 87.5747 179.1 87.7957 179.1 88.0255C179.1 88.3967 179.18 88.715 179.339 88.9802C179.498 89.2365 179.706 89.4354 179.962 89.5768C180.227 89.7094 180.523 89.7757 180.85 89.7757ZM188.159 90.0674C187.717 90.0674 187.31 89.9746 186.939 89.789C186.568 89.5945 186.271 89.3116 186.05 88.9404C185.838 88.5691 185.732 88.1139 185.732 87.5747C185.732 87.1415 185.798 86.7703 185.931 86.4609C186.064 86.1427 186.245 85.8819 186.475 85.6786C186.705 85.4753 186.965 85.325 187.257 85.2278C187.558 85.1305 187.862 85.0819 188.172 85.0819C188.623 85.0819 189.034 85.1747 189.405 85.3604C189.776 85.546 190.068 85.8244 190.28 86.1957C190.501 86.567 190.612 87.031 190.612 87.5879C190.612 88.1713 190.492 88.6443 190.254 89.0067C190.015 89.3691 189.71 89.6387 189.339 89.8155C188.967 89.9834 188.574 90.0674 188.159 90.0674ZM188.212 89.073C188.433 89.073 188.645 89.0244 188.848 88.9271C189.051 88.8299 189.219 88.6752 189.352 88.463C189.485 88.2421 189.551 87.9592 189.551 87.6144C189.551 87.2255 189.476 86.9205 189.325 86.6996C189.175 86.4786 188.99 86.3194 188.769 86.2222C188.556 86.125 188.344 86.0764 188.132 86.0764C187.911 86.0764 187.699 86.1294 187.496 86.2355C187.292 86.3327 187.124 86.4874 186.992 86.6996C186.859 86.9117 186.793 87.1901 186.793 87.5349C186.793 87.8973 186.864 88.1934 187.005 88.4233C187.146 88.6443 187.328 88.8078 187.549 88.9139C187.77 89.0199 187.991 89.073 188.212 89.073ZM194.775 94.4297C194.324 94.4297 193.913 94.3369 193.542 94.1513C193.171 93.9657 192.875 93.6872 192.654 93.316C192.441 92.9359 192.335 92.4762 192.335 91.937C192.335 91.5038 192.402 91.1326 192.534 90.8232C192.676 90.505 192.861 90.2486 193.091 90.0542C193.321 89.8508 193.582 89.7006 193.873 89.6033C194.165 89.4973 194.47 89.4442 194.788 89.4442C195.239 89.4442 195.646 89.5415 196.008 89.7359C196.379 89.9216 196.676 90.2 196.897 90.5713C197.118 90.9337 197.228 91.3934 197.228 91.9502C197.228 92.5337 197.109 93.011 196.87 93.3822C196.631 93.7447 196.326 94.0099 195.955 94.1778C195.584 94.3458 195.19 94.4297 194.775 94.4297ZM194.828 93.4353C195.04 93.4353 195.248 93.3867 195.451 93.2894C195.663 93.1922 195.831 93.0375 195.955 92.8254C196.088 92.6132 196.154 92.3303 196.154 91.9768C196.154 91.5967 196.079 91.2961 195.929 91.0751C195.787 90.8453 195.606 90.6818 195.385 90.5845C195.173 90.4873 194.961 90.4387 194.749 90.4387C194.528 90.4387 194.311 90.4917 194.099 90.5978C193.895 90.695 193.728 90.8497 193.595 91.0619C193.471 91.274 193.409 91.5525 193.409 91.8972C193.409 92.2596 193.48 92.5558 193.621 92.7856C193.763 93.0066 193.94 93.1701 194.152 93.2762C194.373 93.3822 194.598 93.4353 194.828 93.4353ZM188.053 94.1115L193.529 85.3604H194.762L189.299 94.1115H188.053Z" fill="#4B4B4B"/>
<defs>
<clipPath id="clip0_263_15010">
<rect width="38.452" height="37.1261" fill="white" transform="translate(33.5215 48.441)"/>
</clipPath>
</defs>
</svg>
