<svg width="232" height="135" viewBox="0 0 232 135" fill="none" xmlns="http://www.w3.org/2000/svg">
<rect x="0.34375" y="0.578613" width="230.712" height="133.507" rx="33" fill="#4AFF93"/>
<g clip-path="url(#clip0_263_15004)">
<path d="M67.1381 64.2384H61.8401L55.0361 51.187C54.6225 50.4552 54.0124 49.8444 53.2698 49.419C52.5273 48.9935 51.6798 48.769 50.8163 48.7692H44.9175L49.5635 64.2384H43.748L40.0633 60.6882C39.6465 60.2861 39.1396 59.9819 38.5817 59.7991C38.0238 59.6163 37.4299 59.5596 36.8457 59.6336C36.2616 59.7076 35.7029 59.9103 35.2127 60.2259C34.7225 60.5415 34.314 60.9617 34.0188 61.4539C33.6762 62.0162 33.4945 62.6562 33.4922 63.3085C33.49 63.9609 33.6672 64.6021 34.0059 65.1665L38.9531 73.5199H49.5459L44.7397 85.8952H50.8163C51.6649 85.8999 52.4993 85.6853 53.2331 85.2738C53.9669 84.8623 54.5734 84.2688 54.9897 83.5547L61.4732 73.5199H71.9442V68.8791C71.9442 67.6483 71.4379 66.4679 70.5365 65.5976C69.6352 64.7273 68.4127 64.2384 67.1381 64.2384ZM49.1822 51.863H50.8163C51.0956 51.8607 51.3707 51.9297 51.6135 52.0631C51.8563 52.1965 52.0582 52.3895 52.1989 52.6226L58.2547 64.2384H52.8958L49.1822 51.863ZM68.7401 70.426H59.6949L52.2229 81.9954C52.085 82.2394 51.8817 82.443 51.6342 82.5848C51.3866 82.7266 51.1041 82.8014 50.8163 82.8014H49.3552L54.1614 70.426H40.8115L36.7871 63.6196C36.7305 63.525 36.7009 63.4177 36.7012 63.3084C36.7015 63.1992 36.7318 63.092 36.7889 62.9977C36.846 62.9035 36.928 62.8255 37.0264 62.7717C37.1249 62.7179 37.2363 62.6902 37.3494 62.6915C37.4343 62.6912 37.5183 62.7072 37.5967 62.7385C37.6751 62.7699 37.7462 62.8159 37.806 62.874L42.4231 67.3322H67.1381C67.5629 67.3322 67.9704 67.4952 68.2709 67.7853C68.5713 68.0754 68.7401 68.4689 68.7401 68.8791V70.426Z" fill="black"/>
</g>
<path d="M152.63 49.2248V40.4736H153.85V49.2248H152.63ZM146.888 49.2248V40.4736H148.108V49.2248H146.888ZM147.525 45.3V44.2525H153.147V45.3H147.525ZM158.727 49.3972C158.082 49.3972 157.507 49.2602 157.003 48.9861C156.508 48.7033 156.119 48.2922 155.836 47.753C155.554 47.2138 155.412 46.5552 155.412 45.7774C155.412 44.9818 155.558 44.3188 155.85 43.7885C156.15 43.2581 156.548 42.8603 157.043 42.5951C157.538 42.3299 158.091 42.1974 158.701 42.1974C159.328 42.1974 159.889 42.3344 160.384 42.6084C160.888 42.8824 161.282 43.289 161.565 43.8282C161.856 44.3675 162.002 45.0348 162.002 45.8304C162.002 46.6171 161.856 47.2757 161.565 47.806C161.282 48.3364 160.893 48.7342 160.398 48.9994C159.903 49.2646 159.346 49.3972 158.727 49.3972ZM158.767 48.4027C159.023 48.4027 159.271 48.3585 159.509 48.2701C159.748 48.1729 159.965 48.027 160.159 47.8326C160.353 47.6293 160.508 47.3685 160.623 47.0503C160.738 46.7232 160.795 46.3298 160.795 45.8702C160.795 45.4017 160.734 44.9995 160.61 44.6636C160.495 44.3277 160.336 44.0537 160.133 43.8415C159.938 43.6294 159.713 43.4747 159.456 43.3774C159.2 43.2714 158.939 43.2183 158.674 43.2183C158.418 43.2183 158.166 43.2669 157.918 43.3642C157.68 43.4526 157.463 43.5984 157.268 43.8017C157.074 44.005 156.919 44.2658 156.804 44.584C156.69 44.9023 156.632 45.2912 156.632 45.7509C156.632 46.2193 156.69 46.6215 156.804 46.9574C156.919 47.2934 157.074 47.5674 157.268 47.7795C157.472 47.9917 157.702 48.1508 157.958 48.2569C158.214 48.3541 158.484 48.4027 158.767 48.4027ZM163.5 49.2248V40.0361H164.693V49.2248H163.5ZM166.491 49.2248V42.3697H167.697V49.2248H166.491ZM167.101 41.2957C166.827 41.2957 166.619 41.2383 166.477 41.1233C166.345 41.0084 166.279 40.8449 166.279 40.6328C166.279 40.4029 166.349 40.235 166.491 40.1289C166.632 40.014 166.835 39.9565 167.101 39.9565C167.375 39.9565 167.578 40.014 167.711 40.1289C167.852 40.235 167.923 40.4029 167.923 40.6328C167.923 40.8449 167.852 41.0084 167.711 41.1233C167.578 41.2383 167.375 41.2957 167.101 41.2957ZM171.948 49.3972C171.391 49.3972 170.905 49.2557 170.489 48.9729C170.083 48.6812 169.764 48.2657 169.535 47.7265C169.305 47.1873 169.19 46.542 169.19 45.7906C169.19 45.0658 169.296 44.4338 169.508 43.8945C169.729 43.3553 170.043 42.9399 170.449 42.6482C170.856 42.3476 171.342 42.1974 171.908 42.1974C172.385 42.1974 172.783 42.3034 173.101 42.5156C173.428 42.7189 173.685 42.9973 173.87 43.3509C174.065 43.7045 174.206 44.1111 174.295 44.5708H174.493C174.449 44.2614 174.405 43.9564 174.361 43.6559C174.326 43.3553 174.295 43.0725 174.268 42.8073C174.25 42.5333 174.242 42.2902 174.242 42.078V40.0361H175.461L175.448 45.9763L175.461 49.2248H174.361L174.454 47.1961H174.268C174.162 47.6558 174.007 48.0491 173.804 48.3762C173.61 48.7033 173.358 48.9552 173.048 49.132C172.748 49.3088 172.381 49.3972 171.948 49.3972ZM172.213 48.3497C172.549 48.3497 172.84 48.2701 173.088 48.111C173.344 47.9519 173.557 47.7486 173.724 47.5011C173.892 47.2536 174.021 46.9884 174.109 46.7055C174.197 46.4138 174.242 46.1442 174.242 45.8967V45.7641C174.242 45.5962 174.215 45.4017 174.162 45.1807C174.118 44.9597 174.043 44.7387 173.937 44.5177C173.839 44.2967 173.711 44.0934 173.552 43.9078C173.402 43.7133 173.216 43.5586 172.995 43.4437C172.783 43.3288 172.531 43.2714 172.239 43.2714C171.859 43.2714 171.532 43.3819 171.258 43.6028C170.993 43.815 170.79 44.1155 170.648 44.5045C170.507 44.8846 170.436 45.3266 170.436 45.8304C170.436 46.3343 170.507 46.7762 170.648 47.1563C170.79 47.5364 170.993 47.8326 171.258 48.0447C171.523 48.248 171.842 48.3497 172.213 48.3497ZM178.882 49.3972C178.511 49.3972 178.175 49.3309 177.874 49.1983C177.574 49.0568 177.33 48.8447 177.145 48.5618C176.968 48.279 176.88 47.9254 176.88 47.5011C176.88 47.0591 176.968 46.7055 177.145 46.4403C177.33 46.1663 177.574 45.9542 177.874 45.8039C178.175 45.6448 178.502 45.5254 178.855 45.4459C179.218 45.3663 179.585 45.3 179.956 45.247C180.354 45.1851 180.659 45.1321 180.871 45.0879C181.092 45.0348 181.242 44.9641 181.322 44.8757C181.41 44.7873 181.454 44.6547 181.454 44.478C181.454 44.2304 181.397 44.0139 181.282 43.8282C181.176 43.6338 181.017 43.4835 180.804 43.3774C180.592 43.2714 180.331 43.2183 180.022 43.2183C179.757 43.2183 179.492 43.2669 179.227 43.3642C178.961 43.4526 178.736 43.6028 178.55 43.815C178.365 44.0271 178.245 44.3188 178.192 44.6901L177.092 44.3984C177.145 44.0271 177.255 43.7045 177.423 43.4305C177.591 43.1564 177.803 42.931 178.06 42.7542C178.325 42.5686 178.621 42.4316 178.948 42.3432C179.275 42.246 179.629 42.1974 180.009 42.1974C180.513 42.1974 180.933 42.2681 181.268 42.4095C181.613 42.5509 181.883 42.7498 182.077 43.0062C182.281 43.2625 182.426 43.5586 182.515 43.8945C182.612 44.2216 182.661 44.5708 182.661 44.942V46.3608C182.661 46.6613 182.665 46.9751 182.674 47.3022C182.683 47.6293 182.696 47.9563 182.714 48.2834C182.731 48.6104 182.749 48.9242 182.767 49.2248H181.64C181.64 48.8977 181.635 48.5751 181.626 48.2569C181.626 47.9386 181.626 47.616 181.626 47.2889H181.467C181.361 47.669 181.193 48.0182 180.964 48.3364C180.743 48.6546 180.455 48.911 180.102 49.1055C179.757 49.2999 179.35 49.3972 178.882 49.3972ZM179.227 48.416C179.448 48.416 179.669 48.3762 179.89 48.2966C180.111 48.2082 180.323 48.0801 180.526 47.9121C180.738 47.7442 180.924 47.5364 181.083 47.2889C181.242 47.0326 181.37 46.732 181.467 46.3873V45.4326H181.825C181.702 45.5741 181.525 45.6801 181.295 45.7509C181.065 45.8216 180.809 45.879 180.526 45.9232C180.243 45.9674 179.956 46.016 179.664 46.0691C179.381 46.1133 179.12 46.184 178.882 46.2812C178.643 46.3696 178.449 46.5022 178.298 46.679C178.157 46.847 178.086 47.0768 178.086 47.3685C178.086 47.6956 178.188 47.9519 178.391 48.1375C178.603 48.3232 178.882 48.416 179.227 48.416ZM186.721 51.4126C186.367 51.4126 186.018 51.3728 185.674 51.2932C185.338 51.2137 185.024 51.0899 184.732 50.922C184.449 50.7629 184.211 50.5596 184.016 50.3121L184.613 49.3839C184.834 49.6933 185.126 49.9231 185.488 50.0734C185.859 50.2325 186.257 50.3121 186.681 50.3121C187.097 50.3121 187.446 50.2413 187.729 50.0999C188.02 49.9585 188.25 49.7552 188.418 49.49C188.595 49.2248 188.723 48.9066 188.803 48.5353C188.891 48.164 188.935 47.753 188.935 47.3022L189.068 45.8834H188.869C188.79 46.5464 188.639 47.0812 188.418 47.4878C188.206 47.8856 187.941 48.1729 187.623 48.3497C187.304 48.5265 186.942 48.6149 186.535 48.6149C186.111 48.6149 185.758 48.5353 185.475 48.3762C185.201 48.2082 184.98 47.9961 184.812 47.7397C184.653 47.4746 184.533 47.1917 184.454 46.8912C184.374 46.5906 184.321 46.2989 184.295 46.016C184.277 45.7332 184.268 45.4989 184.268 45.3133V42.3697H185.475V44.9686C185.475 45.1277 185.475 45.3177 185.475 45.5387C185.484 45.7597 185.51 45.9851 185.554 46.2149C185.607 46.4448 185.682 46.6613 185.78 46.8646C185.886 47.0591 186.027 47.2182 186.204 47.342C186.39 47.4657 186.628 47.5276 186.92 47.5276C187.212 47.5276 187.468 47.4569 187.689 47.3155C187.91 47.1652 188.096 46.953 188.246 46.679C188.405 46.3961 188.524 46.0647 188.604 45.6846C188.683 45.2956 188.732 44.8625 188.75 44.3851V42.3697H189.97V47.3552C189.97 47.6735 189.948 47.9961 189.903 48.3232C189.868 48.6414 189.806 48.9508 189.718 49.2513C189.629 49.5519 189.506 49.8347 189.346 50.0999C189.196 50.3651 189.002 50.5949 188.763 50.7894C188.524 50.9839 188.237 51.1341 187.901 51.2402C187.565 51.3551 187.172 51.4126 186.721 51.4126ZM194.352 49.3972C193.892 49.3972 193.477 49.3485 193.106 49.2513C192.734 49.1541 192.421 49.0082 192.164 48.8138C191.908 48.6193 191.714 48.3762 191.581 48.0845C191.448 47.7928 191.386 47.4613 191.395 47.09L192.443 46.8779C192.425 47.2226 192.496 47.5099 192.655 47.7397C192.814 47.9696 193.044 48.1419 193.344 48.2569C193.645 48.3629 193.999 48.416 194.405 48.416C194.936 48.416 195.342 48.3276 195.625 48.1508C195.917 47.974 196.063 47.7309 196.063 47.4215C196.063 47.174 195.983 46.984 195.824 46.8514C195.665 46.7099 195.444 46.5994 195.161 46.5199C194.878 46.4403 194.555 46.3652 194.193 46.2945C193.857 46.2238 193.526 46.1442 193.199 46.0558C192.88 45.9674 192.593 45.8525 192.337 45.7111C192.08 45.5608 191.873 45.3707 191.714 45.1409C191.563 44.9023 191.488 44.6017 191.488 44.2393C191.488 43.8238 191.599 43.4658 191.82 43.1653C192.041 42.8559 192.354 42.6172 192.761 42.4493C193.168 42.2813 193.649 42.1974 194.206 42.1974C194.745 42.1974 195.218 42.2813 195.625 42.4493C196.032 42.6172 196.354 42.8692 196.593 43.2051C196.832 43.5321 196.955 43.9343 196.964 44.4117L195.89 44.6371C195.899 44.31 195.828 44.0404 195.678 43.8282C195.537 43.6073 195.333 43.4437 195.068 43.3377C194.803 43.2316 194.498 43.1785 194.153 43.1785C193.685 43.1785 193.313 43.2669 193.039 43.4437C192.774 43.6205 192.642 43.8636 192.642 44.173C192.642 44.4205 192.721 44.615 192.88 44.7564C193.048 44.8978 193.274 45.0083 193.557 45.0879C193.839 45.1586 194.158 45.2337 194.511 45.3133C194.847 45.3752 195.174 45.4503 195.492 45.5387C195.819 45.6183 196.111 45.7332 196.368 45.8834C196.624 46.0249 196.827 46.2149 196.977 46.4536C197.137 46.6923 197.216 46.9972 197.216 47.3685C197.216 47.8016 197.097 48.1729 196.858 48.4823C196.628 48.7828 196.297 49.0126 195.864 49.1718C195.439 49.322 194.936 49.3972 194.352 49.3972Z" fill="#4B4B4B"/>
<path d="M114.471 70.3015V67.3712H120.94V70.3015H114.471ZM127.793 75.1478C126.816 75.1478 125.959 75.0501 125.223 74.8548C124.502 74.6594 123.893 74.3739 123.397 73.9982C122.916 73.6226 122.548 73.1567 122.293 72.6007C122.037 72.0447 121.894 71.4135 121.864 70.7073L124.84 69.9634C124.855 70.3992 124.93 70.7824 125.065 71.113C125.215 71.4436 125.426 71.7216 125.696 71.947C125.967 72.1724 126.29 72.3377 126.666 72.4429C127.041 72.5481 127.454 72.6007 127.905 72.6007C128.461 72.6007 128.95 72.5256 129.37 72.3753C129.806 72.21 130.144 71.962 130.385 71.6314C130.64 71.2858 130.768 70.8575 130.768 70.3466C130.768 69.6704 130.55 69.1294 130.114 68.7237C129.678 68.3179 129.017 68.0399 128.131 67.8897C127.259 67.7394 126.147 67.7244 124.795 67.8446V65.9512L129.641 62.7053V62.5475L122.586 62.5926V59.9327H133.112V62.8405L128.356 66.154V66.3343C129.739 66.2592 130.843 66.4095 131.67 66.7852C132.511 67.1458 133.12 67.6567 133.495 68.3179C133.871 68.9791 134.059 69.708 134.059 70.5044C134.059 71.4511 133.826 72.2701 133.36 72.9614C132.909 73.6526 132.218 74.1936 131.286 74.5843C130.37 74.96 129.205 75.1478 127.793 75.1478ZM135.557 71.947V68.8138C136.293 67.9873 136.939 67.1909 137.495 66.4245C138.051 65.6581 138.54 64.9143 138.96 64.193C139.381 63.4717 139.742 62.7579 140.042 62.0516C140.358 61.3453 140.636 60.639 140.876 59.9327H146.399V74.8322H143.175V62.2094H142.995C142.65 63.111 142.259 63.9676 141.823 64.779C141.387 65.5905 140.914 66.3569 140.403 67.0782C139.892 67.7995 139.351 68.4832 138.78 69.1294V69.3097H148.405V71.947H135.557ZM148.885 77.7851C149.155 77.0638 149.343 76.4026 149.448 75.8015C149.568 75.2154 149.636 74.6219 149.651 74.0208C149.681 73.4197 149.696 72.781 149.696 72.1048H152.671C152.671 73.0966 152.611 73.9456 152.491 74.6519C152.371 75.3582 152.206 75.9593 151.995 76.4552C151.8 76.9661 151.59 77.4094 151.364 77.7851H148.885ZM153.563 71.947V68.8138C154.299 67.9873 154.945 67.1909 155.501 66.4245C156.057 65.6581 156.546 64.9143 156.967 64.193C157.387 63.4717 157.748 62.7579 158.049 62.0516C158.364 61.3453 158.642 60.639 158.883 59.9327H164.405V74.8322H161.182V62.2094H161.001C160.656 63.111 160.265 63.9676 159.829 64.779C159.393 65.5905 158.92 66.3569 158.409 67.0782C157.898 67.7995 157.357 68.4832 156.786 69.1294V69.3097H166.411V71.947H153.563ZM174.709 75.1704C172.53 75.1704 170.862 74.5167 169.705 73.2093C168.563 71.9019 167.992 70.0085 167.992 67.529C167.992 65.8159 168.255 64.3733 168.781 63.2012C169.322 62.014 170.089 61.1199 171.08 60.5188C172.072 59.9177 173.244 59.6172 174.597 59.6172C175.303 59.6172 175.964 59.7073 176.58 59.8877C177.196 60.053 177.737 60.3159 178.203 60.6766C178.684 61.0372 179.067 61.4956 179.353 62.0516C179.653 62.6076 179.841 63.2613 179.916 64.0126L176.873 64.6438C176.813 64.0427 176.648 63.5768 176.377 63.2463C176.122 62.9006 175.814 62.6602 175.453 62.5249C175.108 62.3897 174.754 62.3221 174.394 62.3221C173.853 62.3221 173.379 62.4573 172.974 62.7278C172.568 62.9983 172.23 63.3665 171.959 63.8323C171.704 64.2982 171.509 64.8391 171.373 65.4553C171.253 66.0714 171.193 66.7251 171.193 67.4163C171.193 67.777 171.216 68.1827 171.261 68.6335C171.306 69.0693 171.373 69.4901 171.464 69.8958H171.644C171.614 69.0543 171.719 68.363 171.959 67.822C172.215 67.266 172.553 66.8227 172.974 66.4921C173.41 66.1615 173.875 65.9286 174.371 65.7934C174.867 65.6581 175.348 65.5905 175.814 65.5905C176.64 65.5905 177.399 65.7633 178.091 66.1089C178.797 66.4395 179.36 66.9429 179.781 67.6192C180.202 68.2954 180.412 69.1294 180.412 70.1212C180.412 70.7223 180.315 71.3234 180.119 71.9245C179.924 72.5256 179.601 73.0741 179.15 73.57C178.714 74.0508 178.128 74.4415 177.392 74.7421C176.67 75.0276 175.776 75.1704 174.709 75.1704ZM174.574 72.5556C174.98 72.5556 175.341 72.503 175.656 72.3978C175.972 72.2776 176.242 72.1123 176.468 71.9019C176.708 71.6765 176.881 71.4211 176.986 71.1355C177.106 70.85 177.166 70.5345 177.166 70.1888C177.166 69.6929 177.054 69.2722 176.828 68.9265C176.618 68.5809 176.332 68.3179 175.972 68.1376C175.611 67.9573 175.205 67.8671 174.754 67.8671C174.259 67.8671 173.815 67.9723 173.425 68.1827C173.034 68.3931 172.718 68.6936 172.478 69.0843C172.252 69.46 172.14 69.9108 172.14 70.4368C172.14 70.8125 172.207 71.1355 172.343 71.406C172.478 71.6765 172.658 71.9019 172.884 72.0823C173.109 72.2476 173.364 72.3678 173.65 72.4429C173.951 72.5181 174.259 72.5556 174.574 72.5556ZM181.985 66.8979L182.504 65.2298H191.114L190.618 66.8979H181.985ZM181.67 69.9183L182.166 68.2503H190.461L189.965 69.9183H181.67ZM190.844 75.1478C189.672 75.1478 188.635 74.975 187.733 74.6294C186.832 74.2687 186.073 73.7578 185.457 73.0966C184.856 72.4354 184.397 71.639 184.082 70.7073C183.766 69.7606 183.608 68.6936 183.608 67.5065C183.608 66.3043 183.766 65.2223 184.082 64.2606C184.412 63.2988 184.878 62.4723 185.479 61.7811C186.095 61.0898 186.839 60.5639 187.711 60.2032C188.582 59.8276 189.574 59.6397 190.686 59.6397C191.588 59.6397 192.399 59.7674 193.121 60.0229C193.842 60.2633 194.45 60.609 194.946 61.0598C195.457 61.4956 195.84 62.0215 196.096 62.6376C196.351 63.2538 196.472 63.9375 196.457 64.6889L193.436 65.3425C193.451 64.6814 193.331 64.1329 193.075 63.6971C192.82 63.2463 192.474 62.9081 192.039 62.6827C191.603 62.4423 191.114 62.3221 190.573 62.3221C190.108 62.3221 189.657 62.4198 189.221 62.6151C188.8 62.7954 188.425 63.0885 188.094 63.4942C187.763 63.8849 187.5 64.4033 187.305 65.0495C187.11 65.6807 187.012 66.4395 187.012 67.3261C187.012 68.4983 187.17 69.4675 187.485 70.2339C187.816 70.9853 188.274 71.5488 188.86 71.9245C189.461 72.3002 190.153 72.488 190.934 72.488C191.715 72.488 192.332 72.3227 192.782 71.9921C193.248 71.6465 193.579 71.1957 193.774 70.6396C193.97 70.0836 194.067 69.475 194.067 68.8138L196.975 69.2196C196.99 70.031 196.892 70.7974 196.682 71.5187C196.472 72.24 196.118 72.8712 195.623 73.4122C195.142 73.9532 194.503 74.3814 193.707 74.697C192.925 74.9975 191.971 75.1478 190.844 75.1478Z" fill="black"/>
<path d="M171.491 94.4397V93.0077L174.567 90.6078C174.761 90.4575 174.956 90.2895 175.15 90.1039C175.354 89.9183 175.539 89.7194 175.707 89.5072C175.884 89.2862 176.025 89.052 176.131 88.8045C176.237 88.557 176.291 88.2962 176.291 88.0222C176.291 87.7482 176.224 87.5007 176.092 87.2797C175.968 87.0587 175.778 86.8863 175.521 86.7625C175.265 86.6388 174.942 86.5769 174.554 86.5769C174.297 86.5769 174.05 86.6167 173.811 86.6963C173.572 86.767 173.369 86.8907 173.201 87.0675C173.033 87.2443 172.909 87.483 172.83 87.7835C172.75 88.0752 172.737 88.4421 172.79 88.884L171.61 88.7249C171.557 88.0796 171.632 87.5139 171.835 87.0277C172.039 86.5416 172.37 86.1659 172.83 85.9007C173.289 85.6355 173.873 85.5029 174.58 85.5029C175.181 85.5029 175.698 85.6001 176.131 85.7946C176.573 85.9891 176.914 86.2675 177.152 86.63C177.391 86.9924 177.51 87.4299 177.51 87.9426C177.51 88.3404 177.444 88.7117 177.311 89.0564C177.179 89.3923 177.002 89.7017 176.781 89.9846C176.569 90.2586 176.33 90.5149 176.065 90.7536C175.809 90.9834 175.548 91.1956 175.283 91.3901L172.83 93.3392V93.4187L177.723 93.3922V94.4397H171.491ZM178.244 92.5304V91.1779C178.65 90.7713 179.039 90.3426 179.41 89.8917C179.79 89.4409 180.14 88.9813 180.458 88.5128C180.776 88.0354 181.059 87.5581 181.306 87.0808C181.563 86.6034 181.779 86.1349 181.956 85.6753H184.038V94.4397H182.831V86.63H182.738C182.473 87.2752 182.164 87.8852 181.81 88.4597C181.466 89.0255 181.094 89.5514 180.697 90.0376C180.299 90.5238 179.883 90.979 179.45 91.4033V91.4961H185.138V92.5304H178.244ZM188.013 90.3956C187.571 90.3956 187.164 90.3028 186.793 90.1172C186.422 89.9227 186.126 89.6398 185.905 89.2686C185.692 88.8973 185.586 88.4421 185.586 87.9029C185.586 87.4697 185.653 87.0985 185.785 86.7891C185.918 86.4708 186.099 86.2101 186.329 86.0068C186.559 85.8035 186.819 85.6532 187.111 85.556C187.412 85.4587 187.717 85.4101 188.026 85.4101C188.477 85.4101 188.888 85.5029 189.259 85.6885C189.63 85.8742 189.922 86.1526 190.134 86.5239C190.355 86.8951 190.466 87.3592 190.466 87.9161C190.466 88.4995 190.346 88.9724 190.108 89.3349C189.869 89.6973 189.564 89.9669 189.193 90.1437C188.822 90.3116 188.428 90.3956 188.013 90.3956ZM188.066 89.4012C188.287 89.4012 188.499 89.3525 188.702 89.2553C188.906 89.1581 189.074 89.0034 189.206 88.7912C189.339 88.5702 189.405 88.2874 189.405 87.9426C189.405 87.5537 189.33 87.2487 189.18 87.0277C189.029 86.8067 188.844 86.6476 188.623 86.5504C188.411 86.4532 188.198 86.4045 187.986 86.4045C187.765 86.4045 187.553 86.4576 187.35 86.5637C187.147 86.6609 186.979 86.8156 186.846 87.0277C186.713 87.2399 186.647 87.5183 186.647 87.8631C186.647 88.2255 186.718 88.5216 186.859 88.7514C187.001 88.9724 187.182 89.136 187.403 89.242C187.624 89.3481 187.845 89.4012 188.066 89.4012ZM194.629 94.7579C194.178 94.7579 193.767 94.6651 193.396 94.4795C193.025 94.2938 192.729 94.0154 192.508 93.6441C192.296 93.264 192.189 92.8044 192.189 92.2652C192.189 91.832 192.256 91.4608 192.388 91.1514C192.53 90.8332 192.715 90.5768 192.945 90.3823C193.175 90.179 193.436 90.0288 193.728 89.9315C194.019 89.8255 194.324 89.7724 194.642 89.7724C195.093 89.7724 195.5 89.8697 195.862 90.0641C196.234 90.2498 196.53 90.5282 196.751 90.8995C196.972 91.2619 197.082 91.7215 197.082 92.2784C197.082 92.8618 196.963 93.3392 196.724 93.7104C196.485 94.0729 196.181 94.338 195.809 94.506C195.438 94.6739 195.045 94.7579 194.629 94.7579ZM194.682 93.7635C194.894 93.7635 195.102 93.7149 195.305 93.6176C195.518 93.5204 195.686 93.3657 195.809 93.1535C195.942 92.9414 196.008 92.6585 196.008 92.3049C196.008 91.9248 195.933 91.6243 195.783 91.4033C195.641 91.1735 195.46 91.01 195.239 90.9127C195.027 90.8155 194.815 90.7669 194.603 90.7669C194.382 90.7669 194.165 90.8199 193.953 90.926C193.75 91.0232 193.582 91.1779 193.449 91.3901C193.325 91.6022 193.263 91.8806 193.263 92.2254C193.263 92.5878 193.334 92.8839 193.476 93.1138C193.617 93.3348 193.794 93.4983 194.006 93.6044C194.227 93.7104 194.452 93.7635 194.682 93.7635ZM187.907 94.4397L193.383 85.6885H194.616L189.153 94.4397H187.907Z" fill="#4B4B4B"/>
<defs>
<clipPath id="clip0_263_15004">
<rect width="38.452" height="37.1261" fill="white" transform="translate(33.4922 48.7692)"/>
</clipPath>
</defs>
</svg>
