<svg width="232" height="135" viewBox="0 0 232 135" fill="none" xmlns="http://www.w3.org/2000/svg">
<rect x="0.358398" y="0.578613" width="230.712" height="133.507" rx="33" fill="#FFC839"/>
<path d="M52.0699 48.7691C41.8178 48.7691 33.5068 57.0801 33.5068 67.3322C33.5068 77.5842 41.8178 85.8952 52.0699 85.8952C62.3219 85.8952 70.6329 77.5842 70.6329 67.3322C70.6329 57.0801 62.3219 48.7691 52.0699 48.7691ZM67.4221 65.6728L67.4143 65.6666C64.4244 65.3565 61.5913 64.1749 59.267 62.2687L64.0086 57.527C65.919 59.8498 67.1058 62.682 67.4221 65.6728ZM61.8185 55.3415L57.083 60.0909C55.1761 57.7669 53.9945 54.9337 53.6851 51.9435C56.6698 52.2577 59.4973 53.4389 61.8185 55.3415ZM50.6021 51.9358C50.9256 55.7488 52.4279 59.3666 54.9006 62.2872L52.0648 65.123L42.2972 55.3554C44.6635 53.4144 47.5552 52.2238 50.6021 51.9358ZM40.1125 57.5402L40.1055 57.5331L40.1133 57.5393C40.113 57.5396 40.1128 57.5399 40.1125 57.5402L49.8809 67.3069L47.0436 70.1442C44.1247 67.6705 40.5077 66.1676 36.6953 65.8442C36.9827 62.7979 38.1726 59.9065 40.1125 57.5402ZM36.7076 68.9411V68.9349C39.6978 69.2443 42.531 70.426 44.8549 72.3329L40.1133 77.0745C38.208 74.7542 37.024 71.9266 36.7076 68.9411ZM42.3034 79.2585L47.0389 74.5168C48.9458 76.8408 50.1274 79.674 50.4368 82.6642C47.4513 82.3477 44.6237 81.1638 42.3034 79.2585ZM53.5275 82.6781C53.2045 78.8651 51.7015 75.2475 49.2275 72.3281L52.0648 69.4909L61.8324 79.2585C59.4665 81.2001 56.5746 82.3908 53.5275 82.6781ZM64.0133 77.0745L54.2488 67.3069L57.0845 64.4712C60.0043 66.9433 63.6209 68.4456 67.4329 68.7696C67.1449 71.8165 65.9542 74.7082 64.0133 77.0745Z" fill="black"/>
<path d="M154.644 49.2247V40.4736H155.864V49.2247H154.644ZM148.903 49.2247V40.4736H150.123V49.2247H148.903ZM149.54 45.3V44.2525H155.161V45.3H149.54ZM160.742 49.3971C160.096 49.3971 159.522 49.2601 159.018 48.9861C158.523 48.7032 158.134 48.2922 157.851 47.7529C157.568 47.2137 157.427 46.5552 157.427 45.7773C157.427 44.9818 157.573 44.3188 157.864 43.7884C158.165 43.258 158.563 42.8603 159.058 42.5951C159.553 42.3299 160.105 42.1973 160.715 42.1973C161.343 42.1973 161.904 42.3343 162.399 42.6083C162.903 42.8824 163.296 43.289 163.579 43.8282C163.871 44.3674 164.017 45.0348 164.017 45.8304C164.017 46.6171 163.871 47.2756 163.579 47.806C163.296 48.3364 162.907 48.7341 162.412 48.9993C161.917 49.2645 161.36 49.3971 160.742 49.3971ZM160.781 48.4027C161.038 48.4027 161.285 48.3585 161.524 48.2701C161.763 48.1728 161.979 48.027 162.174 47.8325C162.368 47.6292 162.523 47.3684 162.638 47.0502C162.753 46.7231 162.81 46.3298 162.81 45.8701C162.81 45.4016 162.748 44.9994 162.624 44.6635C162.51 44.3276 162.35 44.0536 162.147 43.8415C161.953 43.6293 161.727 43.4746 161.471 43.3774C161.215 43.2713 160.954 43.2183 160.689 43.2183C160.432 43.2183 160.18 43.2669 159.933 43.3641C159.694 43.4525 159.478 43.5984 159.283 43.8017C159.089 44.005 158.934 44.2658 158.819 44.584C158.704 44.9022 158.647 45.2911 158.647 45.7508C158.647 46.2193 158.704 46.6215 158.819 46.9574C158.934 47.2933 159.089 47.5673 159.283 47.7795C159.486 47.9916 159.716 48.1507 159.973 48.2568C160.229 48.354 160.499 48.4027 160.781 48.4027ZM169.028 49.3971C168.595 49.3971 168.219 49.3087 167.901 49.1319C167.583 48.9463 167.322 48.6899 167.119 48.3629C166.924 48.027 166.778 47.638 166.681 47.1961H166.509L166.601 49.2247H165.501L165.514 45.9364L165.501 40.036H166.721V42.0515C166.721 42.2901 166.708 42.5465 166.681 42.8205C166.663 43.0857 166.637 43.3641 166.601 43.6558C166.566 43.9475 166.522 44.2481 166.469 44.5575H166.668C166.756 44.1155 166.893 43.7177 167.079 43.3641C167.273 43.0105 167.534 42.7277 167.861 42.5155C168.188 42.3034 168.586 42.1973 169.054 42.1973C169.611 42.1973 170.093 42.3476 170.5 42.6481C170.906 42.9398 171.22 43.3553 171.441 43.8945C171.662 44.4249 171.773 45.0613 171.773 45.8038C171.773 46.5464 171.658 47.1872 171.428 47.7264C171.207 48.2656 170.889 48.6811 170.473 48.9728C170.067 49.2557 169.585 49.3971 169.028 49.3971ZM168.749 48.3496C169.121 48.3496 169.439 48.248 169.704 48.0447C169.969 47.8325 170.173 47.5364 170.314 47.1563C170.455 46.7762 170.526 46.3342 170.526 45.8304C170.526 45.3265 170.455 44.8845 170.314 44.5044C170.173 44.1155 169.969 43.8149 169.704 43.6028C169.439 43.3818 169.116 43.2713 168.736 43.2713C168.453 43.2713 168.201 43.3288 167.98 43.4437C167.759 43.5586 167.569 43.7133 167.41 43.9078C167.251 44.0934 167.119 44.2967 167.012 44.5177C166.915 44.7387 166.84 44.9597 166.787 45.1806C166.743 45.4016 166.721 45.5961 166.721 45.7641V45.9099C166.721 46.1574 166.765 46.4226 166.853 46.7055C166.942 46.9883 167.07 47.2535 167.238 47.501C167.406 47.7485 167.614 47.9518 167.861 48.111C168.117 48.2701 168.414 48.3496 168.749 48.3496ZM176.784 49.3971C176.351 49.3971 175.975 49.3087 175.657 49.1319C175.339 48.9463 175.078 48.6899 174.875 48.3629C174.68 48.027 174.534 47.638 174.437 47.1961H174.265L174.358 49.2247H173.257L173.27 45.9364L173.257 40.036H174.477V42.0515C174.477 42.2901 174.464 42.5465 174.437 42.8205C174.419 43.0857 174.393 43.3641 174.358 43.6558C174.322 43.9475 174.278 44.2481 174.225 44.5575H174.424C174.512 44.1155 174.649 43.7177 174.835 43.3641C175.029 43.0105 175.29 42.7277 175.617 42.5155C175.944 42.3034 176.342 42.1973 176.811 42.1973C177.367 42.1973 177.849 42.3476 178.256 42.6481C178.662 42.9398 178.976 43.3553 179.197 43.8945C179.418 44.4249 179.529 45.0613 179.529 45.8038C179.529 46.5464 179.414 47.1872 179.184 47.7264C178.963 48.2656 178.645 48.6811 178.229 48.9728C177.823 49.2557 177.341 49.3971 176.784 49.3971ZM176.506 48.3496C176.877 48.3496 177.195 48.248 177.46 48.0447C177.725 47.8325 177.929 47.5364 178.07 47.1563C178.212 46.7762 178.282 46.3342 178.282 45.8304C178.282 45.3265 178.212 44.8845 178.07 44.5044C177.929 44.1155 177.725 43.8149 177.46 43.6028C177.195 43.3818 176.872 43.2713 176.492 43.2713C176.209 43.2713 175.958 43.3288 175.737 43.4437C175.516 43.5586 175.326 43.7133 175.166 43.9078C175.007 44.0934 174.875 44.2967 174.769 44.5177C174.671 44.7387 174.596 44.9597 174.543 45.1806C174.499 45.4016 174.477 45.5961 174.477 45.7641V45.9099C174.477 46.1574 174.521 46.4226 174.61 46.7055C174.698 46.9883 174.826 47.2535 174.994 47.501C175.162 47.7485 175.37 47.9518 175.617 48.111C175.874 48.2701 176.17 48.3496 176.506 48.3496ZM181.027 49.2247V42.3697H182.233V49.2247H181.027ZM181.636 41.2957C181.362 41.2957 181.155 41.2382 181.013 41.1233C180.881 41.0084 180.814 40.8449 180.814 40.6327C180.814 40.4029 180.885 40.2349 181.027 40.1289C181.168 40.0139 181.371 39.9565 181.636 39.9565C181.91 39.9565 182.114 40.0139 182.246 40.1289C182.388 40.2349 182.459 40.4029 182.459 40.6327C182.459 40.8449 182.388 41.0084 182.246 41.1233C182.114 41.2382 181.91 41.2957 181.636 41.2957ZM187.027 49.3971C186.479 49.3971 185.997 49.3131 185.582 49.1452C185.175 48.9772 184.831 48.743 184.548 48.4424C184.274 48.133 184.066 47.7662 183.924 47.3419C183.783 46.9088 183.712 46.427 183.712 45.8966C183.712 45.3751 183.783 44.8889 183.924 44.4381C184.066 43.9873 184.269 43.5939 184.534 43.258C184.808 42.9221 185.144 42.6614 185.542 42.4757C185.94 42.2901 186.395 42.1973 186.908 42.1973C187.376 42.1973 187.796 42.2769 188.167 42.436C188.539 42.5951 188.853 42.8293 189.109 43.1387C189.365 43.4481 189.555 43.8326 189.679 44.2923C189.803 44.7519 189.847 45.2867 189.812 45.8966L184.468 45.9497V45.1276L189.029 45.0746L188.671 45.6049C188.707 45.0922 188.654 44.6591 188.512 44.3055C188.38 43.9519 188.176 43.6868 187.902 43.51C187.628 43.3243 187.297 43.2315 186.908 43.2315C186.492 43.2315 186.134 43.3376 185.834 43.5498C185.533 43.7619 185.299 44.0669 185.131 44.4646C184.972 44.8624 184.892 45.3309 184.892 45.8701C184.892 46.6922 185.074 47.3198 185.436 47.7529C185.807 48.1861 186.342 48.4027 187.04 48.4027C187.35 48.4027 187.611 48.3629 187.823 48.2833C188.035 48.2038 188.212 48.0933 188.353 47.9518C188.495 47.8104 188.605 47.6557 188.685 47.4878C188.764 47.311 188.817 47.1342 188.844 46.9574L189.944 47.143C189.882 47.4878 189.776 47.7971 189.626 48.0712C189.485 48.3452 189.29 48.5839 189.043 48.7872C188.795 48.9816 188.503 49.1319 188.167 49.238C187.832 49.3441 187.451 49.3971 187.027 49.3971ZM193.971 49.3971C193.512 49.3971 193.096 49.3485 192.725 49.2513C192.354 49.154 192.04 49.0082 191.783 48.8137C191.527 48.6192 191.333 48.3761 191.2 48.0844C191.067 47.7927 191.006 47.4612 191.014 47.09L192.062 46.8778C192.044 47.2226 192.115 47.5099 192.274 47.7397C192.433 47.9695 192.663 48.1419 192.964 48.2568C193.264 48.3629 193.618 48.4159 194.024 48.4159C194.555 48.4159 194.961 48.3275 195.244 48.1507C195.536 47.9739 195.682 47.7309 195.682 47.4215C195.682 47.174 195.602 46.9839 195.443 46.8513C195.284 46.7099 195.063 46.5994 194.78 46.5198C194.497 46.4403 194.175 46.3651 193.812 46.2944C193.476 46.2237 193.145 46.1442 192.818 46.0558C192.499 45.9674 192.212 45.8524 191.956 45.711C191.699 45.5607 191.492 45.3707 191.333 45.1409C191.182 44.9022 191.107 44.6017 191.107 44.2392C191.107 43.8238 191.218 43.4658 191.439 43.1652C191.66 42.8558 191.973 42.6172 192.38 42.4492C192.787 42.2813 193.268 42.1973 193.825 42.1973C194.365 42.1973 194.837 42.2813 195.244 42.4492C195.651 42.6172 195.973 42.8691 196.212 43.205C196.451 43.5321 196.574 43.9343 196.583 44.4116L195.509 44.637C195.518 44.31 195.447 44.0403 195.297 43.8282C195.156 43.6072 194.952 43.4437 194.687 43.3376C194.422 43.2315 194.117 43.1785 193.772 43.1785C193.304 43.1785 192.933 43.2669 192.659 43.4437C192.393 43.6205 192.261 43.8636 192.261 44.1729C192.261 44.4204 192.34 44.6149 192.499 44.7563C192.667 44.8978 192.893 45.0083 193.176 45.0878C193.459 45.1585 193.777 45.2337 194.13 45.3132C194.466 45.3751 194.793 45.4503 195.112 45.5386C195.439 45.6182 195.73 45.7331 195.987 45.8834C196.243 46.0248 196.446 46.2149 196.597 46.4535C196.756 46.6922 196.835 46.9972 196.835 47.3684C196.835 47.8016 196.716 48.1728 196.477 48.4822C196.247 48.7828 195.916 49.0126 195.483 49.1717C195.058 49.322 194.555 49.3971 193.971 49.3971Z" fill="#4B4B4B"/>
<path d="M111.485 70.3015V67.3712H117.955V70.3015H111.485ZM120.451 74.8322V64.5987H118.354V61.7585C119.031 61.7585 119.587 61.6458 120.022 61.4204C120.473 61.18 120.766 60.6916 120.901 59.9552H123.719V74.8322H120.451ZM132.806 75.1703C130.627 75.1703 128.959 74.5166 127.802 73.2092C126.66 71.9019 126.089 70.0085 126.089 67.529C126.089 65.8159 126.352 64.3732 126.878 63.2011C127.419 62.014 128.185 61.1199 129.177 60.5188C130.169 59.9177 131.341 59.6171 132.693 59.6171C133.399 59.6171 134.061 59.7073 134.677 59.8876C135.293 60.0529 135.834 60.3159 136.3 60.6766C136.781 61.0372 137.164 61.4955 137.449 62.0515C137.75 62.6076 137.938 63.2612 138.013 64.0126L134.97 64.6437C134.91 64.0426 134.744 63.5768 134.474 63.2462C134.218 62.9006 133.91 62.6601 133.55 62.5249C133.204 62.3897 132.851 62.322 132.49 62.322C131.949 62.322 131.476 62.4573 131.07 62.7278C130.664 62.9983 130.326 63.3664 130.056 63.8323C129.8 64.2981 129.605 64.8391 129.47 65.4552C129.35 66.0713 129.289 66.725 129.289 67.4163C129.289 67.7769 129.312 68.1826 129.357 68.6335C129.402 69.0693 129.47 69.49 129.56 69.8957H129.74C129.71 69.0542 129.815 68.363 130.056 67.822C130.311 67.266 130.649 66.8227 131.07 66.4921C131.506 66.1615 131.972 65.9286 132.468 65.7933C132.964 65.6581 133.444 65.5905 133.91 65.5905C134.737 65.5905 135.496 65.7633 136.187 66.1089C136.893 66.4395 137.457 66.9429 137.878 67.6191C138.298 68.2953 138.509 69.1294 138.509 70.1212C138.509 70.7222 138.411 71.3233 138.216 71.9244C138.02 72.5255 137.697 73.074 137.246 73.5699C136.811 74.0508 136.225 74.4415 135.488 74.742C134.767 75.0275 133.873 75.1703 132.806 75.1703ZM132.671 72.5556C133.076 72.5556 133.437 72.503 133.753 72.3978C134.068 72.2776 134.339 72.1123 134.564 71.9019C134.804 71.6765 134.977 71.421 135.082 71.1355C135.203 70.85 135.263 70.5344 135.263 70.1888C135.263 69.6929 135.15 69.2721 134.925 68.9265C134.714 68.5809 134.429 68.3179 134.068 68.1376C133.707 67.9572 133.302 67.8671 132.851 67.8671C132.355 67.8671 131.912 67.9723 131.521 68.1826C131.13 68.393 130.815 68.6936 130.574 69.0843C130.349 69.46 130.236 69.9108 130.236 70.4367C130.236 70.8124 130.304 71.1355 130.439 71.406C130.574 71.6765 130.755 71.9019 130.98 72.0822C131.205 72.2475 131.461 72.3677 131.746 72.4429C132.047 72.518 132.355 72.5556 132.671 72.5556ZM141.756 74.8322C141.756 73.8103 141.868 72.7659 142.094 71.699C142.319 70.6321 142.65 69.5727 143.085 68.5208C143.536 67.4538 144.1 66.432 144.776 65.4552C145.452 64.4784 146.249 63.5618 147.165 62.7052V62.5474L139.592 62.6151V59.9327H150.118V62.6376C149.472 63.2687 148.863 64.0351 148.292 64.9368C147.721 65.8234 147.21 66.8001 146.76 67.8671C146.324 68.919 145.978 70.0385 145.723 71.2257C145.467 72.3978 145.34 73.6 145.34 74.8322H141.756ZM148.761 77.785C149.031 77.0637 149.219 76.4025 149.324 75.8014C149.445 75.2154 149.512 74.6218 149.527 74.0207C149.557 73.4196 149.572 72.781 149.572 72.1047H152.548C152.548 73.0965 152.488 73.9456 152.367 74.6519C152.247 75.3581 152.082 75.9592 151.871 76.4551C151.676 76.966 151.466 77.4093 151.24 77.785H148.761ZM160.222 75.1703C158.96 75.1703 157.856 75.02 156.909 74.7195C155.962 74.4189 155.226 73.9606 154.7 73.3445C154.174 72.7284 153.911 71.9545 153.911 71.0228C153.911 70.3315 154.054 69.7304 154.339 69.2195C154.64 68.7086 155.06 68.2953 155.601 67.9798C156.142 67.6642 156.789 67.4613 157.54 67.3712V67.2134L160.222 66.695L162.905 67.1908V67.3712C163.641 67.4463 164.28 67.6417 164.821 67.9572C165.362 68.2578 165.782 68.6635 166.083 69.1744C166.383 69.6854 166.534 70.3015 166.534 71.0228C166.534 71.9545 166.271 72.7284 165.745 73.3445C165.219 73.9606 164.483 74.4189 163.536 74.7195C162.589 75.02 161.485 75.1703 160.222 75.1703ZM160.245 72.4879C160.575 72.4879 160.914 72.4579 161.259 72.3978C161.605 72.3226 161.928 72.2099 162.228 72.0597C162.529 71.9094 162.769 71.7065 162.95 71.4511C163.145 71.1956 163.243 70.88 163.243 70.5043C163.243 70.0535 163.108 69.6854 162.837 69.3998C162.567 69.0993 162.198 68.8814 161.733 68.7462C161.282 68.6109 160.778 68.5433 160.222 68.5433C159.666 68.5433 159.163 68.6109 158.712 68.7462C158.261 68.8814 157.901 69.0918 157.63 69.3773C157.375 69.6628 157.247 70.031 157.247 70.4818C157.247 70.8425 157.337 71.158 157.517 71.4285C157.698 71.684 157.938 71.8944 158.239 72.0597C158.539 72.2099 158.862 72.3226 159.208 72.3978C159.554 72.4579 159.899 72.4879 160.245 72.4879ZM160.222 66.154C160.658 66.154 161.056 66.0939 161.417 65.9736C161.793 65.8384 162.093 65.6355 162.319 65.365C162.544 65.0795 162.657 64.7038 162.657 64.238C162.657 63.8623 162.582 63.5543 162.431 63.3138C162.281 63.0584 162.078 62.8555 161.823 62.7052C161.582 62.555 161.319 62.4498 161.034 62.3897C160.748 62.3295 160.47 62.2995 160.2 62.2995C159.824 62.2995 159.448 62.3596 159.073 62.4798C158.712 62.585 158.404 62.7804 158.149 63.0659C157.908 63.3514 157.788 63.7346 157.788 64.2155C157.788 64.6663 157.901 65.042 158.126 65.3425C158.351 65.628 158.644 65.8384 159.005 65.9736C159.381 66.0939 159.787 66.154 160.222 66.154ZM160.222 68.115L157.54 67.4163V67.1683C156.849 67.0481 156.27 66.8452 155.804 66.5597C155.354 66.2742 155.015 65.906 154.79 65.4552C154.565 64.9894 154.452 64.4409 154.452 63.8097C154.452 62.863 154.692 62.0816 155.173 61.4655C155.669 60.8343 156.345 60.3685 157.202 60.068C158.073 59.7674 159.08 59.6171 160.222 59.6171C161.394 59.6171 162.409 59.7749 163.265 60.0905C164.137 60.4061 164.806 60.8794 165.271 61.5106C165.752 62.1267 165.993 62.8931 165.993 63.8097C165.993 64.7114 165.745 65.4477 165.249 66.0187C164.768 66.5898 163.987 66.9654 162.905 67.1458V67.4163L160.222 68.115ZM174.033 75.1703C173.267 75.1703 172.553 75.0801 171.892 74.8998C171.231 74.7345 170.652 74.4715 170.156 74.1109C169.661 73.7502 169.262 73.2994 168.962 72.7584C168.676 72.2174 168.511 71.5863 168.466 70.865L171.486 70.2339C171.546 70.6847 171.667 71.0528 171.847 71.3384C172.027 71.6239 172.238 71.8493 172.478 72.0146C172.734 72.1799 172.997 72.2926 173.267 72.3527C173.553 72.4128 173.823 72.4429 174.079 72.4429C174.695 72.4429 175.221 72.3226 175.656 72.0822C176.092 71.8267 176.445 71.4736 176.716 71.0228C176.986 70.572 177.182 70.046 177.302 69.4449C177.437 68.8438 177.505 68.1977 177.505 67.5064C177.505 67.251 177.49 66.9805 177.46 66.695C177.445 66.3944 177.415 66.0939 177.37 65.7933C177.339 65.4777 177.294 65.1772 177.234 64.8917H177.031C177.077 65.7032 176.971 66.3869 176.716 66.9429C176.475 67.4989 176.137 67.9422 175.702 68.2728C175.281 68.6034 174.815 68.8363 174.304 68.9716C173.808 69.1068 173.32 69.1744 172.839 69.1744C172.027 69.1744 171.276 69.0016 170.585 68.656C169.909 68.2953 169.353 67.7769 168.917 67.1007C168.496 66.4245 168.286 65.598 168.286 64.6212C168.286 64.0201 168.383 63.4265 168.579 62.8405C168.789 62.2544 169.112 61.7209 169.548 61.2401C169.984 60.7442 170.555 60.3535 171.261 60.068C171.982 59.7674 172.869 59.6171 173.921 59.6171C175.378 59.6171 176.611 59.9327 177.617 60.5639C178.624 61.18 179.391 62.0741 179.917 63.2462C180.443 64.4183 180.706 65.8384 180.706 67.5064C180.706 69.1895 180.435 70.602 179.894 71.7441C179.368 72.8862 178.609 73.7427 177.617 74.3137C176.626 74.8848 175.431 75.1703 174.033 75.1703ZM173.921 66.8978C174.402 66.8978 174.837 66.7926 175.228 66.5822C175.619 66.3719 175.927 66.0788 176.152 65.7032C176.378 65.3124 176.49 64.8616 176.49 64.3507C176.49 63.8398 176.37 63.434 176.13 63.1335C175.904 62.8179 175.604 62.585 175.228 62.4347C174.868 62.2845 174.484 62.2093 174.079 62.2093C173.688 62.2093 173.335 62.2694 173.019 62.3897C172.704 62.5099 172.441 62.6827 172.23 62.9081C172.02 63.1185 171.855 63.3664 171.734 63.6519C171.614 63.9224 171.554 64.2305 171.554 64.5761C171.554 65.042 171.659 65.4552 171.87 65.8159C172.08 66.1615 172.358 66.432 172.704 66.6273C173.064 66.8077 173.47 66.8978 173.921 66.8978ZM182.302 66.8978L182.82 65.2298H191.431L190.935 66.8978H182.302ZM181.986 69.9183L182.482 68.2503H190.777L190.281 69.9183H181.986ZM191.16 75.1478C189.988 75.1478 188.951 74.9749 188.05 74.6293C187.148 74.2687 186.389 73.7577 185.773 73.0965C185.172 72.4353 184.714 71.6389 184.398 70.7072C184.082 69.7605 183.925 68.6936 183.925 67.5064C183.925 66.3042 184.082 65.2223 184.398 64.2605C184.729 63.2988 185.194 62.4723 185.796 61.7811C186.412 61.0898 187.156 60.5639 188.027 60.2032C188.899 59.8275 189.89 59.6397 191.003 59.6397C191.904 59.6397 192.716 59.7674 193.437 60.0229C194.158 60.2633 194.767 60.6089 195.263 61.0597C195.774 61.4955 196.157 62.0215 196.412 62.6376C196.668 63.2537 196.788 63.9375 196.773 64.6888L193.752 65.3425C193.768 64.6813 193.647 64.1328 193.392 63.697C193.136 63.2462 192.791 62.9081 192.355 62.6827C191.919 62.4423 191.431 62.322 190.89 62.322C190.424 62.322 189.973 62.4197 189.537 62.6151C189.117 62.7954 188.741 63.0884 188.41 63.4942C188.08 63.8849 187.817 64.4033 187.621 65.0495C187.426 65.6806 187.328 66.4395 187.328 67.3261C187.328 68.4982 187.486 69.4675 187.802 70.2339C188.132 70.9852 188.591 71.5487 189.177 71.9244C189.778 72.3001 190.469 72.4879 191.25 72.4879C192.032 72.4879 192.648 72.3226 193.099 71.992C193.565 71.6464 193.895 71.1956 194.091 70.6396C194.286 70.0836 194.384 69.475 194.384 68.8138L197.291 69.2195C197.306 70.031 197.209 70.7974 196.998 71.5187C196.788 72.24 196.435 72.8711 195.939 73.4121C195.458 73.9531 194.819 74.3814 194.023 74.6969C193.242 74.9975 192.287 75.1478 191.16 75.1478Z" fill="black"/>
<path d="M172.608 94.6252C171.989 94.6252 171.45 94.5324 170.99 94.3468C170.54 94.1612 170.19 93.8871 169.943 93.5247C169.704 93.1623 169.58 92.7203 169.572 92.1988L170.725 91.9336C170.743 92.4728 170.911 92.8794 171.229 93.1535C171.547 93.4275 172.002 93.5645 172.595 93.5645C173.258 93.5645 173.766 93.3921 174.12 93.0474C174.473 92.7026 174.65 92.1678 174.65 91.443C174.65 91.1778 174.619 90.9259 174.557 90.6872C174.504 90.4397 174.416 90.2231 174.292 90.0375C174.168 89.843 173.996 89.6928 173.775 89.5867C173.563 89.4806 173.293 89.4276 172.966 89.4276C172.674 89.4276 172.422 89.4674 172.21 89.5469C171.998 89.6265 171.821 89.7326 171.68 89.8651C171.538 89.9977 171.423 90.1392 171.335 90.2894C171.247 90.4397 171.185 90.59 171.149 90.7403H169.784L170.102 85.6885H175.512V86.7492H171.149L170.924 89.9447H171.043C171.229 89.4143 171.521 89.0298 171.918 88.7911C172.325 88.5525 172.785 88.4331 173.297 88.4331C173.89 88.4331 174.376 88.5613 174.756 88.8177C175.145 89.0652 175.432 89.4143 175.618 89.8651C175.803 90.316 175.896 90.8375 175.896 91.4297C175.896 92.1811 175.755 92.7955 175.472 93.2728C175.189 93.7413 174.8 94.086 174.305 94.307C173.819 94.5192 173.253 94.6252 172.608 94.6252ZM180.977 94.6252C179.81 94.6252 178.895 94.2496 178.232 93.4982C177.578 92.7468 177.251 91.6331 177.251 90.1569C177.251 89.2199 177.388 88.4022 177.662 87.7039C177.945 87.0056 178.356 86.4663 178.895 86.0862C179.435 85.6973 180.098 85.5028 180.884 85.5028C181.291 85.5028 181.667 85.5603 182.011 85.6752C182.356 85.7813 182.657 85.9448 182.913 86.1658C183.169 86.378 183.377 86.6476 183.536 86.9746C183.695 87.3017 183.788 87.6818 183.815 88.1149L182.661 88.3536C182.635 87.9204 182.533 87.5757 182.356 87.3194C182.179 87.0542 181.958 86.8641 181.693 86.7492C181.437 86.6255 181.154 86.5636 180.845 86.5636C180.42 86.5636 180.053 86.6652 179.744 86.8685C179.444 87.063 179.196 87.3326 179.002 87.6774C178.816 88.0133 178.679 88.3978 178.59 88.8309C178.502 89.2641 178.458 89.7149 178.458 90.1834C178.458 90.4928 178.48 90.8154 178.524 91.1513C178.568 91.4872 178.63 91.801 178.71 92.0927H178.816C178.781 91.5447 178.829 91.0806 178.962 90.7005C179.103 90.3115 179.302 89.9977 179.558 89.7591C179.815 89.5204 180.102 89.348 180.42 89.242C180.747 89.127 181.079 89.0696 181.415 89.0696C181.901 89.0696 182.347 89.1712 182.754 89.3746C183.169 89.5779 183.501 89.8784 183.748 90.2762C184.005 90.6651 184.133 91.1557 184.133 91.748C184.133 92.1281 184.071 92.4905 183.947 92.8352C183.823 93.18 183.633 93.4894 183.377 93.7634C183.121 94.0286 182.794 94.2407 182.396 94.3998C181.998 94.5501 181.525 94.6252 180.977 94.6252ZM180.884 93.591C181.256 93.591 181.569 93.5424 181.826 93.4452C182.082 93.3391 182.29 93.1977 182.449 93.0209C182.608 92.8441 182.723 92.6452 182.794 92.4242C182.864 92.2032 182.9 91.9778 182.9 91.748C182.9 91.3502 182.811 91.0231 182.635 90.7668C182.467 90.5104 182.25 90.3248 181.985 90.2099C181.72 90.0861 181.437 90.0243 181.136 90.0243C180.747 90.0243 180.407 90.1082 180.115 90.2762C179.824 90.4353 179.594 90.6651 179.426 90.9657C179.258 91.2662 179.174 91.6242 179.174 92.0397C179.174 92.3491 179.223 92.6054 179.32 92.8087C179.426 93.012 179.563 93.1711 179.731 93.286C179.899 93.401 180.08 93.4805 180.274 93.5247C180.478 93.5689 180.681 93.591 180.884 93.591ZM187.504 90.3955C187.062 90.3955 186.655 90.3027 186.284 90.1171C185.912 89.9226 185.616 89.6397 185.395 89.2685C185.183 88.8972 185.077 88.442 185.077 87.9028C185.077 87.4696 185.143 87.0984 185.276 86.789C185.409 86.4708 185.59 86.21 185.82 86.0067C186.049 85.8034 186.31 85.6531 186.602 85.5559C186.902 85.4586 187.207 85.41 187.517 85.41C187.968 85.41 188.379 85.5028 188.75 85.6885C189.121 85.8741 189.413 86.1525 189.625 86.5238C189.846 86.8951 189.957 87.3591 189.957 87.916C189.957 88.4994 189.837 88.9724 189.599 89.3348C189.36 89.6972 189.055 89.9668 188.684 90.1436C188.312 90.3115 187.919 90.3955 187.504 90.3955ZM187.557 89.4011C187.778 89.4011 187.99 89.3525 188.193 89.2552C188.396 89.158 188.564 89.0033 188.697 88.7911C188.829 88.5702 188.896 88.2873 188.896 87.9425C188.896 87.5536 188.821 87.2486 188.67 87.0277C188.52 86.8067 188.334 86.6476 188.113 86.5503C187.901 86.4531 187.689 86.4045 187.477 86.4045C187.256 86.4045 187.044 86.4575 186.841 86.5636C186.637 86.6608 186.469 86.8155 186.337 87.0277C186.204 87.2398 186.138 87.5183 186.138 87.863C186.138 88.2254 186.209 88.5215 186.35 88.7514C186.491 88.9724 186.673 89.1359 186.894 89.242C187.115 89.348 187.336 89.4011 187.557 89.4011ZM194.12 94.7578C193.669 94.7578 193.258 94.665 192.887 94.4794C192.516 94.2938 192.219 94.0153 191.998 93.644C191.786 93.2639 191.68 92.8043 191.68 92.2651C191.68 91.8319 191.747 91.4607 191.879 91.1513C192.021 90.8331 192.206 90.5767 192.436 90.3823C192.666 90.179 192.927 90.0287 193.218 89.9314C193.51 89.8254 193.815 89.7723 194.133 89.7723C194.584 89.7723 194.991 89.8696 195.353 90.064C195.724 90.2497 196.02 90.5281 196.241 90.8994C196.462 91.2618 196.573 91.7214 196.573 92.2783C196.573 92.8617 196.454 93.3391 196.215 93.7103C195.976 94.0728 195.671 94.338 195.3 94.5059C194.929 94.6739 194.535 94.7578 194.12 94.7578ZM194.173 93.7634C194.385 93.7634 194.593 93.7148 194.796 93.6175C195.008 93.5203 195.176 93.3656 195.3 93.1535C195.433 92.9413 195.499 92.6584 195.499 92.3049C195.499 91.9248 195.424 91.6242 195.273 91.4032C195.132 91.1734 194.951 91.0099 194.73 90.9126C194.518 90.8154 194.306 90.7668 194.093 90.7668C193.872 90.7668 193.656 90.8198 193.444 90.9259C193.24 91.0231 193.072 91.1778 192.94 91.39C192.816 91.6021 192.754 91.8806 192.754 92.2253C192.754 92.5877 192.825 92.8838 192.966 93.1137C193.108 93.3347 193.285 93.4982 193.497 93.6043C193.718 93.7103 193.943 93.7634 194.173 93.7634ZM187.397 94.4396L192.874 85.6885H194.107L188.644 94.4396H187.397Z" fill="#4B4B4B"/>
</svg>
