<svg width="233" height="135" viewBox="0 0 233 135" fill="none" xmlns="http://www.w3.org/2000/svg">
<rect x="0.410156" y="0.578613" width="231.674" height="133.507" rx="33" fill="#F3A6FF"/>
<g clip-path="url(#clip0_263_15016)">
<path d="M60.6403 44.8285C60.5879 44.8266 48.8775 44.8266 48.8251 44.8285C43.517 44.8735 39.2119 49.0633 39.2119 54.2039V80.4602C39.2119 85.6308 43.5636 89.8374 48.9124 89.8374H60.553C65.9019 89.8374 70.2535 85.6308 70.2535 80.4602V54.2057C70.2535 49.0633 65.9484 44.8754 60.6403 44.8285ZM66.3733 80.4602C66.3733 83.5622 63.7619 86.0865 60.553 86.0865H48.9124C45.7035 86.0865 43.0921 83.5622 43.0921 80.4602V54.2057C43.0921 51.4807 45.1059 49.2039 47.7697 48.6882L49.1161 51.2932C49.444 51.9289 50.1172 52.3303 50.8525 52.3303H58.6129C59.3482 52.3303 60.0195 51.9289 60.3493 51.2932L61.6957 48.6882C64.3595 49.202 66.3733 51.4807 66.3733 54.2057V80.4602ZM56.6728 82.3356H52.7926C51.7217 82.3356 50.8525 81.4954 50.8525 80.4602C50.8525 79.4249 51.7217 78.5847 52.7926 78.5847H56.6728C57.7438 78.5847 58.6129 79.4249 58.6129 80.4602C58.6129 81.4954 57.7438 82.3356 56.6728 82.3356Z" fill="black"/>
</g>
<path d="M147.176 46.4156V45.1894H150.171C150.658 45.1894 151.087 45.1015 151.46 44.9256C151.842 44.7497 152.163 44.4962 152.422 44.1651C152.691 43.8236 152.887 43.4149 153.012 42.9389C153.146 42.463 153.213 41.9249 153.213 41.3248C153.213 40.735 153.151 40.2021 153.027 39.7261C152.913 39.2398 152.722 38.8259 152.453 38.4845C152.194 38.1327 151.842 37.8636 151.397 37.6774C150.952 37.4911 150.404 37.398 149.752 37.398H147.176V36.1719H149.706C150.865 36.1719 151.811 36.3736 152.546 36.7772C153.281 37.1807 153.819 37.7602 154.16 38.5155C154.512 39.2605 154.688 40.1607 154.688 41.2161C154.688 42.0232 154.6 42.7216 154.424 43.3114C154.248 43.8909 154.005 44.3824 153.695 44.7859C153.384 45.1894 153.032 45.5102 152.639 45.7482C152.256 45.9862 151.853 46.1569 151.428 46.2604C151.015 46.3639 150.606 46.4156 150.202 46.4156H147.176ZM146.431 46.4156V36.1719H147.859V46.4156H146.431ZM160.061 46.6174C159.42 46.6174 158.856 46.5191 158.369 46.3225C157.893 46.1259 157.49 45.8517 157.159 45.4999C156.838 45.1377 156.595 44.7083 156.429 44.2116C156.264 43.7046 156.181 43.1407 156.181 42.5199C156.181 41.9094 156.264 41.3403 156.429 40.8126C156.595 40.2849 156.833 39.8244 157.143 39.4312C157.464 39.038 157.857 38.7328 158.323 38.5155C158.788 38.2982 159.321 38.1896 159.921 38.1896C160.47 38.1896 160.961 38.2827 161.396 38.4689C161.831 38.6552 162.198 38.9294 162.498 39.2915C162.798 39.6537 163.02 40.1038 163.165 40.6418C163.31 41.1799 163.362 41.8059 163.321 42.5199L157.066 42.582V41.6197L162.405 41.5576L161.986 42.1784C162.027 41.5783 161.965 41.0713 161.8 40.6574C161.644 40.2435 161.406 39.9331 161.086 39.7261C160.765 39.5088 160.377 39.4002 159.921 39.4002C159.435 39.4002 159.016 39.5244 158.664 39.7727C158.313 40.021 158.038 40.378 157.842 40.8436C157.655 41.3092 157.562 41.8576 157.562 42.4888C157.562 43.4511 157.774 44.1858 158.199 44.6928C158.633 45.1998 159.259 45.4533 160.077 45.4533C160.439 45.4533 160.744 45.4067 160.992 45.3136C161.241 45.2205 161.448 45.0911 161.613 44.9256C161.779 44.76 161.908 44.579 162.001 44.3824C162.094 44.1754 162.156 43.9685 162.188 43.7615L163.476 43.9788C163.403 44.3824 163.279 44.7445 163.103 45.0653C162.938 45.386 162.71 45.6654 162.42 45.9034C162.131 46.131 161.789 46.3069 161.396 46.4311C161.003 46.5553 160.558 46.6174 160.061 46.6174ZM166.939 46.4156L164.052 38.4069H165.605L167.808 45.205H167.979L170.199 38.4069H171.72L168.817 46.4156H166.939ZM173.014 46.4156V38.3913H174.426V46.4156H173.014ZM173.728 37.1341C173.407 37.1341 173.164 37.0669 172.998 36.9324C172.843 36.7979 172.766 36.6064 172.766 36.3581C172.766 36.0891 172.848 35.8925 173.014 35.7683C173.18 35.6338 173.418 35.5665 173.728 35.5665C174.049 35.5665 174.287 35.6338 174.442 35.7683C174.607 35.8925 174.69 36.0891 174.69 36.3581C174.69 36.6064 174.607 36.7979 174.442 36.9324C174.287 37.0669 174.049 37.1341 173.728 37.1341ZM180.023 46.6174C179.35 46.6174 178.771 46.5087 178.284 46.2914C177.798 46.0741 177.4 45.7741 177.089 45.3912C176.779 45.0084 176.546 44.5686 176.391 44.0719C176.246 43.5753 176.173 43.0424 176.173 42.4733C176.173 41.8732 176.251 41.3144 176.406 40.7971C176.561 40.2797 176.794 39.8244 177.105 39.4312C177.425 39.038 177.819 38.7328 178.284 38.5155C178.76 38.2982 179.314 38.1896 179.945 38.1896C180.431 38.1896 180.866 38.2568 181.249 38.3913C181.642 38.5258 181.978 38.7173 182.258 38.9656C182.537 39.2036 182.759 39.4933 182.925 39.8348C183.091 40.1659 183.189 40.528 183.22 40.9212L181.901 41.2161C181.88 40.885 181.792 40.5798 181.637 40.3004C181.482 40.021 181.259 39.8037 180.969 39.6485C180.68 39.483 180.333 39.4002 179.93 39.4002C179.578 39.4002 179.262 39.4674 178.983 39.602C178.703 39.7261 178.46 39.9175 178.253 40.1762C178.046 40.4349 177.886 40.7505 177.772 41.123C177.658 41.4955 177.601 41.9301 177.601 42.4267C177.601 43.0786 177.695 43.6322 177.881 44.0875C178.077 44.5324 178.357 44.8687 178.719 45.0963C179.091 45.324 179.531 45.4378 180.038 45.4378C180.493 45.4378 180.871 45.355 181.171 45.1894C181.471 45.0135 181.699 44.7807 181.854 44.491C182.02 44.1909 182.118 43.8547 182.149 43.4822L183.453 43.715C183.411 44.1702 183.303 44.579 183.127 44.9411C182.951 45.2929 182.713 45.5982 182.413 45.8568C182.123 46.1052 181.776 46.2914 181.373 46.4156C180.969 46.5501 180.519 46.6174 180.023 46.6174ZM188.39 46.6174C187.748 46.6174 187.184 46.5191 186.698 46.3225C186.222 46.1259 185.818 45.8517 185.487 45.4999C185.167 45.1377 184.923 44.7083 184.758 44.2116C184.592 43.7046 184.509 43.1407 184.509 42.5199C184.509 41.9094 184.592 41.3403 184.758 40.8126C184.923 40.2849 185.161 39.8244 185.472 39.4312C185.793 39.038 186.186 38.7328 186.651 38.5155C187.117 38.2982 187.65 38.1896 188.25 38.1896C188.798 38.1896 189.29 38.2827 189.724 38.4689C190.159 38.6552 190.526 38.9294 190.826 39.2915C191.127 39.6537 191.349 40.1038 191.494 40.6418C191.639 41.1799 191.69 41.8059 191.649 42.5199L185.394 42.582V41.6197L190.733 41.5576L190.314 42.1784C190.356 41.5783 190.294 41.0713 190.128 40.6574C189.973 40.2435 189.735 39.9331 189.414 39.7261C189.093 39.5088 188.705 39.4002 188.25 39.4002C187.764 39.4002 187.345 39.5244 186.993 39.7727C186.641 40.021 186.367 40.378 186.17 40.8436C185.984 41.3092 185.891 41.8576 185.891 42.4888C185.891 43.4511 186.103 44.1858 186.527 44.6928C186.962 45.1998 187.588 45.4533 188.405 45.4533C188.767 45.4533 189.073 45.4067 189.321 45.3136C189.569 45.2205 189.776 45.0911 189.942 44.9256C190.107 44.76 190.237 44.579 190.33 44.3824C190.423 44.1754 190.485 43.9685 190.516 43.7615L191.804 43.9788C191.732 44.3824 191.608 44.7445 191.432 45.0653C191.266 45.386 191.039 45.6654 190.749 45.9034C190.459 46.131 190.118 46.3069 189.724 46.4311C189.331 46.5553 188.886 46.6174 188.39 46.6174Z" fill="#4B4B4B"/>
<path d="M84.9419 70.5288V67.0987H92.5145V70.5288H84.9419ZM100.536 76.2016C99.3925 76.2016 98.3898 76.0873 97.5279 75.8586C96.6836 75.6299 95.9711 75.2957 95.3907 74.856C94.8278 74.4162 94.3968 73.8709 94.0978 73.2201C93.7988 72.5692 93.6316 71.8304 93.5965 71.0037L97.0793 70.133C97.0969 70.6431 97.1849 71.0916 97.3432 71.4786C97.5191 71.8656 97.7654 72.191 98.082 72.4549C98.3986 72.7187 98.7768 72.9122 99.2165 73.0354C99.6563 73.1585 100.14 73.2201 100.668 73.2201C101.319 73.2201 101.89 73.1321 102.383 72.9562C102.893 72.7627 103.289 72.4725 103.57 72.0855C103.869 71.6809 104.019 71.1796 104.019 70.5815C104.019 69.79 103.764 69.1567 103.254 68.6818C102.743 68.2068 101.969 67.8814 100.932 67.7055C99.9114 67.5296 98.6097 67.512 97.0266 67.6528V65.4364L102.699 61.6369V61.4522L94.4408 61.505V58.3915H106.763V61.7952L101.195 65.6738V65.8849C102.814 65.797 104.107 65.9729 105.074 66.4126C106.059 66.8348 106.772 67.4329 107.211 68.2068C107.651 68.9808 107.871 69.8339 107.871 70.7662C107.871 71.8744 107.598 72.8331 107.053 73.6422C106.525 74.4514 105.716 75.0846 104.626 75.542C103.553 75.9817 102.189 76.2016 100.536 76.2016ZM117.048 76.2016C115.923 76.2016 114.902 75.9993 113.988 75.5947C113.091 75.1726 112.325 74.5833 111.692 73.8269C111.076 73.053 110.601 72.1119 110.267 71.0037C109.933 69.8779 109.766 68.6202 109.766 67.2306C109.766 65.2429 110.074 63.5718 110.689 62.2174C111.323 60.8453 112.193 59.8163 113.302 59.1303C114.41 58.4267 115.703 58.0749 117.18 58.0749C118.675 58.0749 119.959 58.4355 121.033 59.1567C122.123 59.8603 122.959 60.8893 123.539 62.2438C124.137 63.5806 124.436 65.2165 124.436 67.1514C124.436 68.5762 124.26 69.8515 123.909 70.9773C123.574 72.0855 123.082 73.0266 122.431 73.8005C121.798 74.5745 121.024 75.1726 120.109 75.5947C119.212 75.9993 118.192 76.2016 117.048 76.2016ZM117.154 73.1673C117.629 73.1673 118.069 73.0618 118.473 72.8507C118.895 72.622 119.265 72.2702 119.581 71.7953C119.898 71.3203 120.144 70.7135 120.32 69.9747C120.496 69.2359 120.584 68.3388 120.584 67.2834C120.584 65.9465 120.443 64.8207 120.162 63.906C119.898 62.9913 119.502 62.2965 118.974 61.8216C118.464 61.3291 117.84 61.0828 117.101 61.0828C116.485 61.0828 115.914 61.2851 115.386 61.6897C114.858 62.0942 114.427 62.7451 114.093 63.6422C113.777 64.5217 113.618 65.6914 113.618 67.1514C113.618 68.1893 113.706 69.0864 113.882 69.8427C114.058 70.5991 114.304 71.2236 114.621 71.7161C114.937 72.191 115.307 72.5516 115.729 72.7979C116.169 73.0442 116.644 73.1673 117.154 73.1673ZM128.002 75.8322C128.002 74.6361 128.134 73.4136 128.398 72.1646C128.662 70.9157 129.049 69.6756 129.559 68.4443C130.086 67.1954 130.746 65.9993 131.538 64.8559C132.329 63.7125 133.261 62.6395 134.334 61.6369V61.4522L125.469 61.5313V58.3915H137.791V61.5577C137.035 62.2965 136.322 63.1936 135.654 64.249C134.985 65.2869 134.387 66.4302 133.86 67.6791C133.349 68.9105 132.945 70.2209 132.646 71.6106C132.347 72.9826 132.197 74.3898 132.197 75.8322H128.002ZM136.202 79.2887C136.519 78.4444 136.739 77.6704 136.862 76.9668C137.002 76.2808 137.082 75.586 137.099 74.8823C137.134 74.1787 137.152 73.4311 137.152 72.6396H140.635C140.635 73.8005 140.564 74.7944 140.424 75.6211C140.283 76.4479 140.089 77.1515 139.843 77.732C139.615 78.33 139.368 78.8489 139.104 79.2887H136.202ZM149.231 76.2016C148.105 76.2016 147.085 75.9993 146.171 75.5947C145.273 75.1726 144.508 74.5833 143.875 73.8269C143.259 73.053 142.784 72.1119 142.45 71.0037C142.116 69.8779 141.949 68.6202 141.949 67.2306C141.949 65.2429 142.257 63.5718 142.872 62.2174C143.506 60.8453 144.376 59.8163 145.485 59.1303C146.593 58.4267 147.886 58.0749 149.363 58.0749C150.858 58.0749 152.142 58.4355 153.215 59.1567C154.306 59.8603 155.142 60.8893 155.722 62.2438C156.32 63.5806 156.619 65.2165 156.619 67.1514C156.619 68.5762 156.443 69.8515 156.091 70.9773C155.757 72.0855 155.265 73.0266 154.614 73.8005C153.981 74.5745 153.207 75.1726 152.292 75.5947C151.395 75.9993 150.375 76.2016 149.231 76.2016ZM149.337 73.1673C149.812 73.1673 150.251 73.0618 150.656 72.8507C151.078 72.622 151.448 72.2702 151.764 71.7953C152.081 71.3203 152.327 70.7135 152.503 69.9747C152.679 69.2359 152.767 68.3388 152.767 67.2834C152.767 65.9465 152.626 64.8207 152.345 63.906C152.081 62.9913 151.685 62.2965 151.157 61.8216C150.647 61.3291 150.023 61.0828 149.284 61.0828C148.668 61.0828 148.097 61.2851 147.569 61.6897C147.041 62.0942 146.61 62.7451 146.276 63.6422C145.959 64.5217 145.801 65.6914 145.801 67.1514C145.801 68.1893 145.889 69.0864 146.065 69.8427C146.241 70.5991 146.487 71.2236 146.804 71.7161C147.12 72.191 147.49 72.5516 147.912 72.7979C148.352 73.0442 148.827 73.1673 149.337 73.1673ZM165.317 76.2016C163.963 76.2016 162.793 76.0081 161.808 75.6211C160.823 75.2341 160.066 74.6713 159.539 73.9325C159.011 73.1761 158.756 72.2702 158.773 71.2148L162.362 70.6343C162.415 71.461 162.705 72.0855 163.233 72.5077C163.778 72.9122 164.481 73.1145 165.343 73.1145C166.328 73.1145 167.076 72.8419 167.586 72.2966C168.114 71.7513 168.378 70.9421 168.378 69.8691C168.378 69.3766 168.316 68.9368 168.193 68.5499C168.087 68.1453 167.929 67.8023 167.718 67.5208C167.507 67.2218 167.226 67.0019 166.874 66.8612C166.54 66.7029 166.135 66.6237 165.66 66.6237C165.326 66.6237 165.018 66.6677 164.737 66.7556C164.455 66.8436 164.2 66.9667 163.971 67.125C163.76 67.2834 163.567 67.4856 163.391 67.7319C163.215 67.9606 163.065 68.2244 162.942 68.5235H159.09L159.802 58.4179H171.544V61.5841H162.969L162.547 66.8084H162.784C163.118 65.8585 163.664 65.1373 164.42 64.6448C165.194 64.1523 166.1 63.906 167.138 63.906C168.281 63.906 169.231 64.1523 169.987 64.6448C170.761 65.1373 171.333 65.8322 171.702 66.7293C172.089 67.6088 172.283 68.6554 172.283 69.8691C172.283 71.3291 171.993 72.5252 171.412 73.4575C170.849 74.3898 170.049 75.0846 169.011 75.542C167.973 75.9817 166.742 76.2016 165.317 76.2016ZM174.098 66.5446L174.705 64.592H184.784L184.204 66.5446H174.098ZM173.729 70.0802L174.309 68.1277H184.019L183.438 70.0802H173.729ZM184.467 76.2016C183.095 76.2016 181.882 75.9993 180.826 75.5947C179.771 75.1726 178.883 74.5745 178.161 73.8005C177.458 73.0266 176.921 72.0943 176.552 71.0037C176.182 69.8955 175.998 68.6466 175.998 67.257C175.998 65.8498 176.182 64.5833 176.552 63.4575C176.939 62.3317 177.484 61.3642 178.188 60.5551C178.909 59.7459 179.78 59.1303 180.8 58.7081C181.82 58.2684 182.981 58.0485 184.283 58.0485C185.338 58.0485 186.288 58.198 187.132 58.497C187.977 58.7785 188.689 59.183 189.27 59.7108C189.868 60.2209 190.316 60.8365 190.615 61.5577C190.914 62.2789 191.055 63.0793 191.037 63.9588L187.502 64.724C187.519 63.95 187.379 63.308 187.08 62.7978C186.781 62.2701 186.376 61.8744 185.866 61.6105C185.356 61.3291 184.784 61.1883 184.151 61.1883C183.606 61.1883 183.078 61.3027 182.568 61.5313C182.075 61.7424 181.635 62.0854 181.248 62.5604C180.861 63.0177 180.554 63.6246 180.325 64.381C180.096 65.1198 179.982 66.0081 179.982 67.0459C179.982 68.4179 180.167 69.5525 180.536 70.4496C180.923 71.3291 181.46 71.9887 182.146 72.4285C182.849 72.8683 183.658 73.0881 184.573 73.0881C185.488 73.0881 186.209 72.8946 186.737 72.5077C187.282 72.1031 187.669 71.5754 187.898 70.9245C188.126 70.2737 188.241 69.5613 188.241 68.7873L191.644 69.2623C191.662 70.2121 191.548 71.1092 191.301 71.9536C191.055 72.7979 190.642 73.5367 190.061 74.1699C189.498 74.8032 188.751 75.3045 187.818 75.6739C186.904 76.0257 185.787 76.2016 184.467 76.2016Z" fill="black"/>
<path d="M162.655 96.0139V94.4308C163.131 93.9548 163.586 93.4529 164.021 92.9252C164.465 92.3975 164.874 91.8595 165.247 91.3111C165.619 90.7523 165.95 90.1936 166.24 89.6348C166.54 89.0761 166.794 88.5277 167.001 87.9896H169.437V98.2489H168.025V89.1071H167.916C167.606 89.8625 167.244 90.5764 166.83 91.249C166.426 91.9112 165.992 92.5269 165.526 93.096C165.06 93.6651 164.574 94.1979 164.067 94.6946V94.8033H170.726V96.0139H162.655ZM172.895 98.2489C172.895 97.5039 172.962 96.7278 173.097 95.9208C173.242 95.1137 173.459 94.3118 173.749 93.515C174.049 92.7183 174.421 91.9629 174.866 91.249C175.321 90.5247 175.86 89.878 176.48 89.3089V89.2002L171.188 89.2313V88.0051H177.831V89.3244C177.313 89.8418 176.843 90.4264 176.418 91.0783C176.004 91.7301 175.647 92.4337 175.347 93.1891C175.047 93.9341 174.814 94.7308 174.649 95.5793C174.494 96.4278 174.416 97.3176 174.416 98.2489H172.895ZM181.669 93.515C181.151 93.515 180.675 93.4064 180.241 93.1891C179.806 92.9615 179.46 92.6303 179.201 92.1958C178.953 91.7612 178.828 91.2283 178.828 90.5971C178.828 90.0901 178.906 89.6555 179.061 89.2934C179.216 88.9209 179.429 88.6156 179.698 88.3776C179.967 88.1397 180.272 87.9638 180.613 87.8499C180.965 87.7361 181.322 87.6792 181.684 87.6792C182.212 87.6792 182.693 87.7878 183.128 88.0051C183.562 88.2224 183.904 88.5484 184.152 88.983C184.411 89.4175 184.54 89.9608 184.54 90.6126C184.54 91.2956 184.4 91.8491 184.121 92.2734C183.842 92.6976 183.485 93.0132 183.05 93.2201C182.615 93.4167 182.155 93.515 181.669 93.515ZM181.731 92.351C181.989 92.351 182.238 92.2941 182.476 92.1802C182.714 92.0664 182.91 91.8853 183.066 91.637C183.221 91.3783 183.298 91.0472 183.298 90.6437C183.298 90.1884 183.21 89.8314 183.035 89.5727C182.859 89.3141 182.641 89.1278 182.383 89.014C182.134 88.9002 181.886 88.8433 181.638 88.8433C181.379 88.8433 181.131 88.9053 180.893 89.0295C180.655 89.1433 180.458 89.3244 180.303 89.5727C180.148 89.8211 180.07 90.147 180.07 90.5506C180.07 90.9748 180.153 91.3214 180.318 91.5904C180.484 91.8491 180.696 92.0405 180.955 92.1647C181.213 92.2889 181.472 92.351 181.731 92.351ZM189.414 98.6214C188.886 98.6214 188.405 98.5127 187.97 98.2954C187.536 98.0781 187.189 97.7522 186.93 97.3176C186.682 96.8727 186.558 96.3346 186.558 95.7035C186.558 95.1964 186.635 94.7619 186.791 94.3997C186.956 94.0272 187.173 93.7271 187.442 93.4995C187.711 93.2615 188.017 93.0856 188.358 92.9718C188.7 92.8476 189.057 92.7855 189.429 92.7855C189.957 92.7855 190.433 92.8994 190.857 93.127C191.292 93.3443 191.638 93.6702 191.897 94.1048C192.156 94.5291 192.285 95.0671 192.285 95.719C192.285 96.4019 192.145 96.9606 191.866 97.3952C191.586 97.8195 191.229 98.1299 190.795 98.3265C190.36 98.5231 189.9 98.6214 189.414 98.6214ZM189.476 97.4573C189.724 97.4573 189.967 97.4004 190.205 97.2866C190.453 97.1728 190.65 96.9917 190.795 96.7434C190.95 96.495 191.028 96.1639 191.028 95.75C191.028 95.3051 190.94 94.9533 190.764 94.6946C190.598 94.4256 190.386 94.2342 190.128 94.1203C189.879 94.0065 189.631 93.9496 189.383 93.9496C189.124 93.9496 188.87 94.0117 188.622 94.1359C188.384 94.2497 188.187 94.4308 188.032 94.6791C187.887 94.9274 187.815 95.2534 187.815 95.6569C187.815 96.0811 187.898 96.4278 188.063 96.6968C188.229 96.9555 188.436 97.1469 188.684 97.2711C188.943 97.3952 189.207 97.4573 189.476 97.4573ZM181.545 98.2489L187.955 88.0051H189.398L183.003 98.2489H181.545Z" fill="#4B4B4B"/>
<defs>
<clipPath id="clip0_263_15016">
<rect width="31.0416" height="45.0103" fill="white" transform="translate(39.2119 44.8271)"/>
</clipPath>
</defs>
</svg>
